<svg width="322" height="312" viewBox="0 0 322 312" fill="none" xmlns="http://www.w3.org/2000/svg">
<g clip-path="url(#clip0_4280_4613)">
<path d="M230.841 312C281.187 312 322 308.232 322 303.584C322 298.936 281.187 295.168 230.841 295.168C180.496 295.168 139.683 298.936 139.683 303.584C139.683 308.232 180.496 312 230.841 312Z" fill="white"/>
<path opacity="0.1" d="M230.841 312C281.187 312 322 308.232 322 303.584C322 298.936 281.187 295.168 230.841 295.168C180.496 295.168 139.683 298.936 139.683 303.584C139.683 308.232 180.496 312 230.841 312Z" fill="#292A2E"/>
<path d="M79.5146 178.434H50.4575V186.893H79.5146V178.434Z" fill="#F4F4F4"/>
<path opacity="0.05" d="M58.1669 178.434H54.3596V186.893H58.1669V178.434Z" fill="#292A2E"/>
<path d="M75.8016 180.273H59.9705V185.285H75.8016V180.273Z" fill="white"/>
<path d="M102.692 179.538L75.6929 167.74L72.3089 175.491L99.3079 187.29L102.692 179.538Z" fill="#F4F4F4"/>
<path opacity="0.05" d="M102.692 179.538L75.6929 167.74L72.3089 175.491L99.3079 187.29L102.692 179.538Z" fill="#292A2E"/>
<path d="M99.0661 177.953L95.5283 176.408L92.1443 184.159L95.6821 185.705L99.0661 177.953Z" fill="white"/>
<path d="M93.1166 177.36L78.407 170.932L76.4017 175.526L91.1113 181.954L93.1166 177.36Z" fill="white"/>
<path opacity="0.05" d="M102.743 285.591H95.4404V290.471H102.743V285.591Z" fill="#292A2E"/>
<path opacity="0.05" d="M28.0863 285.591H20.7842V290.471H28.0863V285.591Z" fill="#292A2E"/>
<path d="M109.436 187.29H14.0908V285.426H109.436V187.29Z" fill="#F4F4F4"/>
<path opacity="0.03" d="M109.436 187.29H14.0908V285.426H109.436V187.29Z" fill="#292A2E"/>
<path d="M127.105 187.29H31.7595V285.426H127.105V187.29Z" fill="#F4F4F4"/>
<path opacity="0.05" d="M120.411 285.591H113.109V290.471H120.411V285.591Z" fill="#292A2E"/>
<path opacity="0.05" d="M45.7554 285.591H38.4534V290.471H45.7554V285.591Z" fill="#292A2E"/>
<path opacity="0.7" d="M123.526 191.886H35.3391V210.74H123.526V191.886Z" fill="white"/>
<path opacity="0.7" d="M123.526 215.355H35.3391V234.209H123.526V215.355Z" fill="white"/>
<path opacity="0.7" d="M123.526 238.824H35.3391V257.678H123.526V238.824Z" fill="white"/>
<path opacity="0.05" d="M79.4326 203.951C80.8888 203.951 82.0693 202.77 82.0693 201.313C82.0693 199.856 80.8888 198.675 79.4326 198.675C77.9764 198.675 76.7959 199.856 76.7959 201.313C76.7959 202.77 77.9764 203.951 79.4326 203.951Z" fill="#292A2E"/>
<path opacity="0.05" d="M79.4326 227.42C80.8888 227.42 82.0693 226.239 82.0693 224.782C82.0693 223.325 80.8888 222.144 79.4326 222.144C77.9764 222.144 76.7959 223.325 76.7959 224.782C76.7959 226.239 77.9764 227.42 79.4326 227.42Z" fill="#292A2E"/>
<path opacity="0.05" d="M79.4326 250.889C80.8888 250.889 82.0693 249.708 82.0693 248.251C82.0693 246.794 80.8888 245.613 79.4326 245.613C77.9764 245.613 76.7959 246.794 76.7959 248.251C76.7959 249.708 77.9764 250.889 79.4326 250.889Z" fill="#292A2E"/>
<path opacity="0.7" d="M123.526 262.821H35.3391V281.675H123.526V262.821Z" fill="white"/>
<path opacity="0.05" d="M79.4326 274.886C80.8888 274.886 82.0693 273.705 82.0693 272.248C82.0693 270.791 80.8888 269.61 79.4326 269.61C77.9764 269.61 76.7959 270.791 76.7959 272.248C76.7959 273.705 77.9764 274.886 79.4326 274.886Z" fill="#292A2E"/>
<path d="M47.9367 89.885H104.315L104.315 16.4647H47.9367L47.9367 89.885Z" fill="#F4F4F4"/>
<path d="M47.9371 16.4647H46.1082V89.885H47.9371V16.4647Z" fill="#F4F4F4"/>
<path opacity="0.05" d="M47.9371 16.4647H46.1082V89.885H47.9371V16.4647Z" fill="#292A2E"/>
<path opacity="0.05" d="M58.2073 76.5105H94.0452V29.8389L58.2073 29.8389L58.2073 76.5105Z" fill="#292A2E"/>
<path opacity="0.03" d="M58.207 76.5105H60.0747L60.0747 29.8389H58.207L58.207 76.5105Z" fill="#292A2E"/>
<path d="M1.82871 154.495H47.9368L47.9368 107.94H1.82871L1.82871 154.495Z" fill="#F4F4F4"/>
<path opacity="0.05" d="M10.2278 146.015H39.5374L39.5374 116.421H10.2278L10.2278 146.015Z" fill="#292A2E"/>
<path d="M1.82896 107.94H0V154.496H1.82896V107.94Z" fill="#F4F4F4"/>
<path opacity="0.05" d="M1.82896 107.94H0V154.496H1.82896V107.94Z" fill="#292A2E"/>
<path opacity="0.03" d="M10.2278 146.015H12.0955L12.0955 116.421H10.2278L10.2278 146.015Z" fill="#292A2E"/>
<path d="M282.989 16.2899H165.337V134.002H282.989V16.2899Z" fill="#F4F4F4"/>
<path d="M165.337 16.2899H163.989V134.002H165.337V16.2899Z" fill="#F4F4F4"/>
<path opacity="0.05" d="M165.337 16.2899H163.989V134.002H165.337V16.2899Z" fill="#292A2E"/>
<path opacity="0.05" d="M193.839 97.4033V66.6057H219.053V84.4985H258.111V116.18H274.711V134.002H258.111H254.913H170.996V97.4033H193.839Z" fill="#292A2E"/>
<path opacity="0.34" d="M215.817 69.9495H197.455V73.2933H215.817V69.9495Z" fill="#FFFFFA"/>
<path opacity="0.34" d="M215.817 76.8789H197.455V80.2228H215.817V76.8789Z" fill="#FFFFFA"/>
<path opacity="0.34" d="M215.817 83.8083H197.455V87.1522H215.817V83.8083Z" fill="#FFFFFA"/>
<path opacity="0.34" d="M177.637 100.649H174.252V103.993H177.637V100.649Z" fill="#FFFFFA"/>
<path opacity="0.34" d="M177.637 107.578H174.252V110.922H177.637V107.578Z" fill="#FFFFFA"/>
<path opacity="0.34" d="M177.637 114.508H174.252V117.851H177.637V114.508Z" fill="#FFFFFA"/>
<path opacity="0.34" d="M183.898 100.649H180.513V103.993H183.898V100.649Z" fill="#FFFFFA"/>
<path opacity="0.34" d="M183.898 107.578H180.513V110.922H183.898V107.578Z" fill="#FFFFFA"/>
<path opacity="0.34" d="M183.898 114.508H180.513V117.851H183.898V114.508Z" fill="#FFFFFA"/>
<path opacity="0.34" d="M189.99 100.649H186.605V103.993H189.99V100.649Z" fill="#FFFFFA"/>
<path opacity="0.34" d="M189.99 107.578H186.605V110.922H189.99V107.578Z" fill="#FFFFFA"/>
<path opacity="0.34" d="M189.99 114.508H186.605V117.851H189.99V114.508Z" fill="#FFFFFA"/>
<path d="M165.337 74.4855H189.01V16.2895H190.968V74.4855H254.913V16.2895H256.871V74.4855H282.989V76.4443H256.871V134.002H254.913V76.4443H190.968V134.002H189.01V76.4443H165.337V74.4855Z" fill="white"/>
<path d="M287.676 133.86H160.65V137.775H287.676V133.86Z" fill="#F4F4F4"/>
<path opacity="0.1" d="M287.676 133.86H160.65V137.775H287.676V133.86Z" fill="#292A2E"/>
<path opacity="0.1" d="M160.65 133.86H158.816V137.775H160.65V133.86Z" fill="#292A2E"/>
<path opacity="0.1" d="M160.65 133.86H158.816V137.775H160.65V133.86Z" fill="#292A2E"/>
<path d="M262.815 154.026C244.803 154.026 230.201 158.942 230.201 165.007V178.08H295.428V165.007C295.428 158.942 280.827 154.026 262.815 154.026Z" fill="#A0BA3B"/>
<path opacity="0.49" d="M262.815 154.026C244.803 154.026 230.201 158.942 230.201 165.007V178.08H295.428V165.007C295.428 158.942 280.827 154.026 262.815 154.026Z" fill="white"/>
<path opacity="0.49" d="M286.544 165.008V178.079H230.2V165.008C230.2 159.449 242.463 154.856 258.372 154.13C274.282 154.856 286.544 159.449 286.544 165.008Z" fill="white"/>
<path d="M295.428 305.106H296.523L295.428 176.92L294.343 178.016L295.117 267.557L256.478 268.214L255.698 178.006L254.613 178.016L255.393 268.232L232.069 268.629L231.285 178.006L230.2 176.93L231.295 305.106L232.371 305.097L232.078 269.715L255.402 269.318L255.698 305.106L256.784 305.097L256.487 269.3L295.126 268.643L295.428 305.106Z" fill="#292A2E"/>
<path d="M197.054 285.915C197.054 285.915 195.114 295.974 185.701 296.534C176.287 297.095 178.329 304.598 178.329 304.598H214.302V286.616L197.054 285.915Z" fill="#A0BA3B"/>
<path d="M217.578 255.659C217.578 255.659 220.276 265.542 212.076 270.202C203.877 274.863 209.019 280.694 209.019 280.694L241.297 264.805L233.364 248.67L217.578 255.659Z" fill="#A0BA3B"/>
<path d="M214.163 262.191L189.841 170.375C187.996 160.231 190.774 155.835 195.053 151.564C202.572 144.06 233.729 128.089 233.729 128.089L271.108 127.987C281.02 127.987 290.762 137.765 290.762 147.681C290.762 157.597 280.687 166.006 270.775 166.006L224.747 170.603L237.224 254.673L214.163 262.191Z" fill="#262626"/>
<path d="M237.224 254.672L232.312 221.575L207.427 236.763L214.163 262.191L237.224 254.672Z" fill="#0C0C0C"/>
<path d="M242.864 146.669C242.864 146.669 227.152 150.172 211.589 165.742C202.154 175.182 202.928 192.266 204.343 225.122L219.8 202.281L236.752 171.691L242.864 146.669Z" fill="#0C0C0C"/>
<path d="M297.269 127.977L271.885 127.857L271.875 128.191H264.189C264.189 128.191 244.934 145.917 229.433 157.087C218.158 165.211 211.28 172.957 210.684 181.399C209.234 201.979 192.869 289.747 192.869 289.747L217.497 293.478L239.11 188.588C239.11 188.588 272.904 173 280.72 167.576C288.081 162.469 293.28 160.494 295.716 154.92C299.923 145.292 297.269 127.977 297.269 127.977Z" fill="#262626"/>
<path d="M268.791 134.374L227.61 134.919L250.71 148.723L269.932 138.792C270.395 138.543 270.761 138.146 270.972 137.665C271.183 137.183 271.226 136.644 271.094 136.135C270.963 135.626 270.664 135.175 270.247 134.856C269.829 134.537 269.316 134.367 268.791 134.374Z" fill="#292A2E"/>
<path opacity="0.2" d="M268.791 134.374L227.61 134.919L250.71 148.723L269.932 138.792C270.395 138.543 270.761 138.146 270.972 137.665C271.183 137.183 271.226 136.644 271.094 136.135C270.963 135.626 270.664 135.175 270.247 134.856C269.829 134.537 269.316 134.367 268.791 134.374Z" fill="white"/>
<path d="M227.846 60.4577L216.198 98.2177L192.868 128.779L206.496 144.432L234.252 113.437C235.531 112.426 236.531 111.106 237.159 109.601L237.591 108.554L253.623 69.7429L227.846 60.4577Z" fill="#A0BA3B"/>
<path d="M245.789 20.3763C245.789 20.3763 241.096 16.8295 239.933 8.6717C239.032 2.35504 244.856 6.44732 244.856 6.44732C244.856 6.44732 244.252 1.8925 247.569 2.34454C250.887 2.79658 252.742 7.58123 252.742 7.58123" fill="#0C0C0C"/>
<path d="M264.712 2.87766C264.712 2.87766 281.169 4.64276 275.22 26.9547L273.764 27.0524L270.808 27.2507" fill="#0C0C0C"/>
<path d="M248.546 50.2561C248.618 50.2467 249.421 63.575 264.896 62.4143C275.611 61.6112 279.432 50.2373 279.677 50.2373C278.522 49.9916 277.094 49.6188 276.527 49.491C275.29 49.2039 274.17 48.5469 273.316 47.6074C272.462 46.6678 271.914 45.4903 271.745 44.2315C271.431 42.3423 271.962 32.676 271.799 30.7643L255.354 34.4371C255.584 38.4748 257.192 47.8345 251.556 49.491C250.617 49.7646 249.606 50.018 248.546 50.2561Z" fill="#E98862"/>
<path opacity="0.52" d="M255.124 45.6658C255.381 44.8351 255.547 43.9786 255.618 43.1117C255.799 41.1336 255.763 39.1417 255.51 37.1715C258.853 36.7208 262.003 35.3408 264.601 33.1885C264.906 34.317 266.586 39.2478 266.12 40.3184C265.242 42.3452 261.111 45.6658 255.124 45.6658Z" fill="#0C0C0C"/>
<path d="M258.518 43.0278C265.007 42.4454 272.773 38.3437 272.885 29.5312L272.986 21.5797C273.098 12.7676 268.562 5.56494 260.27 5.45926C251.977 5.35394 245.687 12.4187 245.575 21.2312L245.531 24.7513C245.536 25.9602 245.624 27.1674 245.794 28.3644C246.219 31.5312 246.879 36.3459 249.027 39.6029C251.055 42.6778 254.373 43.3995 258.518 43.0278Z" fill="#E98862"/>
<path opacity="0.52" d="M255.508 34.9728C254.169 35.0335 252.834 34.7785 251.611 34.2283C251.562 34.2057 251.522 34.1645 251.503 34.1134C251.483 34.0624 251.484 34.0056 251.505 33.9552C251.527 33.9047 251.567 33.8648 251.617 33.8438C251.668 33.8228 251.725 33.8224 251.776 33.8428C254.41 34.9666 256.801 34.8023 258.691 33.3673C258.729 33.3371 258.769 33.3089 258.81 33.2829C258.858 33.2606 258.912 33.2569 258.962 33.2726C259.012 33.2884 259.054 33.3224 259.081 33.368C259.107 33.4135 259.115 33.4673 259.104 33.5186C259.092 33.5699 259.062 33.6149 259.018 33.6449C259.003 33.6543 258.979 33.6735 258.946 33.6995C257.952 34.457 256.755 34.9003 255.508 34.9728Z" fill="#0C0C0C"/>
<path opacity="0.52" d="M255.569 36.9579C255.327 36.9729 255.084 36.967 254.843 36.9406C254.816 36.9377 254.789 36.9294 254.765 36.9163C254.741 36.9031 254.72 36.8854 254.702 36.864C254.685 36.8426 254.672 36.8181 254.665 36.7917C254.657 36.7653 254.654 36.7377 254.657 36.7104C254.66 36.6831 254.668 36.6566 254.681 36.6324C254.695 36.6083 254.712 36.587 254.734 36.5697C254.755 36.5524 254.78 36.5395 254.806 36.5317C254.832 36.524 254.86 36.5215 254.887 36.5244C256.336 36.6782 257.028 36.014 257.058 35.9854C257.097 35.9461 257.15 35.924 257.206 35.924C257.261 35.9239 257.314 35.9459 257.354 35.9851C257.393 36.0243 257.415 36.0775 257.415 36.133C257.415 36.1886 257.393 36.2418 257.354 36.2811C256.855 36.7063 256.224 36.9455 255.569 36.9579Z" fill="#0C0C0C"/>
<path d="M248.314 26.4458C248.878 26.4458 249.335 25.9882 249.335 25.4237C249.335 24.8593 248.878 24.4017 248.314 24.4017C247.75 24.4017 247.292 24.8593 247.292 25.4237C247.292 25.9882 247.75 26.4458 248.314 26.4458Z" fill="#0C0C0C"/>
<path d="M258.294 25.8193C258.858 25.8193 259.315 25.3617 259.315 24.7973C259.315 24.2328 258.858 23.7752 258.294 23.7752C257.73 23.7752 257.272 24.2328 257.272 24.7973C257.272 25.3617 257.73 25.8193 258.294 25.8193Z" fill="#0C0C0C"/>
<path d="M272.336 32.2113C274.856 32.2435 276.933 29.5718 276.966 27.0502C276.999 24.5287 274.972 23.1121 272.452 23.0803L271.132 24.7531L270.17 32.1838L272.336 32.2113Z" fill="#E98862"/>
<path d="M269.828 28.1577C269.828 28.1577 268.977 15.6883 265.198 14.9182C262.681 14.4053 256.577 17.9775 250.924 16.8986C248.45 16.4281 246.102 17.039 245.864 18.208C245.769 18.671 244.228 12.0191 248.101 6.97246C251.185 2.9551 261.277 1.81866 265.868 3.13606C278.581 6.78499 272.971 23.6271 272.971 23.6271L272.404 27.9261L269.828 28.1577Z" fill="#0C0C0C"/>
<g opacity="0.52">
<path d="M253.984 32.0303C253.979 32.0307 253.973 32.0307 253.968 32.0303C253.156 32.0224 251.794 31.9178 251.8 31.3101C251.806 30.8063 253.238 25.3836 253.402 24.7669C253.416 24.7138 253.45 24.6684 253.498 24.6409C253.545 24.6133 253.602 24.6057 253.655 24.6197C253.708 24.6338 253.753 24.6684 253.781 24.7158C253.808 24.7633 253.816 24.8198 253.802 24.8729C253.165 27.2746 252.217 30.972 252.214 31.3152C252.292 31.4599 253.131 31.609 253.972 31.6177C254.025 31.6189 254.075 31.6403 254.113 31.6777C254.151 31.7151 254.173 31.7655 254.174 31.8185C254.176 31.8716 254.157 31.9232 254.121 31.9628C254.086 32.0023 254.037 32.0268 253.984 32.031V32.0303Z" fill="#0C0C0C"/>
</g>
<path d="M251.213 19.8819C250.36 19.6469 249.459 19.6469 248.605 19.8819C248.186 19.9948 247.786 20.17 247.419 20.4017C247.056 20.6286 246.723 20.9005 246.428 21.2109C246.373 21.2662 246.342 21.3404 246.341 21.418C246.34 21.4955 246.369 21.5706 246.422 21.6274C246.474 21.6843 246.547 21.7187 246.624 21.7233C246.702 21.728 246.778 21.7026 246.837 21.6525L246.856 21.6366C247.129 21.3835 247.432 21.1659 247.76 20.9891C248.081 20.813 248.427 20.6866 248.786 20.6141C249.493 20.4659 250.226 20.5069 250.912 20.7332L250.941 20.7433C251.053 20.7795 251.175 20.7705 251.281 20.7182C251.386 20.6658 251.467 20.5743 251.507 20.463C251.546 20.3518 251.54 20.2296 251.491 20.1224C251.442 20.0153 251.352 19.9316 251.242 19.8892L251.213 19.8819Z" fill="#0C0C0C"/>
<path d="M257.257 20.3948C257.907 20.0791 258.628 19.9406 259.348 19.9934C259.714 20.0172 260.073 20.0962 260.415 20.228C260.763 20.3599 261.092 20.535 261.396 20.7491L261.416 20.7622C261.481 20.8042 261.56 20.8195 261.636 20.8047C261.713 20.7899 261.78 20.7462 261.825 20.6828C261.87 20.6193 261.889 20.541 261.877 20.4642C261.866 20.3873 261.825 20.3179 261.764 20.2703C261.43 20.0019 261.064 19.7769 260.674 19.6004C260.279 19.4197 259.859 19.2994 259.429 19.2435C258.551 19.1239 257.658 19.2436 256.844 19.5899C256.789 19.6136 256.739 19.6479 256.698 19.6908C256.657 19.7337 256.624 19.7843 256.602 19.8397C256.581 19.8952 256.57 19.9544 256.571 20.014C256.572 20.0736 256.585 20.1324 256.608 20.1871C256.656 20.2974 256.746 20.3842 256.858 20.4284C256.914 20.4502 256.973 20.4609 257.032 20.4599C257.092 20.4588 257.151 20.4461 257.205 20.4223L257.231 20.4104L257.257 20.3948Z" fill="#0C0C0C"/>
<path d="M256.843 7.0293C257.417 4.28222 256.37 1.73915 254.504 1.3492C252.639 0.959255 250.661 2.8701 250.088 5.61717C249.514 8.36425 250.561 10.9073 252.427 11.2972C254.292 11.6872 256.27 9.77637 256.843 7.0293Z" fill="#0C0C0C"/>
<path d="M229.316 79.551C229.804 85.281 233.259 121.031 233.729 128.089H297.241C297.606 121.724 299.245 93.8876 300.629 81.4374C301.95 69.5583 303.801 64.1526 302.28 60.4613C299.596 53.9503 291.055 51.0429 285.271 50.2594C281.739 49.7809 276.427 49.4382 276.427 49.4382C276.427 49.4382 275.977 58.5417 265.252 59.0484C250.653 59.736 251.628 49.4382 251.556 49.4382C249.19 49.4382 236.316 51.1591 233.097 53.2583C228.55 56.2232 227.206 60.2641 227.153 63.9763C227.092 68.2517 228.764 73.0512 229.316 79.551Z" fill="#A0BA3B"/>
<path d="M232.537 114.001C232.491 114.001 232.448 113.984 232.414 113.954C232.381 113.923 232.36 113.881 232.356 113.836L229.949 86.3009C229.945 86.2531 229.96 86.2056 229.991 86.1688C230.022 86.132 230.066 86.109 230.114 86.1048C230.137 86.1023 230.161 86.1047 230.184 86.1117C230.207 86.1187 230.228 86.1302 230.247 86.1456C230.265 86.1609 230.28 86.1798 230.291 86.2011C230.302 86.2224 230.308 86.2456 230.31 86.2694L232.716 113.805C232.72 113.852 232.705 113.9 232.674 113.937C232.644 113.973 232.599 113.996 232.552 114C232.547 114.001 232.542 114.001 232.537 114.001Z" fill="#0C0C0C"/>
<path d="M237.142 129.995L245.863 122.916L244.395 123.332C243.919 123.456 243.413 123.395 242.98 123.161C242.547 122.926 242.219 122.536 242.062 122.069C241.989 121.825 241.967 121.569 241.997 121.317C242.027 121.064 242.108 120.82 242.235 120.6C242.362 120.379 242.532 120.187 242.736 120.035C242.94 119.883 243.172 119.774 243.42 119.714L261.74 115.256L263.317 121.095C263.806 122.908 263.744 124.826 263.137 126.604C262.53 128.381 261.406 129.937 259.91 131.071L253.121 136.197C252.774 136.469 252.343 136.614 251.901 136.605C251.46 136.597 251.035 136.436 250.698 136.15C250.399 135.885 250.192 135.532 250.108 135.141C250.025 134.75 250.068 134.343 250.232 133.979C250.203 133.97 250.176 133.954 250.155 133.931C250.137 133.909 250.125 133.883 250.119 133.855C250.113 133.827 250.114 133.798 250.123 133.771L248.872 134.718C248.486 135.023 247.998 135.171 247.507 135.13C247.016 135.089 246.56 134.863 246.229 134.498C245.945 134.162 245.788 133.736 245.787 133.296C245.786 132.855 245.94 132.428 246.222 132.09C246.202 132.087 246.183 132.081 246.166 132.071L245.652 132.46C245.305 132.733 244.874 132.878 244.432 132.869C243.991 132.861 243.565 132.7 243.229 132.414C242.866 132.093 242.642 131.644 242.603 131.16C242.564 130.677 242.714 130.198 243.021 129.823C243.014 129.813 243.008 129.801 243.003 129.789L239.371 132.737C239.191 132.883 238.984 132.993 238.762 133.059C238.539 133.125 238.306 133.146 238.076 133.122C237.845 133.098 237.622 133.029 237.418 132.919C237.214 132.808 237.034 132.658 236.888 132.478C236.742 132.298 236.633 132.091 236.567 131.869C236.5 131.646 236.479 131.413 236.503 131.182C236.527 130.952 236.596 130.728 236.707 130.524C236.817 130.32 236.967 130.14 237.147 129.994L237.142 129.995Z" fill="#E98862"/>
<path opacity="0.2" d="M243.22 129.895C243.239 129.888 243.257 129.878 243.273 129.865L246.767 126.96C246.785 126.945 246.799 126.927 246.81 126.907C246.821 126.886 246.827 126.864 246.83 126.841C246.832 126.818 246.829 126.795 246.822 126.773C246.816 126.751 246.804 126.73 246.79 126.713C246.775 126.695 246.757 126.68 246.736 126.669C246.716 126.659 246.693 126.652 246.67 126.65C246.647 126.648 246.624 126.65 246.602 126.657C246.58 126.664 246.56 126.675 246.542 126.69L243.048 129.594C243.016 129.62 242.995 129.657 242.987 129.698C242.98 129.739 242.987 129.781 243.008 129.816C243.028 129.852 243.061 129.88 243.1 129.894C243.138 129.909 243.181 129.909 243.22 129.895Z" fill="#0A0A0A"/>
<path opacity="0.2" d="M246.299 132.088C246.318 132.082 246.336 132.072 246.351 132.059L249.115 129.798C249.151 129.768 249.174 129.726 249.179 129.679C249.183 129.633 249.17 129.586 249.14 129.55C249.111 129.514 249.068 129.491 249.021 129.486C248.975 129.482 248.929 129.496 248.893 129.525L246.129 131.787C246.096 131.813 246.074 131.85 246.067 131.89C246.059 131.931 246.066 131.973 246.087 132.01C246.107 132.046 246.14 132.073 246.179 132.088C246.217 132.102 246.26 132.102 246.299 132.088Z" fill="#0A0A0A"/>
<path opacity="0.2" d="M250.345 133.984C250.365 133.977 250.384 133.966 250.4 133.952L251.68 132.854C251.698 132.839 251.712 132.82 251.723 132.8C251.733 132.779 251.74 132.757 251.741 132.734C251.743 132.711 251.74 132.688 251.733 132.666C251.726 132.644 251.715 132.624 251.699 132.606C251.684 132.589 251.666 132.574 251.646 132.564C251.625 132.553 251.603 132.547 251.58 132.545C251.557 132.544 251.533 132.546 251.512 132.553C251.49 132.561 251.469 132.572 251.452 132.587L250.171 133.686C250.14 133.712 250.12 133.749 250.113 133.79C250.106 133.83 250.114 133.872 250.134 133.907C250.155 133.943 250.187 133.97 250.226 133.984C250.264 133.998 250.306 133.998 250.345 133.984Z" fill="#0A0A0A"/>
<path d="M314.219 112.657L314.152 112.359L302.559 61.0596L279.625 66.2467L288.673 106.29L252.427 115.201L256.888 135.663L305.189 126.446C305.298 126.424 305.459 126.392 305.569 126.367C307.037 126.035 308.425 125.417 309.654 124.548C310.883 123.679 311.929 122.577 312.732 121.304C313.535 120.031 314.08 118.612 314.335 117.128C314.59 115.645 314.55 114.125 314.219 112.657Z" fill="#A0BA3B"/>
<path d="M252.25 115.239C252.24 115.193 252.249 115.146 252.274 115.106C252.299 115.066 252.338 115.038 252.384 115.027L288.468 106.159L282.601 80.2325C282.594 80.2089 282.593 80.1842 282.596 80.1599C282.599 80.1356 282.607 80.1122 282.62 80.0911C282.632 80.07 282.649 80.0517 282.669 80.0373C282.689 80.0229 282.711 80.0127 282.735 80.0073C282.759 80.0018 282.784 80.0013 282.808 80.0058C282.832 80.0102 282.855 80.0195 282.875 80.0331C282.896 80.0467 282.913 80.0643 282.927 80.0848C282.94 80.1053 282.949 80.1284 282.953 80.1525L288.86 106.253C288.871 106.299 288.863 106.348 288.838 106.389C288.813 106.429 288.773 106.459 288.727 106.47L252.64 115.337C252.64 115.337 252.882 116.392 252.95 116.749C252.955 116.795 252.942 116.842 252.913 116.878C252.884 116.915 252.842 116.938 252.795 116.944C252.749 116.949 252.703 116.936 252.666 116.907C252.629 116.878 252.606 116.835 252.6 116.789C252.517 116.399 252.25 115.239 252.25 115.239Z" fill="#0C0C0C"/>
<path d="M253.664 143.813L239.728 100.953C239.484 100.2 239.007 99.5435 238.366 99.0781C237.726 98.6126 236.954 98.362 236.163 98.3621H179.387C178.795 98.362 178.211 98.5022 177.684 98.771C177.157 99.0399 176.7 99.4298 176.353 99.909C176.005 100.388 175.775 100.943 175.683 101.528C175.591 102.113 175.638 102.711 175.821 103.274L189.757 146.134C190.002 146.887 190.479 147.544 191.12 148.009C191.76 148.475 192.531 148.725 193.323 148.725H250.099C250.691 148.725 251.274 148.585 251.801 148.316C252.329 148.047 252.785 147.657 253.133 147.178C253.48 146.699 253.71 146.145 253.802 145.56C253.895 144.975 253.847 144.376 253.664 143.813Z" fill="#292A2E"/>
<path opacity="0.2" d="M253.664 143.813L239.728 100.953C239.484 100.2 239.007 99.5435 238.366 99.0781C237.726 98.6126 236.954 98.362 236.163 98.3621H179.387C178.795 98.362 178.211 98.5022 177.684 98.771C177.157 99.0399 176.7 99.4298 176.353 99.909C176.005 100.388 175.775 100.943 175.683 101.528C175.591 102.113 175.638 102.711 175.821 103.274L189.757 146.134C190.002 146.887 190.479 147.544 191.12 148.009C191.76 148.475 192.531 148.725 193.323 148.725H250.099C250.691 148.725 251.274 148.585 251.801 148.316C252.329 148.047 252.785 147.657 253.133 147.178C253.48 146.699 253.71 146.145 253.802 145.56C253.895 144.975 253.847 144.376 253.664 143.813Z" fill="white"/>
<path d="M213.107 129.501C216.396 129.501 219.062 126.834 219.062 123.544C219.062 120.253 216.396 117.586 213.107 117.586C209.819 117.586 207.153 120.253 207.153 123.544C207.153 126.834 209.819 129.501 213.107 129.501Z" fill="white"/>
<path d="M157.051 4.52911H44.3647C39.1442 4.52911 34.9121 8.76336 34.9121 13.9866V150.856C34.9121 156.079 39.1442 160.313 44.3647 160.313H157.051C162.272 160.313 166.504 156.079 166.504 150.856V13.9866C166.504 8.76336 162.272 4.52911 157.051 4.52911Z" fill="#292A2E"/>
<path d="M161.217 0.361938H48.53C43.3095 0.361938 39.0774 4.59618 39.0774 9.81939V146.688C39.0774 151.912 43.3095 156.146 48.53 156.146H161.217C166.437 156.146 170.669 151.912 170.669 146.688V9.81939C170.669 4.59618 166.437 0.361938 161.217 0.361938Z" fill="white"/>
<path d="M161.217 156.508H48.5299C45.9278 156.505 43.4331 155.469 41.5932 153.628C39.7532 151.787 38.7184 149.291 38.7156 146.688V9.81938C38.7184 7.216 39.7534 4.72007 41.5933 2.8792C43.4332 1.03834 45.9279 0.00287391 48.5299 0L161.217 0C163.819 0.00296969 166.313 1.03847 168.153 2.87933C169.993 4.72019 171.028 7.21606 171.031 9.81938V146.688C171.028 149.291 169.993 151.787 168.153 153.628C166.313 155.469 163.819 156.505 161.217 156.508ZM48.5299 0.723849C46.1197 0.726531 43.809 1.68567 42.1047 3.39083C40.4004 5.09599 39.4417 7.40792 39.4391 9.81938V146.688C39.4417 149.099 40.4004 151.411 42.1047 153.117C43.809 154.822 46.1197 155.781 48.5299 155.784H161.217C163.627 155.781 165.937 154.822 167.642 153.117C169.346 151.411 170.304 149.099 170.307 146.688V9.81938C170.304 7.40795 169.346 5.09602 167.642 3.39085C165.937 1.68568 163.627 0.726532 161.217 0.723849H48.5299Z" fill="#292A2E"/>
<path d="M37.5594 175.73C50.5207 175.73 61.028 165.218 61.028 152.25C61.028 139.282 50.5207 128.769 37.5594 128.769C24.5981 128.769 14.0908 139.282 14.0908 152.25C14.0908 165.218 24.5981 175.73 37.5594 175.73Z" fill="#292A2E"/>
<path d="M32.6876 149.185C32.3787 149.185 32.0824 149.063 31.8639 148.844C31.6454 148.625 31.5226 148.329 31.5225 148.02V142.377C31.5225 139.257 34.2308 136.718 37.5595 136.718C40.8883 136.718 43.5966 139.257 43.5966 142.377V147.633C43.5993 147.787 43.5712 147.941 43.5139 148.085C43.4566 148.229 43.3712 148.36 43.2627 148.47C43.1543 148.581 43.0249 148.668 42.8823 148.728C42.7396 148.788 42.5864 148.819 42.4316 148.819C42.2769 148.819 42.1237 148.788 41.981 148.728C41.8383 148.668 41.709 148.581 41.6005 148.47C41.4921 148.36 41.4067 148.229 41.3494 148.085C41.292 147.941 41.2639 147.787 41.2666 147.633V142.377C41.2666 140.542 39.6026 139.049 37.5595 139.049C35.5164 139.049 33.8524 140.542 33.8524 142.377V148.021C33.8522 148.33 33.7294 148.626 33.511 148.844C33.2926 149.063 32.9964 149.185 32.6876 149.185Z" fill="white"/>
<path d="M44.9918 147.045H30.1272C29.2603 147.045 28.5576 147.748 28.5576 148.615V162.624C28.5576 163.491 29.2603 164.194 30.1272 164.194H44.9918C45.8587 164.194 46.5614 163.491 46.5614 162.624V148.615C46.5614 147.748 45.8587 147.045 44.9918 147.045Z" fill="white"/>
<path d="M36.0797 154.232C36.0796 154.51 36.1575 154.782 36.3046 155.018C36.4517 155.254 36.6621 155.443 36.9117 155.565V157.84C36.9117 158.011 36.9798 158.176 37.1009 158.297C37.2221 158.418 37.3864 158.486 37.5578 158.486C37.7291 158.486 37.8934 158.418 38.0146 158.297C38.1358 158.176 38.2038 158.011 38.2038 157.84V155.565C38.4416 155.45 38.6441 155.273 38.7903 155.052C38.9366 154.832 39.0212 154.577 39.0355 154.313C39.0497 154.049 38.9931 153.786 38.8714 153.551C38.7497 153.316 38.5674 153.119 38.3435 152.978C38.1195 152.838 37.8621 152.76 37.5979 152.753C37.3338 152.746 37.0725 152.809 36.8413 152.937C36.6101 153.065 36.4173 153.253 36.2831 153.481C36.1488 153.708 36.078 153.968 36.0779 154.232H36.0797Z" fill="#292A2E"/>
<path d="M151.376 78.0935H58.3704C56.1502 78.0935 54.3503 79.8943 54.3503 82.1156V95.1608C54.3503 97.3821 56.1502 99.1829 58.3704 99.1829H151.376C153.596 99.1829 155.396 97.3821 155.396 95.1608V82.1156C155.396 79.8943 153.596 78.0935 151.376 78.0935Z" fill="white"/>
<path d="M151.376 99.5445H58.3703C57.2086 99.5431 56.0948 99.0808 55.2734 98.2589C54.4519 97.4371 53.9899 96.3228 53.9885 95.1605V82.1156C53.9899 80.9533 54.4519 79.8389 55.2734 79.017C56.0948 78.1951 57.2085 77.7327 58.3703 77.7313H151.376C152.537 77.7326 153.651 78.195 154.473 79.0169C155.294 79.8388 155.756 80.9532 155.758 82.1156V95.1605C155.756 96.3228 155.294 97.4372 154.473 98.2591C153.651 99.0809 152.537 99.5432 151.376 99.5445ZM58.3703 78.4551C57.4003 78.4562 56.4704 78.8422 55.7845 79.5284C55.0987 80.2147 54.713 81.1451 54.712 82.1156V95.1605C54.7131 96.1309 55.0988 97.0612 55.7847 97.7474C56.4705 98.4336 57.4004 98.8196 58.3703 98.8206H151.376C152.346 98.8196 153.276 98.4336 153.961 97.7474C154.647 97.0613 155.033 96.1309 155.034 95.1605V82.1156C155.033 81.1451 154.647 80.2147 153.962 79.5284C153.276 78.8422 152.346 78.4562 151.376 78.4551H58.3703Z" fill="#292A2E"/>
<path d="M151.376 108.232H58.3704C56.1502 108.232 54.3503 110.033 54.3503 112.255V125.3C54.3503 127.521 56.1502 129.322 58.3704 129.322H151.376C153.596 129.322 155.396 127.521 155.396 125.3V112.255C155.396 110.033 153.596 108.232 151.376 108.232Z" fill="white"/>
<path d="M151.376 129.683H58.3703C57.2084 129.682 56.0945 129.22 55.273 128.397C54.4515 127.575 53.9896 126.461 53.9885 125.298V112.255C53.9899 111.092 54.4519 109.978 55.2734 109.156C56.0948 108.334 57.2086 107.872 58.3703 107.871H151.376C152.537 107.872 153.651 108.334 154.473 109.156C155.294 109.978 155.756 111.092 155.758 112.255V125.298C155.757 126.461 155.295 127.575 154.473 128.398C153.652 129.22 152.538 129.682 151.376 129.683ZM58.3703 108.594C57.4004 108.595 56.4705 108.981 55.7847 109.668C55.0988 110.354 54.7131 111.284 54.712 112.255V125.298C54.7131 126.269 55.0988 127.199 55.7847 127.885C56.4705 128.571 57.4004 128.957 58.3703 128.958H151.376C152.346 128.957 153.276 128.572 153.962 127.885C154.647 127.199 155.033 126.269 155.034 125.298V112.255C155.033 111.284 154.647 110.354 153.962 109.667C153.276 108.981 152.346 108.595 151.376 108.594H58.3703Z" fill="#292A2E"/>
<path d="M104.873 62.4067C116.799 62.4067 126.467 52.7339 126.467 40.8019C126.467 28.87 116.799 19.1972 104.873 19.1972C92.9471 19.1972 83.2793 28.87 83.2793 40.8019C83.2793 52.7339 92.9471 62.4067 104.873 62.4067Z" fill="white"/>
<path d="M104.873 62.7686C100.531 62.7686 96.2857 61.4803 92.6751 59.0665C89.0646 56.6528 86.2505 53.2221 84.5887 49.2082C82.927 45.1943 82.4922 40.7776 83.3394 36.5164C84.1865 32.2553 86.2776 28.3413 89.3481 25.2692C92.4186 22.1971 96.3307 20.1049 100.59 19.2574C104.849 18.4098 109.263 18.8448 113.275 20.5074C117.287 22.17 120.716 24.9855 123.128 28.5979C125.541 32.2103 126.828 36.4573 126.828 40.8019C126.822 46.6258 124.507 52.2094 120.391 56.3275C116.275 60.4456 110.694 62.7621 104.873 62.7686ZM104.873 19.5591C100.674 19.5591 96.5686 20.805 93.0771 23.1392C89.5855 25.4734 86.8641 28.791 85.2572 32.6727C83.6502 36.5543 83.2297 40.8255 84.0489 44.9462C84.8682 49.0669 86.8903 52.852 89.8597 55.8229C92.829 58.7937 96.6122 60.8169 100.731 61.6366C104.849 62.4562 109.118 62.0355 112.998 60.4277C116.878 58.8199 120.194 56.0972 122.527 52.6038C124.86 49.1104 126.105 45.0034 126.105 40.8019C126.099 35.1699 123.86 29.7704 119.879 25.788C115.899 21.8056 110.502 19.5654 104.873 19.5591Z" fill="#292A2E"/>
<path opacity="0.5" d="M125.987 40.8019C125.993 45.8025 124.22 50.642 120.984 54.4534C118.991 52.1289 116.52 50.2633 113.738 48.9844C110.957 47.7055 107.933 47.0436 104.872 47.0441C101.811 47.0447 98.7863 47.7076 96.0056 48.9875C93.2249 50.2674 90.7538 52.134 88.7619 54.4591C86.5648 51.8647 85.0261 48.778 84.2767 45.4613C83.5272 42.1445 83.589 38.6958 84.4568 35.408C85.3247 32.1203 86.973 29.0908 89.2616 26.5768C91.5502 24.0628 94.4115 22.1388 97.6025 20.9681C100.793 19.7974 104.22 19.4146 107.59 19.8524C110.961 20.2901 114.176 21.5354 116.962 23.4825C119.748 25.4295 122.024 28.0207 123.595 31.036C125.166 34.0513 125.987 37.4015 125.987 40.8019Z" fill="#A0BA3B"/>
<path d="M120.984 54.4534C119.003 56.7948 116.535 58.6762 113.753 59.9668C110.971 61.2574 107.941 61.9263 104.874 61.9268C101.808 61.9274 98.778 61.2596 95.9955 59.97C93.2129 58.6804 90.7446 56.7998 88.762 54.4591C90.7539 52.134 93.225 50.2674 96.0057 48.9875C98.7864 47.7076 101.811 47.0447 104.872 47.0441C107.933 47.0436 110.957 47.7055 113.739 48.9844C116.52 50.2633 118.991 52.1289 120.984 54.4534Z" fill="white"/>
<path d="M104.873 43.1027C109.587 43.1027 113.408 39.2797 113.408 34.5638C113.408 29.8479 109.587 26.0249 104.873 26.0249C100.16 26.0249 96.3389 29.8479 96.3389 34.5638C96.3389 39.2797 100.16 43.1027 104.873 43.1027Z" fill="white"/>
<g opacity="0.4">
<path d="M62.179 121.345C63.5966 121.345 64.7459 120.196 64.7459 118.777C64.7459 117.359 63.5966 116.209 62.179 116.209C60.7613 116.209 59.6121 117.359 59.6121 118.777C59.6121 120.196 60.7613 121.345 62.179 121.345Z" fill="#292A2E"/>
<path d="M70.2085 121.345C71.6262 121.345 72.7754 120.196 72.7754 118.777C72.7754 117.359 71.6262 116.209 70.2085 116.209C68.7908 116.209 67.6416 117.359 67.6416 118.777C67.6416 120.196 68.7908 121.345 70.2085 121.345Z" fill="#292A2E"/>
<path d="M78.238 121.345C79.6557 121.345 80.805 120.196 80.805 118.777C80.805 117.359 79.6557 116.209 78.238 116.209C76.8204 116.209 75.6711 117.359 75.6711 118.777C75.6711 120.196 76.8204 121.345 78.238 121.345Z" fill="#292A2E"/>
<path d="M86.2676 121.345C87.6852 121.345 88.8345 120.196 88.8345 118.777C88.8345 117.359 87.6852 116.209 86.2676 116.209C84.8499 116.209 83.7007 117.359 83.7007 118.777C83.7007 120.196 84.8499 121.345 86.2676 121.345Z" fill="#292A2E"/>
<path d="M94.2966 121.345C95.7143 121.345 96.8635 120.196 96.8635 118.777C96.8635 117.359 95.7143 116.209 94.2966 116.209C92.879 116.209 91.7297 117.359 91.7297 118.777C91.7297 120.196 92.879 121.345 94.2966 121.345Z" fill="#292A2E"/>
<path d="M102.326 121.345C103.744 121.345 104.893 120.196 104.893 118.777C104.893 117.359 103.744 116.209 102.326 116.209C100.909 116.209 99.7593 117.359 99.7593 118.777C99.7593 120.196 100.909 121.345 102.326 121.345Z" fill="#292A2E"/>
<path d="M110.356 121.345C111.773 121.345 112.923 120.196 112.923 118.777C112.923 117.359 111.773 116.209 110.356 116.209C108.938 116.209 107.789 117.359 107.789 118.777C107.789 120.196 108.938 121.345 110.356 121.345Z" fill="#292A2E"/>
</g>
<g opacity="0.3">
<path d="M64.725 88.4833V89.3519H61.4285V88.4833H64.725Z" fill="black"/>
<path d="M68.8217 88.4833V89.3519H65.5251V88.4833H68.8217Z" fill="black"/>
<path d="M72.9181 88.4833V89.3519H69.6216V88.4833H72.9181Z" fill="black"/>
<path d="M77.0143 88.4833V89.3519H73.7178V88.4833H77.0143Z" fill="black"/>
<path d="M81.1113 88.4833V89.3519H77.8145V88.4833H81.1113Z" fill="black"/>
<path d="M88.5043 93.3841C87.7711 93.761 86.9541 93.9452 86.1302 93.9194C83.9413 93.9194 82.0859 92.3168 82.0859 89.753C82.0859 87.0023 83.9948 84.6252 86.9575 84.6252C89.2799 84.6252 90.8415 86.2539 90.8415 88.4844C90.8415 90.4877 89.7201 91.6625 88.4656 91.6625C87.932 91.6625 87.4382 91.3005 87.478 90.4877H87.4245C87.2519 90.8397 86.9842 91.1364 86.6518 91.344C86.3193 91.5517 85.9354 91.662 85.5434 91.6625C84.7693 91.6625 84.1019 91.0349 84.1019 89.9802C84.1004 89.5642 84.1812 89.152 84.3397 88.7673C84.4981 88.3826 84.7311 88.0331 85.0251 87.7389C85.3192 87.4447 85.6685 87.2117 86.053 87.0531C86.4375 86.8946 86.8495 86.8137 87.2653 86.8152C87.7557 86.8081 88.2422 86.9036 88.6935 87.0957L88.2395 89.5126C88.0394 90.526 88.1997 90.9965 88.6399 91.0085C89.3207 91.0215 90.0815 90.1134 90.0815 88.5648C90.0815 86.6285 88.9203 85.2398 86.8515 85.2398C84.676 85.2398 82.8474 86.9622 82.8474 89.673C82.8474 91.9032 84.3023 93.2785 86.2778 93.2785C86.9781 93.2947 87.6712 93.134 88.293 92.8112L88.5043 93.3841ZM87.7703 87.6154C87.5536 87.5517 87.3287 87.5203 87.1029 87.5221C85.9283 87.5221 84.9809 88.6303 84.9809 89.9256C84.9809 90.513 85.2747 90.939 85.8618 90.939C86.6359 90.939 87.3431 89.9509 87.4896 89.1228L87.7703 87.6154Z" fill="black"/>
<path d="M95.0424 88.4833V89.3519H91.7458V88.4833H95.0424Z" fill="black"/>
<path d="M99.1392 88.4833V89.3519H95.8423V88.4833H99.1392Z" fill="black"/>
<path d="M103.235 88.4833V89.3519H99.939V88.4833H103.235Z" fill="black"/>
</g>
</g>
<defs>
<clipPath id="clip0_4280_4613">
<rect width="322" height="312" fill="white"/>
</clipPath>
</defs>
</svg>
