<svg width="1085" height="604" viewBox="0 0 1085 604" fill="none" xmlns="http://www.w3.org/2000/svg">
<g clip-path="url(#clip0_4645_1544)">
<rect width="8" height="141" transform="translate(887 338)" fill="#454545"/>
<rect width="115" height="26" transform="translate(834 385)" fill="#065366"/>
<path d="M880.792 404V401.44H875.512V399.36L880.632 392.08H883.272V399.36H885.112V401.44H883.272V404H880.792ZM877.32 400.256L876.856 399.36H880.792V394L881.416 394.192L877.32 400.256ZM891.194 404.192C890.244 404.192 889.407 403.936 888.682 403.424C887.967 402.912 887.407 402.192 887.002 401.264C886.596 400.336 886.394 399.259 886.394 398.032C886.394 396.795 886.591 395.717 886.986 394.8C887.391 393.883 887.951 393.168 888.666 392.656C889.391 392.144 890.228 391.888 891.178 391.888C892.148 391.888 892.991 392.144 893.706 392.656C894.431 393.168 894.991 393.888 895.386 394.816C895.791 395.733 895.994 396.805 895.994 398.032C895.994 399.259 895.791 400.336 895.386 401.264C894.991 402.181 894.431 402.901 893.706 403.424C892.991 403.936 892.154 404.192 891.194 404.192ZM891.21 401.952C891.7 401.952 892.116 401.797 892.458 401.488C892.799 401.179 893.06 400.731 893.242 400.144C893.423 399.557 893.514 398.853 893.514 398.032C893.514 397.211 893.423 396.512 893.242 395.936C893.06 395.349 892.794 394.901 892.442 394.592C892.1 394.283 891.679 394.128 891.178 394.128C890.687 394.128 890.271 394.283 889.93 394.592C889.588 394.901 889.327 395.349 889.146 395.936C888.964 396.512 888.874 397.211 888.874 398.032C888.874 398.843 888.964 399.541 889.146 400.128C889.327 400.715 889.588 401.168 889.93 401.488C890.282 401.797 890.708 401.952 891.21 401.952ZM902.589 404V401.44H897.309V399.36L902.429 392.08H905.069V399.36H906.909V401.44H905.069V404H902.589ZM899.117 400.256L898.653 399.36H902.589V394L903.213 394.192L899.117 400.256Z" fill="white"/>
<rect width="115" height="26" transform="translate(834 354)" fill="#A0BA3B"/>
<path d="M879.792 373V370.44H874.512V368.36L879.632 361.08H882.272V368.36H884.112V370.44H882.272V373H879.792ZM876.32 369.256L875.856 368.36H879.792V363L880.416 363.192L876.32 369.256ZM890.194 373.192C889.244 373.192 888.407 372.936 887.682 372.424C886.967 371.912 886.407 371.192 886.002 370.264C885.596 369.336 885.394 368.259 885.394 367.032C885.394 365.795 885.591 364.717 885.986 363.8C886.391 362.883 886.951 362.168 887.666 361.656C888.391 361.144 889.228 360.888 890.178 360.888C891.148 360.888 891.991 361.144 892.706 361.656C893.431 362.168 893.991 362.888 894.386 363.816C894.791 364.733 894.994 365.805 894.994 367.032C894.994 368.259 894.791 369.336 894.386 370.264C893.991 371.181 893.431 371.901 892.706 372.424C891.991 372.936 891.154 373.192 890.194 373.192ZM890.21 370.952C890.7 370.952 891.116 370.797 891.458 370.488C891.799 370.179 892.06 369.731 892.242 369.144C892.423 368.557 892.514 367.853 892.514 367.032C892.514 366.211 892.423 365.512 892.242 364.936C892.06 364.349 891.794 363.901 891.442 363.592C891.1 363.283 890.679 363.128 890.178 363.128C889.687 363.128 889.271 363.283 888.93 363.592C888.588 363.901 888.327 364.349 888.146 364.936C887.964 365.512 887.874 366.211 887.874 367.032C887.874 367.843 887.964 368.541 888.146 369.128C888.327 369.715 888.588 370.168 888.93 370.488C889.282 370.797 889.708 370.952 890.21 370.952ZM901.589 373V370.44H896.309V368.36L901.429 361.08H904.069V368.36H905.909V370.44H904.069V373H901.589ZM898.117 369.256L897.653 368.36H901.589V363L902.213 363.192L898.117 369.256Z" fill="white"/>
<path d="M972 367L949.5 379.99L949.5 354.01L972 367Z" fill="#A0BA3B"/>
<path d="M972 398L949.5 410.99L949.5 385.01L972 398Z" fill="#065366"/>
<path d="M566.413 436C634.941 436 696.067 453.559 735.934 480.998C758.948 474.505 783.856 469.194 810.018 465.427C938.206 446.966 1047.96 472.548 1055.17 522.565C1062.37 572.583 964.292 628.097 836.104 646.558C788.034 653.48 742.556 654.21 704.105 649.78C666.605 666.791 618.661 677 566.413 677C485.443 677 414.808 652.485 377.364 616.123C344.544 631.241 302.43 643.375 255.779 649.854C143.806 665.406 48.1019 642.501 42.0176 598.694C35.9339 554.888 121.773 506.769 233.746 491.217C289.541 483.467 341.297 485.267 379.938 494.443C417.988 459.425 487.262 436 566.413 436Z" fill="url(#paint0_linear_4645_1544)" fill-opacity="0.7"/>
<path d="M110.912 552.5C224.912 507.5 250.412 499.5 322.912 517C395.412 534.5 454.912 507 481.412 489C507.912 471 611.412 414.5 686.912 489C762.412 563.5 826.412 505.5 841.912 493.5M841.912 493.5C854.312 483.9 847.079 488.5 841.912 493.5Z" stroke="#A52525" stroke-width="8" stroke-dasharray="8 8"/>
<path d="M450 195H243C244.171 181.743 248.472 169.455 255.045 163.456C263.174 156.034 273.054 158.225 282.226 160.14C291.398 162.055 301.521 163.13 309.048 154.096C312.837 149.551 315.515 142.926 318.583 137.031C327.349 120.168 341.17 108.632 353.995 114.586C360.448 117.583 365.956 124.587 372.074 129.162C378.503 133.947 385.53 136 392.54 135.143C399.767 134.241 406.959 130.259 414.129 132.043C423.217 134.324 430.661 145.569 436.049 158.117C441.155 170.006 444.801 181.534 450 195Z" fill="url(#paint1_linear_4645_1544)"/>
<path d="M19 195H215C213.891 181.743 209.818 169.455 203.595 163.456C195.898 156.034 186.543 158.225 177.859 160.14C169.174 162.055 159.589 163.13 152.461 154.096C148.874 149.551 146.338 142.926 143.434 137.031C135.133 120.168 122.047 108.632 109.904 114.586C103.793 117.583 98.5782 124.587 92.7853 129.162C86.6975 133.947 80.0436 136 73.4066 135.143C66.5634 134.241 59.7538 130.259 52.9648 132.043C44.3597 134.324 37.3115 145.569 32.2095 158.117C27.375 170.006 23.9223 181.534 19 195Z" fill="url(#paint2_linear_4645_1544)"/>
<path d="M19 220H377C374.974 206.743 367.536 194.455 356.168 188.456C342.109 181.034 325.023 183.225 309.16 185.14C293.297 187.055 275.79 188.13 262.771 179.096C256.219 174.551 251.587 167.926 246.282 162.031C231.121 145.168 207.218 133.632 185.038 139.586C173.877 142.583 164.352 149.587 153.771 154.162C142.652 158.947 130.498 161 118.375 160.143C105.876 159.241 93.438 155.259 81.0378 157.043C65.3202 159.324 52.4465 170.569 43.1275 183.117C34.2972 195.006 27.9908 206.534 19 220Z" fill="url(#paint3_linear_4645_1544)"/>
<path d="M661 178H891C889.699 164.743 884.92 152.455 877.617 146.456C868.584 139.034 857.607 141.225 847.416 143.14C837.224 145.055 825.977 146.13 817.613 137.096C813.403 132.551 810.427 125.926 807.019 120.031C797.279 103.168 781.922 91.6323 767.673 97.5861C760.502 100.583 754.383 107.587 747.585 112.162C740.441 116.947 732.633 119 724.844 118.143C716.814 117.241 708.823 113.259 700.857 115.043C690.759 117.324 682.488 128.569 676.501 141.117C670.828 153.006 666.776 164.534 661 178Z" fill="url(#paint4_linear_4645_1544)"/>
<path d="M1066.08 196.263H716C717.981 182.963 725.255 170.636 736.371 164.618C750.119 157.172 766.828 159.37 782.34 161.291C797.852 163.212 814.972 164.291 827.703 155.228C834.11 150.668 838.64 144.022 843.828 138.108C858.653 121.191 882.028 109.618 903.717 115.591C914.632 118.597 923.946 125.624 934.293 130.214C945.167 135.014 957.051 137.074 968.906 136.214C981.129 135.309 993.292 131.314 1005.42 133.104C1020.79 135.392 1033.38 146.673 1042.49 159.262C1051.13 171.189 1057.29 182.754 1066.08 196.263Z" fill="url(#paint5_linear_4645_1544)"/>
<path d="M1066.08 196.263H716C717.981 182.963 725.255 170.636 736.371 164.618C750.119 157.172 766.828 159.37 782.34 161.291C797.852 163.212 814.972 164.291 827.703 155.228C834.11 150.668 838.64 144.022 843.828 138.108C858.653 121.191 882.028 109.618 903.717 115.591C914.632 118.597 923.946 125.624 934.293 130.214C945.167 135.014 957.051 137.074 968.906 136.214C981.129 135.309 993.292 131.314 1005.42 133.104C1020.79 135.392 1033.38 146.673 1042.49 159.262C1051.13 171.189 1057.29 182.754 1066.08 196.263Z" fill="url(#paint6_linear_4645_1544)"/>
<path d="M459 208H775C773.212 194.743 766.646 182.455 756.612 176.456C744.203 169.034 729.121 171.225 715.119 173.14C701.117 175.055 685.664 176.13 674.172 167.096C668.389 162.551 664.3 155.926 659.617 150.031C646.236 133.168 625.136 121.632 605.559 127.586C595.707 130.583 587.3 137.587 577.96 142.162C568.145 146.947 557.417 149 546.717 148.143C535.684 147.241 524.705 143.259 513.76 145.043C499.886 147.324 488.523 158.569 480.297 171.117C472.503 183.006 466.936 194.534 459 208Z" fill="url(#paint7_linear_4645_1544)"/>
<line x1="949.5" y1="201" x2="949.5" y2="322" stroke="#454545" stroke-dasharray="20 20"/>
<line x1="46.5" y1="263.002" x2="45.5" y2="515.002" stroke="#454545" stroke-dasharray="20 20"/>
<line x1="88.5" y1="234" x2="88.5" y2="475" stroke="#454545" stroke-dasharray="20 20"/>
<line x1="138.5" y1="248" x2="138.5" y2="475" stroke="#454545" stroke-dasharray="20 20"/>
<line x1="185.5" y1="235" x2="185.5" y2="443" stroke="#454545" stroke-dasharray="20 20"/>
<line x1="243.5" y1="224" x2="243.5" y2="432" stroke="#454545" stroke-dasharray="20 20"/>
<line x1="215.5" y1="228" x2="215.5" y2="456" stroke="#454545" stroke-dasharray="20 20"/>
<line x1="282.5" y1="248" x2="282.5" y2="456" stroke="#454545" stroke-dasharray="20 20"/>
<line x1="319.5" y1="252" x2="319.5" y2="460" stroke="#454545" stroke-dasharray="20 20"/>
<line x1="357.5" y1="234" x2="357.5" y2="442" stroke="#454545" stroke-dasharray="20 20"/>
<line x1="403.5" y1="212" x2="403.5" y2="420" stroke="#454545" stroke-dasharray="20 20"/>
<line x1="433.5" y1="224" x2="433.5" y2="432" stroke="#454545" stroke-dasharray="20 20"/>
<line x1="463.5" y1="236" x2="463.5" y2="444" stroke="#454545" stroke-dasharray="20 20"/>
<line x1="492.5" y1="220" x2="492.5" y2="428" stroke="#454545" stroke-dasharray="20 20"/>
<line x1="526.5" y1="234" x2="526.5" y2="442" stroke="#454545" stroke-dasharray="20 20"/>
<line x1="554.5" y1="212" x2="554.5" y2="420" stroke="#454545" stroke-dasharray="20 20"/>
<line x1="587.5" y1="224" x2="587.5" y2="432" stroke="#454545" stroke-dasharray="20 20"/>
<line x1="623.5" y1="220" x2="623.5" y2="428" stroke="#454545" stroke-dasharray="20 20"/>
<line x1="671.5" y1="224" x2="671.5" y2="432" stroke="#454545" stroke-dasharray="20 20"/>
<line x1="719.5" y1="228" x2="719.5" y2="436" stroke="#454545" stroke-dasharray="20 20"/>
<line x1="767.5" y1="232" x2="767.5" y2="440" stroke="#454545" stroke-dasharray="20 20"/>
<line x1="815.5" y1="236" x2="815.5" y2="444" stroke="#454545" stroke-dasharray="20 20"/>
<line x1="860.5" y1="208" x2="860.5" y2="312" stroke="#454545" stroke-dasharray="20 20"/>
<line x1="907.5" y1="196" x2="907.5" y2="331" stroke="#454545" stroke-dasharray="20 20"/>
<line x1="980.5" y1="220" x2="980.5" y2="428" stroke="#454545" stroke-dasharray="20 20"/>
<line x1="1009.5" y1="208" x2="1009.5" y2="416" stroke="#454545" stroke-dasharray="20 20"/>
<line x1="1039.5" y1="198" x2="1039.5" y2="406" stroke="#454545" stroke-dasharray="20 20"/>
<ellipse cx="582" cy="404" rx="12" ry="23" fill="#E5A80E"/>
<ellipse cx="581.5" cy="377" rx="13.5" ry="14" fill="#065366"/>
<ellipse cx="591.5" cy="434.5" rx="6.5" ry="16.5" fill="#A52525"/>
<ellipse cx="600.657" cy="406.461" rx="6.30302" ry="16.5079" transform="rotate(-29.7263 600.657 406.461)" fill="#A52525"/>
<ellipse cx="563.256" cy="406.285" rx="6.30302" ry="16.5079" transform="rotate(32.8914 563.256 406.285)" fill="#A52525"/>
<ellipse cx="572.5" cy="434.5" rx="6.5" ry="16.5" fill="#A52525"/>
<path d="M580.6 379.32V378.952C580.6 378.483 580.664 378.072 580.792 377.72C580.931 377.357 581.107 377.037 581.32 376.76C581.533 376.483 581.752 376.232 581.976 376.008C582.285 375.699 582.563 375.421 582.808 375.176C583.053 374.92 583.176 374.627 583.176 374.296C583.176 374.072 583.123 373.875 583.016 373.704C582.909 373.523 582.749 373.384 582.536 373.288C582.333 373.181 582.077 373.128 581.768 373.128C581.373 373.128 581.027 373.251 580.728 373.496C580.44 373.731 580.264 374.051 580.2 374.456L577.976 373.896C578.072 373.299 578.291 372.776 578.632 372.328C578.984 371.88 579.432 371.528 579.976 371.272C580.531 371.016 581.149 370.888 581.832 370.888C582.664 370.888 583.363 371.053 583.928 371.384C584.504 371.704 584.936 372.12 585.224 372.632C585.512 373.133 585.656 373.667 585.656 374.232C585.656 374.637 585.576 375 585.416 375.32C585.267 375.629 585.075 375.917 584.84 376.184C584.605 376.44 584.36 376.691 584.104 376.936C583.773 377.245 583.48 377.571 583.224 377.912C582.968 378.253 582.84 378.653 582.84 379.112V379.32H580.6ZM580.536 383V380.6H582.936V383H580.536Z" fill="white"/>
<mask id="path-48-outside-1_4645_1544" maskUnits="userSpaceOnUse" x="608" y="338" width="19" height="27" fill="black">
<rect fill="white" x="608" y="338" width="19" height="27"/>
<path d="M615.2 356.64V355.904C615.2 354.965 615.328 354.144 615.584 353.44C615.861 352.715 616.213 352.075 616.64 351.52C617.067 350.965 617.504 350.464 617.952 350.016C618.571 349.397 619.125 348.843 619.616 348.352C620.107 347.84 620.352 347.253 620.352 346.592C620.352 346.144 620.245 345.749 620.032 345.408C619.819 345.045 619.499 344.768 619.072 344.576C618.667 344.363 618.155 344.256 617.536 344.256C616.747 344.256 616.053 344.501 615.456 344.992C614.88 345.461 614.528 346.101 614.4 346.912L609.952 345.792C610.144 344.597 610.581 343.552 611.264 342.656C611.968 341.76 612.864 341.056 613.952 340.544C615.061 340.032 616.299 339.776 617.664 339.776C619.328 339.776 620.725 340.107 621.856 340.768C623.008 341.408 623.872 342.24 624.448 343.264C625.024 344.267 625.312 345.333 625.312 346.464C625.312 347.275 625.152 348 624.832 348.64C624.533 349.259 624.149 349.835 623.68 350.368C623.211 350.88 622.72 351.381 622.208 351.872C621.547 352.491 620.96 353.141 620.448 353.824C619.936 354.507 619.68 355.307 619.68 356.224V356.64H615.2ZM615.072 364V359.2H619.872V364H615.072Z"/>
</mask>
<path d="M615.2 356.64V355.904C615.2 354.965 615.328 354.144 615.584 353.44C615.861 352.715 616.213 352.075 616.64 351.52C617.067 350.965 617.504 350.464 617.952 350.016C618.571 349.397 619.125 348.843 619.616 348.352C620.107 347.84 620.352 347.253 620.352 346.592C620.352 346.144 620.245 345.749 620.032 345.408C619.819 345.045 619.499 344.768 619.072 344.576C618.667 344.363 618.155 344.256 617.536 344.256C616.747 344.256 616.053 344.501 615.456 344.992C614.88 345.461 614.528 346.101 614.4 346.912L609.952 345.792C610.144 344.597 610.581 343.552 611.264 342.656C611.968 341.76 612.864 341.056 613.952 340.544C615.061 340.032 616.299 339.776 617.664 339.776C619.328 339.776 620.725 340.107 621.856 340.768C623.008 341.408 623.872 342.24 624.448 343.264C625.024 344.267 625.312 345.333 625.312 346.464C625.312 347.275 625.152 348 624.832 348.64C624.533 349.259 624.149 349.835 623.68 350.368C623.211 350.88 622.72 351.381 622.208 351.872C621.547 352.491 620.96 353.141 620.448 353.824C619.936 354.507 619.68 355.307 619.68 356.224V356.64H615.2ZM615.072 364V359.2H619.872V364H615.072Z" fill="white"/>
<path d="M615.2 356.64H614.2V357.64H615.2V356.64ZM615.584 353.44L614.65 353.083L614.647 353.091L614.644 353.098L615.584 353.44ZM617.952 350.016L618.659 350.723H618.659L617.952 350.016ZM619.616 348.352L620.323 349.059L620.331 349.052L620.338 349.044L619.616 348.352ZM620.032 345.408L619.17 345.915L619.177 345.927L619.184 345.938L620.032 345.408ZM619.072 344.576L618.606 345.461L618.634 345.475L618.662 345.488L619.072 344.576ZM615.456 344.992L616.088 345.767L616.091 345.765L615.456 344.992ZM614.4 346.912L614.156 347.882L615.217 348.149L615.388 347.068L614.4 346.912ZM609.952 345.792L608.965 345.633L608.819 346.538L609.708 346.762L609.952 345.792ZM611.264 342.656L610.478 342.038L610.473 342.044L610.469 342.05L611.264 342.656ZM613.952 340.544L613.533 339.636L613.526 339.639L613.952 340.544ZM621.856 340.768L621.351 341.631L621.361 341.637L621.37 341.642L621.856 340.768ZM624.448 343.264L623.576 343.754L623.581 343.762L624.448 343.264ZM624.832 348.64L623.937 348.193L623.931 348.205L624.832 348.64ZM623.68 350.368L624.417 351.044L624.424 351.036L624.431 351.029L623.68 350.368ZM622.208 351.872L622.891 352.602L622.9 352.594L622.208 351.872ZM620.448 353.824L621.248 354.424L620.448 353.824ZM619.68 356.64V357.64H620.68V356.64H619.68ZM615.072 364H614.072V365H615.072V364ZM615.072 359.2V358.2H614.072V359.2H615.072ZM619.872 359.2H620.872V358.2H619.872V359.2ZM619.872 364V365H620.872V364H619.872ZM615.2 356.64H616.2V355.904H615.2H614.2V356.64H615.2ZM615.2 355.904H616.2C616.2 355.054 616.316 354.352 616.524 353.782L615.584 353.44L614.644 353.098C614.34 353.936 614.2 354.877 614.2 355.904H615.2ZM615.584 353.44L616.518 353.797C616.764 353.153 617.071 352.6 617.433 352.13L616.64 351.52L615.847 350.91C615.355 351.55 614.958 352.277 614.65 353.083L615.584 353.44ZM616.64 351.52L617.433 352.13C617.836 351.606 618.245 351.138 618.659 350.723L617.952 350.016L617.245 349.309C616.763 349.79 616.298 350.325 615.847 350.91L616.64 351.52ZM617.952 350.016L618.659 350.723C619.278 350.104 619.832 349.55 620.323 349.059L619.616 348.352L618.909 347.645C618.418 348.136 617.864 348.69 617.245 349.309L617.952 350.016ZM619.616 348.352L620.338 349.044C620.993 348.361 621.352 347.531 621.352 346.592H620.352H619.352C619.352 346.976 619.22 347.319 618.894 347.66L619.616 348.352ZM620.352 346.592H621.352C621.352 345.978 621.204 345.396 620.88 344.878L620.032 345.408L619.184 345.938C619.287 346.103 619.352 346.31 619.352 346.592H620.352ZM620.032 345.408L620.894 344.901C620.564 344.34 620.076 343.931 619.482 343.664L619.072 344.576L618.662 345.488C618.922 345.605 619.073 345.751 619.17 345.915L620.032 345.408ZM619.072 344.576L619.538 343.691C618.947 343.38 618.263 343.256 617.536 343.256V344.256V345.256C618.047 345.256 618.386 345.345 618.606 345.461L619.072 344.576ZM617.536 344.256V343.256C616.52 343.256 615.602 343.578 614.821 344.219L615.456 344.992L616.091 345.765C616.505 345.424 616.973 345.256 617.536 345.256V344.256ZM615.456 344.992L614.824 344.217C614.037 344.858 613.574 345.73 613.412 346.756L614.4 346.912L615.388 347.068C615.482 346.473 615.723 346.064 616.088 345.767L615.456 344.992ZM614.4 346.912L614.644 345.942L610.196 344.822L609.952 345.792L609.708 346.762L614.156 347.882L614.4 346.912ZM609.952 345.792L610.939 345.951C611.107 344.906 611.484 344.017 612.059 343.262L611.264 342.656L610.469 342.05C609.679 343.087 609.181 344.288 608.965 345.633L609.952 345.792ZM611.264 342.656L612.05 343.274C612.653 342.507 613.423 341.898 614.378 341.449L613.952 340.544L613.526 339.639C612.305 340.214 611.283 341.013 610.478 342.038L611.264 342.656ZM613.952 340.544L614.371 341.452C615.334 341.007 616.426 340.776 617.664 340.776V339.776V338.776C616.171 338.776 614.788 339.057 613.533 339.636L613.952 340.544ZM617.664 339.776V340.776C619.198 340.776 620.41 341.081 621.351 341.631L621.856 340.768L622.361 339.905C621.041 339.133 619.458 338.776 617.664 338.776V339.776ZM621.856 340.768L621.37 341.642C622.381 342.204 623.102 342.91 623.576 343.754L624.448 343.264L625.32 342.774C624.642 341.57 623.635 340.612 622.342 339.894L621.856 340.768ZM624.448 343.264L623.581 343.762C624.072 344.617 624.312 345.512 624.312 346.464H625.312H626.312C626.312 345.154 625.976 343.917 625.315 342.766L624.448 343.264ZM625.312 346.464H624.312C624.312 347.14 624.179 347.709 623.938 348.193L624.832 348.64L625.726 349.087C626.125 348.291 626.312 347.409 626.312 346.464H625.312ZM624.832 348.64L623.931 348.205C623.674 348.739 623.341 349.24 622.929 349.707L623.68 350.368L624.431 351.029C624.958 350.429 625.393 349.778 625.733 349.075L624.832 348.64ZM623.68 350.368L622.943 349.692C622.488 350.188 622.013 350.674 621.516 351.15L622.208 351.872L622.9 352.594C623.427 352.089 623.933 351.572 624.417 351.044L623.68 350.368ZM622.208 351.872L621.525 351.142C620.823 351.798 620.197 352.492 619.648 353.224L620.448 353.824L621.248 354.424C621.723 353.791 622.27 353.183 622.891 352.602L622.208 351.872ZM620.448 353.824L619.648 353.224C618.996 354.093 618.68 355.108 618.68 356.224H619.68H620.68C620.68 355.506 620.876 354.92 621.248 354.424L620.448 353.824ZM619.68 356.224H618.68V356.64H619.68H620.68V356.224H619.68ZM619.68 356.64V355.64H615.2V356.64V357.64H619.68V356.64ZM615.072 364H616.072V359.2H615.072H614.072V364H615.072ZM615.072 359.2V360.2H619.872V359.2V358.2H615.072V359.2ZM619.872 359.2H618.872V364H619.872H620.872V359.2H619.872ZM619.872 364V363H615.072V364V365H619.872V364Z" fill="#454545" fill-opacity="0.35" mask="url(#path-48-outside-1_4645_1544)"/>
<mask id="path-50-outside-2_4645_1544" maskUnits="userSpaceOnUse" x="529" y="371" width="14" height="21" fill="black">
<rect fill="white" x="529" y="371" width="14" height="21"/>
<path d="M534.4 385.48V384.928C534.4 384.224 534.496 383.608 534.688 383.08C534.896 382.536 535.16 382.056 535.48 381.64C535.8 381.224 536.128 380.848 536.464 380.512C536.928 380.048 537.344 379.632 537.712 379.264C538.08 378.88 538.264 378.44 538.264 377.944C538.264 377.608 538.184 377.312 538.024 377.056C537.864 376.784 537.624 376.576 537.304 376.432C537 376.272 536.616 376.192 536.152 376.192C535.56 376.192 535.04 376.376 534.592 376.744C534.16 377.096 533.896 377.576 533.8 378.184L530.464 377.344C530.608 376.448 530.936 375.664 531.448 374.992C531.976 374.32 532.648 373.792 533.464 373.408C534.296 373.024 535.224 372.832 536.248 372.832C537.496 372.832 538.544 373.08 539.392 373.576C540.256 374.056 540.904 374.68 541.336 375.448C541.768 376.2 541.984 377 541.984 377.848C541.984 378.456 541.864 379 541.624 379.48C541.4 379.944 541.112 380.376 540.76 380.776C540.408 381.16 540.04 381.536 539.656 381.904C539.16 382.368 538.72 382.856 538.336 383.368C537.952 383.88 537.76 384.48 537.76 385.168V385.48H534.4ZM534.304 391V387.4H537.904V391H534.304Z"/>
</mask>
<path d="M534.4 385.48V384.928C534.4 384.224 534.496 383.608 534.688 383.08C534.896 382.536 535.16 382.056 535.48 381.64C535.8 381.224 536.128 380.848 536.464 380.512C536.928 380.048 537.344 379.632 537.712 379.264C538.08 378.88 538.264 378.44 538.264 377.944C538.264 377.608 538.184 377.312 538.024 377.056C537.864 376.784 537.624 376.576 537.304 376.432C537 376.272 536.616 376.192 536.152 376.192C535.56 376.192 535.04 376.376 534.592 376.744C534.16 377.096 533.896 377.576 533.8 378.184L530.464 377.344C530.608 376.448 530.936 375.664 531.448 374.992C531.976 374.32 532.648 373.792 533.464 373.408C534.296 373.024 535.224 372.832 536.248 372.832C537.496 372.832 538.544 373.08 539.392 373.576C540.256 374.056 540.904 374.68 541.336 375.448C541.768 376.2 541.984 377 541.984 377.848C541.984 378.456 541.864 379 541.624 379.48C541.4 379.944 541.112 380.376 540.76 380.776C540.408 381.16 540.04 381.536 539.656 381.904C539.16 382.368 538.72 382.856 538.336 383.368C537.952 383.88 537.76 384.48 537.76 385.168V385.48H534.4ZM534.304 391V387.4H537.904V391H534.304Z" fill="white"/>
<path d="M534.4 385.48H533.4V386.48H534.4V385.48ZM534.688 383.08L533.754 382.723L533.751 382.731L533.748 382.738L534.688 383.08ZM536.464 380.512L537.171 381.219L536.464 380.512ZM537.712 379.264L538.419 379.971L538.427 379.964L538.434 379.956L537.712 379.264ZM538.024 377.056L537.162 377.563L537.169 377.575L537.176 377.586L538.024 377.056ZM537.304 376.432L536.838 377.317L536.866 377.331L536.894 377.344L537.304 376.432ZM534.592 376.744L535.224 377.519L535.227 377.517L534.592 376.744ZM533.8 378.184L533.556 379.154L534.617 379.421L534.788 378.34L533.8 378.184ZM530.464 377.344L529.477 377.185L529.331 378.09L530.22 378.314L530.464 377.344ZM531.448 374.992L530.662 374.374L530.657 374.38L530.653 374.386L531.448 374.992ZM533.464 373.408L533.045 372.5L533.038 372.503L533.464 373.408ZM539.392 373.576L538.887 374.439L538.897 374.445L538.906 374.45L539.392 373.576ZM541.336 375.448L540.464 375.938L540.469 375.946L541.336 375.448ZM541.624 379.48L540.729 379.033L540.723 379.045L541.624 379.48ZM540.76 380.776L541.497 381.452L541.504 381.444L541.511 381.437L540.76 380.776ZM539.656 381.904L540.339 382.634L540.348 382.626L539.656 381.904ZM538.336 383.368L539.136 383.968V383.968L538.336 383.368ZM537.76 385.48V386.48H538.76V385.48H537.76ZM534.304 391H533.304V392H534.304V391ZM534.304 387.4V386.4H533.304V387.4H534.304ZM537.904 387.4H538.904V386.4H537.904V387.4ZM537.904 391V392H538.904V391H537.904ZM534.4 385.48H535.4V384.928H534.4H533.4V385.48H534.4ZM534.4 384.928H535.4C535.4 384.312 535.484 383.816 535.628 383.422L534.688 383.08L533.748 382.738C533.508 383.4 533.4 384.136 533.4 384.928H534.4ZM534.688 383.08L535.622 383.437C535.799 382.974 536.018 382.581 536.273 382.25L535.48 381.64L534.687 381.03C534.302 381.531 533.993 382.098 533.754 382.723L534.688 383.08ZM535.48 381.64L536.273 382.25C536.569 381.864 536.869 381.522 537.171 381.219L536.464 380.512L535.757 379.805C535.387 380.174 535.031 380.584 534.687 381.03L535.48 381.64ZM536.464 380.512L537.171 381.219C537.635 380.755 538.051 380.339 538.419 379.971L537.712 379.264L537.005 378.557C536.637 378.925 536.221 379.341 535.757 379.805L536.464 380.512ZM537.712 379.264L538.434 379.956C538.966 379.401 539.264 378.718 539.264 377.944H538.264H537.264C537.264 378.162 537.194 378.359 536.99 378.572L537.712 379.264ZM538.264 377.944H539.264C539.264 377.442 539.142 376.958 538.872 376.526L538.024 377.056L537.176 377.586C537.226 377.666 537.264 377.774 537.264 377.944H538.264ZM538.024 377.056L538.886 376.549C538.609 376.079 538.201 375.739 537.714 375.52L537.304 376.432L536.894 377.344C537.047 377.413 537.119 377.489 537.162 377.563L538.024 377.056ZM537.304 376.432L537.77 375.547C537.281 375.29 536.724 375.192 536.152 375.192V376.192V377.192C536.508 377.192 536.719 377.254 536.838 377.317L537.304 376.432ZM536.152 376.192V375.192C535.334 375.192 534.588 375.453 533.957 375.971L534.592 376.744L535.227 377.517C535.492 377.299 535.786 377.192 536.152 377.192V376.192ZM534.592 376.744L533.96 375.969C533.317 376.493 532.942 377.204 532.812 378.028L533.8 378.184L534.788 378.34C534.85 377.948 535.003 377.699 535.224 377.519L534.592 376.744ZM533.8 378.184L534.044 377.214L530.708 376.374L530.464 377.344L530.22 378.314L533.556 379.154L533.8 378.184ZM530.464 377.344L531.451 377.503C531.571 376.757 531.839 376.129 532.243 375.598L531.448 374.992L530.653 374.386C530.033 375.199 529.645 376.139 529.477 377.185L530.464 377.344ZM531.448 374.992L532.234 375.61C532.661 375.067 533.207 374.634 533.89 374.313L533.464 373.408L533.038 372.503C532.089 372.95 531.291 373.573 530.662 374.374L531.448 374.992ZM533.464 373.408L533.883 374.316C534.569 373.999 535.352 373.832 536.248 373.832V372.832V371.832C535.096 371.832 534.023 372.049 533.045 372.5L533.464 373.408ZM536.248 372.832V373.832C537.366 373.832 538.228 374.054 538.887 374.439L539.392 373.576L539.897 372.713C538.86 372.106 537.626 371.832 536.248 371.832V372.832ZM539.392 373.576L538.906 374.45C539.629 374.852 540.134 375.35 540.464 375.938L541.336 375.448L542.208 374.958C541.674 374.01 540.883 373.26 539.878 372.702L539.392 373.576ZM541.336 375.448L540.469 375.946C540.816 376.55 540.984 377.179 540.984 377.848H541.984H542.984C542.984 376.821 542.72 375.85 542.203 374.95L541.336 375.448ZM541.984 377.848H540.984C540.984 378.322 540.891 378.709 540.73 379.033L541.624 379.48L542.518 379.927C542.837 379.291 542.984 378.59 542.984 377.848H541.984ZM541.624 379.48L540.723 379.045C540.54 379.425 540.303 379.781 540.009 380.115L540.76 380.776L541.511 381.437C541.921 380.971 542.26 380.463 542.525 379.915L541.624 379.48ZM540.76 380.776L540.023 380.1C539.686 380.468 539.333 380.829 538.964 381.182L539.656 381.904L540.348 382.626C540.747 382.243 541.13 381.852 541.497 381.452L540.76 380.776ZM539.656 381.904L538.973 381.174C538.437 381.675 537.957 382.206 537.536 382.768L538.336 383.368L539.136 383.968C539.483 383.506 539.883 383.061 540.339 382.634L539.656 381.904ZM538.336 383.368L537.536 382.768C537.012 383.466 536.76 384.281 536.76 385.168H537.76H538.76C538.76 384.679 538.892 384.294 539.136 383.968L538.336 383.368ZM537.76 385.168H536.76V385.48H537.76H538.76V385.168H537.76ZM537.76 385.48V384.48H534.4V385.48V386.48H537.76V385.48ZM534.304 391H535.304V387.4H534.304H533.304V391H534.304ZM534.304 387.4V388.4H537.904V387.4V386.4H534.304V387.4ZM537.904 387.4H536.904V391H537.904H538.904V387.4H537.904ZM537.904 391V390H534.304V391V392H537.904V391Z" fill="#454545" fill-opacity="0.35" mask="url(#path-50-outside-2_4645_1544)"/>
<mask id="path-52-outside-3_4645_1544" maskUnits="userSpaceOnUse" x="583" y="311" width="14" height="21" fill="black">
<rect fill="white" x="583" y="311" width="14" height="21"/>
<path d="M588.4 325.48V324.928C588.4 324.224 588.496 323.608 588.688 323.08C588.896 322.536 589.16 322.056 589.48 321.64C589.8 321.224 590.128 320.848 590.464 320.512C590.928 320.048 591.344 319.632 591.712 319.264C592.08 318.88 592.264 318.44 592.264 317.944C592.264 317.608 592.184 317.312 592.024 317.056C591.864 316.784 591.624 316.576 591.304 316.432C591 316.272 590.616 316.192 590.152 316.192C589.56 316.192 589.04 316.376 588.592 316.744C588.16 317.096 587.896 317.576 587.8 318.184L584.464 317.344C584.608 316.448 584.936 315.664 585.448 314.992C585.976 314.32 586.648 313.792 587.464 313.408C588.296 313.024 589.224 312.832 590.248 312.832C591.496 312.832 592.544 313.08 593.392 313.576C594.256 314.056 594.904 314.68 595.336 315.448C595.768 316.2 595.984 317 595.984 317.848C595.984 318.456 595.864 319 595.624 319.48C595.4 319.944 595.112 320.376 594.76 320.776C594.408 321.16 594.04 321.536 593.656 321.904C593.16 322.368 592.72 322.856 592.336 323.368C591.952 323.88 591.76 324.48 591.76 325.168V325.48H588.4ZM588.304 331V327.4H591.904V331H588.304Z"/>
</mask>
<path d="M588.4 325.48V324.928C588.4 324.224 588.496 323.608 588.688 323.08C588.896 322.536 589.16 322.056 589.48 321.64C589.8 321.224 590.128 320.848 590.464 320.512C590.928 320.048 591.344 319.632 591.712 319.264C592.08 318.88 592.264 318.44 592.264 317.944C592.264 317.608 592.184 317.312 592.024 317.056C591.864 316.784 591.624 316.576 591.304 316.432C591 316.272 590.616 316.192 590.152 316.192C589.56 316.192 589.04 316.376 588.592 316.744C588.16 317.096 587.896 317.576 587.8 318.184L584.464 317.344C584.608 316.448 584.936 315.664 585.448 314.992C585.976 314.32 586.648 313.792 587.464 313.408C588.296 313.024 589.224 312.832 590.248 312.832C591.496 312.832 592.544 313.08 593.392 313.576C594.256 314.056 594.904 314.68 595.336 315.448C595.768 316.2 595.984 317 595.984 317.848C595.984 318.456 595.864 319 595.624 319.48C595.4 319.944 595.112 320.376 594.76 320.776C594.408 321.16 594.04 321.536 593.656 321.904C593.16 322.368 592.72 322.856 592.336 323.368C591.952 323.88 591.76 324.48 591.76 325.168V325.48H588.4ZM588.304 331V327.4H591.904V331H588.304Z" fill="white"/>
<path d="M588.4 325.48H587.4V326.48H588.4V325.48ZM588.688 323.08L587.754 322.723L587.751 322.731L587.748 322.738L588.688 323.08ZM590.464 320.512L591.171 321.219L590.464 320.512ZM591.712 319.264L592.419 319.971L592.427 319.964L592.434 319.956L591.712 319.264ZM592.024 317.056L591.162 317.563L591.169 317.575L591.176 317.586L592.024 317.056ZM591.304 316.432L590.838 317.317L590.866 317.331L590.894 317.344L591.304 316.432ZM588.592 316.744L589.224 317.519L589.227 317.517L588.592 316.744ZM587.8 318.184L587.556 319.154L588.617 319.421L588.788 318.34L587.8 318.184ZM584.464 317.344L583.477 317.185L583.331 318.09L584.22 318.314L584.464 317.344ZM585.448 314.992L584.662 314.374L584.657 314.38L584.653 314.386L585.448 314.992ZM587.464 313.408L587.045 312.5L587.038 312.503L587.464 313.408ZM593.392 313.576L592.887 314.439L592.897 314.445L592.906 314.45L593.392 313.576ZM595.336 315.448L594.464 315.938L594.469 315.946L595.336 315.448ZM595.624 319.48L594.729 319.033L594.723 319.045L595.624 319.48ZM594.76 320.776L595.497 321.452L595.504 321.444L595.511 321.437L594.76 320.776ZM593.656 321.904L594.339 322.634L594.348 322.626L593.656 321.904ZM592.336 323.368L593.136 323.968V323.968L592.336 323.368ZM591.76 325.48V326.48H592.76V325.48H591.76ZM588.304 331H587.304V332H588.304V331ZM588.304 327.4V326.4H587.304V327.4H588.304ZM591.904 327.4H592.904V326.4H591.904V327.4ZM591.904 331V332H592.904V331H591.904ZM588.4 325.48H589.4V324.928H588.4H587.4V325.48H588.4ZM588.4 324.928H589.4C589.4 324.312 589.484 323.816 589.628 323.422L588.688 323.08L587.748 322.738C587.508 323.4 587.4 324.136 587.4 324.928H588.4ZM588.688 323.08L589.622 323.437C589.799 322.974 590.018 322.581 590.273 322.25L589.48 321.64L588.687 321.03C588.302 321.531 587.993 322.098 587.754 322.723L588.688 323.08ZM589.48 321.64L590.273 322.25C590.569 321.864 590.869 321.522 591.171 321.219L590.464 320.512L589.757 319.805C589.387 320.174 589.031 320.584 588.687 321.03L589.48 321.64ZM590.464 320.512L591.171 321.219C591.635 320.755 592.051 320.339 592.419 319.971L591.712 319.264L591.005 318.557C590.637 318.925 590.221 319.341 589.757 319.805L590.464 320.512ZM591.712 319.264L592.434 319.956C592.966 319.401 593.264 318.718 593.264 317.944H592.264H591.264C591.264 318.162 591.194 318.359 590.99 318.572L591.712 319.264ZM592.264 317.944H593.264C593.264 317.442 593.142 316.958 592.872 316.526L592.024 317.056L591.176 317.586C591.226 317.666 591.264 317.774 591.264 317.944H592.264ZM592.024 317.056L592.886 316.549C592.609 316.079 592.201 315.739 591.714 315.52L591.304 316.432L590.894 317.344C591.047 317.413 591.119 317.489 591.162 317.563L592.024 317.056ZM591.304 316.432L591.77 315.547C591.281 315.29 590.724 315.192 590.152 315.192V316.192V317.192C590.508 317.192 590.719 317.254 590.838 317.317L591.304 316.432ZM590.152 316.192V315.192C589.334 315.192 588.588 315.453 587.957 315.971L588.592 316.744L589.227 317.517C589.492 317.299 589.786 317.192 590.152 317.192V316.192ZM588.592 316.744L587.96 315.969C587.317 316.493 586.942 317.204 586.812 318.028L587.8 318.184L588.788 318.34C588.85 317.948 589.003 317.699 589.224 317.519L588.592 316.744ZM587.8 318.184L588.044 317.214L584.708 316.374L584.464 317.344L584.22 318.314L587.556 319.154L587.8 318.184ZM584.464 317.344L585.451 317.503C585.571 316.757 585.839 316.129 586.243 315.598L585.448 314.992L584.653 314.386C584.033 315.199 583.645 316.139 583.477 317.185L584.464 317.344ZM585.448 314.992L586.234 315.61C586.661 315.067 587.207 314.634 587.89 314.313L587.464 313.408L587.038 312.503C586.089 312.95 585.291 313.573 584.662 314.374L585.448 314.992ZM587.464 313.408L587.883 314.316C588.569 313.999 589.352 313.832 590.248 313.832V312.832V311.832C589.096 311.832 588.023 312.049 587.045 312.5L587.464 313.408ZM590.248 312.832V313.832C591.366 313.832 592.228 314.054 592.887 314.439L593.392 313.576L593.897 312.713C592.86 312.106 591.626 311.832 590.248 311.832V312.832ZM593.392 313.576L592.906 314.45C593.629 314.852 594.134 315.35 594.464 315.938L595.336 315.448L596.208 314.958C595.674 314.01 594.883 313.26 593.878 312.702L593.392 313.576ZM595.336 315.448L594.469 315.946C594.816 316.55 594.984 317.179 594.984 317.848H595.984H596.984C596.984 316.821 596.72 315.85 596.203 314.95L595.336 315.448ZM595.984 317.848H594.984C594.984 318.322 594.891 318.709 594.73 319.033L595.624 319.48L596.518 319.927C596.837 319.291 596.984 318.59 596.984 317.848H595.984ZM595.624 319.48L594.723 319.045C594.54 319.425 594.303 319.781 594.009 320.115L594.76 320.776L595.511 321.437C595.921 320.971 596.26 320.463 596.525 319.915L595.624 319.48ZM594.76 320.776L594.023 320.1C593.686 320.468 593.333 320.829 592.964 321.182L593.656 321.904L594.348 322.626C594.747 322.243 595.13 321.852 595.497 321.452L594.76 320.776ZM593.656 321.904L592.973 321.174C592.437 321.675 591.957 322.206 591.536 322.768L592.336 323.368L593.136 323.968C593.483 323.506 593.883 323.061 594.339 322.634L593.656 321.904ZM592.336 323.368L591.536 322.768C591.012 323.466 590.76 324.281 590.76 325.168H591.76H592.76C592.76 324.679 592.892 324.294 593.136 323.968L592.336 323.368ZM591.76 325.168H590.76V325.48H591.76H592.76V325.168H591.76ZM591.76 325.48V324.48H588.4V325.48V326.48H591.76V325.48ZM588.304 331H589.304V327.4H588.304H587.304V331H588.304ZM588.304 327.4V328.4H591.904V327.4V326.4H588.304V327.4ZM591.904 327.4H590.904V331H591.904H592.904V327.4H591.904ZM591.904 331V330H588.304V331V332H591.904V331Z" fill="#454545" fill-opacity="0.35" mask="url(#path-52-outside-3_4645_1544)"/>
<mask id="path-54-outside-4_4645_1544" maskUnits="userSpaceOnUse" x="622" y="376" width="14" height="21" fill="black">
<rect fill="white" x="622" y="376" width="14" height="21"/>
<path d="M627.4 390.48V389.928C627.4 389.224 627.496 388.608 627.688 388.08C627.896 387.536 628.16 387.056 628.48 386.64C628.8 386.224 629.128 385.848 629.464 385.512C629.928 385.048 630.344 384.632 630.712 384.264C631.08 383.88 631.264 383.44 631.264 382.944C631.264 382.608 631.184 382.312 631.024 382.056C630.864 381.784 630.624 381.576 630.304 381.432C630 381.272 629.616 381.192 629.152 381.192C628.56 381.192 628.04 381.376 627.592 381.744C627.16 382.096 626.896 382.576 626.8 383.184L623.464 382.344C623.608 381.448 623.936 380.664 624.448 379.992C624.976 379.32 625.648 378.792 626.464 378.408C627.296 378.024 628.224 377.832 629.248 377.832C630.496 377.832 631.544 378.08 632.392 378.576C633.256 379.056 633.904 379.68 634.336 380.448C634.768 381.2 634.984 382 634.984 382.848C634.984 383.456 634.864 384 634.624 384.48C634.4 384.944 634.112 385.376 633.76 385.776C633.408 386.16 633.04 386.536 632.656 386.904C632.16 387.368 631.72 387.856 631.336 388.368C630.952 388.88 630.76 389.48 630.76 390.168V390.48H627.4ZM627.304 396V392.4H630.904V396H627.304Z"/>
</mask>
<path d="M627.4 390.48V389.928C627.4 389.224 627.496 388.608 627.688 388.08C627.896 387.536 628.16 387.056 628.48 386.64C628.8 386.224 629.128 385.848 629.464 385.512C629.928 385.048 630.344 384.632 630.712 384.264C631.08 383.88 631.264 383.44 631.264 382.944C631.264 382.608 631.184 382.312 631.024 382.056C630.864 381.784 630.624 381.576 630.304 381.432C630 381.272 629.616 381.192 629.152 381.192C628.56 381.192 628.04 381.376 627.592 381.744C627.16 382.096 626.896 382.576 626.8 383.184L623.464 382.344C623.608 381.448 623.936 380.664 624.448 379.992C624.976 379.32 625.648 378.792 626.464 378.408C627.296 378.024 628.224 377.832 629.248 377.832C630.496 377.832 631.544 378.08 632.392 378.576C633.256 379.056 633.904 379.68 634.336 380.448C634.768 381.2 634.984 382 634.984 382.848C634.984 383.456 634.864 384 634.624 384.48C634.4 384.944 634.112 385.376 633.76 385.776C633.408 386.16 633.04 386.536 632.656 386.904C632.16 387.368 631.72 387.856 631.336 388.368C630.952 388.88 630.76 389.48 630.76 390.168V390.48H627.4ZM627.304 396V392.4H630.904V396H627.304Z" fill="white"/>
<path d="M627.4 390.48H626.4V391.48H627.4V390.48ZM627.688 388.08L626.754 387.723L626.751 387.731L626.748 387.738L627.688 388.08ZM629.464 385.512L630.171 386.219L629.464 385.512ZM630.712 384.264L631.419 384.971L631.427 384.964L631.434 384.956L630.712 384.264ZM631.024 382.056L630.162 382.563L630.169 382.575L630.176 382.586L631.024 382.056ZM630.304 381.432L629.838 382.317L629.866 382.331L629.894 382.344L630.304 381.432ZM627.592 381.744L628.224 382.519L628.227 382.517L627.592 381.744ZM626.8 383.184L626.556 384.154L627.617 384.421L627.788 383.34L626.8 383.184ZM623.464 382.344L622.477 382.185L622.331 383.09L623.22 383.314L623.464 382.344ZM624.448 379.992L623.662 379.374L623.657 379.38L623.653 379.386L624.448 379.992ZM626.464 378.408L626.045 377.5L626.038 377.503L626.464 378.408ZM632.392 378.576L631.887 379.439L631.897 379.445L631.906 379.45L632.392 378.576ZM634.336 380.448L633.464 380.938L633.469 380.946L634.336 380.448ZM634.624 384.48L633.729 384.033L633.723 384.045L634.624 384.48ZM633.76 385.776L634.497 386.452L634.504 386.444L634.511 386.437L633.76 385.776ZM632.656 386.904L633.339 387.634L633.348 387.626L632.656 386.904ZM631.336 388.368L632.136 388.968V388.968L631.336 388.368ZM630.76 390.48V391.48H631.76V390.48H630.76ZM627.304 396H626.304V397H627.304V396ZM627.304 392.4V391.4H626.304V392.4H627.304ZM630.904 392.4H631.904V391.4H630.904V392.4ZM630.904 396V397H631.904V396H630.904ZM627.4 390.48H628.4V389.928H627.4H626.4V390.48H627.4ZM627.4 389.928H628.4C628.4 389.312 628.484 388.816 628.628 388.422L627.688 388.08L626.748 387.738C626.508 388.4 626.4 389.136 626.4 389.928H627.4ZM627.688 388.08L628.622 388.437C628.799 387.974 629.018 387.581 629.273 387.25L628.48 386.64L627.687 386.03C627.302 386.531 626.993 387.098 626.754 387.723L627.688 388.08ZM628.48 386.64L629.273 387.25C629.569 386.864 629.869 386.522 630.171 386.219L629.464 385.512L628.757 384.805C628.387 385.174 628.031 385.584 627.687 386.03L628.48 386.64ZM629.464 385.512L630.171 386.219C630.635 385.755 631.051 385.339 631.419 384.971L630.712 384.264L630.005 383.557C629.637 383.925 629.221 384.341 628.757 384.805L629.464 385.512ZM630.712 384.264L631.434 384.956C631.966 384.401 632.264 383.718 632.264 382.944H631.264H630.264C630.264 383.162 630.194 383.359 629.99 383.572L630.712 384.264ZM631.264 382.944H632.264C632.264 382.442 632.142 381.958 631.872 381.526L631.024 382.056L630.176 382.586C630.226 382.666 630.264 382.774 630.264 382.944H631.264ZM631.024 382.056L631.886 381.549C631.609 381.079 631.201 380.739 630.714 380.52L630.304 381.432L629.894 382.344C630.047 382.413 630.119 382.489 630.162 382.563L631.024 382.056ZM630.304 381.432L630.77 380.547C630.281 380.29 629.724 380.192 629.152 380.192V381.192V382.192C629.508 382.192 629.719 382.254 629.838 382.317L630.304 381.432ZM629.152 381.192V380.192C628.334 380.192 627.588 380.453 626.957 380.971L627.592 381.744L628.227 382.517C628.492 382.299 628.786 382.192 629.152 382.192V381.192ZM627.592 381.744L626.96 380.969C626.317 381.493 625.942 382.204 625.812 383.028L626.8 383.184L627.788 383.34C627.85 382.948 628.003 382.699 628.224 382.519L627.592 381.744ZM626.8 383.184L627.044 382.214L623.708 381.374L623.464 382.344L623.22 383.314L626.556 384.154L626.8 383.184ZM623.464 382.344L624.451 382.503C624.571 381.757 624.839 381.129 625.243 380.598L624.448 379.992L623.653 379.386C623.033 380.199 622.645 381.139 622.477 382.185L623.464 382.344ZM624.448 379.992L625.234 380.61C625.661 380.067 626.207 379.634 626.89 379.313L626.464 378.408L626.038 377.503C625.089 377.95 624.291 378.573 623.662 379.374L624.448 379.992ZM626.464 378.408L626.883 379.316C627.569 378.999 628.352 378.832 629.248 378.832V377.832V376.832C628.096 376.832 627.023 377.049 626.045 377.5L626.464 378.408ZM629.248 377.832V378.832C630.366 378.832 631.228 379.054 631.887 379.439L632.392 378.576L632.897 377.713C631.86 377.106 630.626 376.832 629.248 376.832V377.832ZM632.392 378.576L631.906 379.45C632.629 379.852 633.134 380.35 633.464 380.938L634.336 380.448L635.208 379.958C634.674 379.01 633.883 378.26 632.878 377.702L632.392 378.576ZM634.336 380.448L633.469 380.946C633.816 381.55 633.984 382.179 633.984 382.848H634.984H635.984C635.984 381.821 635.72 380.85 635.203 379.95L634.336 380.448ZM634.984 382.848H633.984C633.984 383.322 633.891 383.709 633.73 384.033L634.624 384.48L635.518 384.927C635.837 384.291 635.984 383.59 635.984 382.848H634.984ZM634.624 384.48L633.723 384.045C633.54 384.425 633.303 384.781 633.009 385.115L633.76 385.776L634.511 386.437C634.921 385.971 635.26 385.463 635.525 384.915L634.624 384.48ZM633.76 385.776L633.023 385.1C632.686 385.468 632.333 385.829 631.964 386.182L632.656 386.904L633.348 387.626C633.747 387.243 634.13 386.852 634.497 386.452L633.76 385.776ZM632.656 386.904L631.973 386.174C631.437 386.675 630.957 387.206 630.536 387.768L631.336 388.368L632.136 388.968C632.483 388.506 632.883 388.061 633.339 387.634L632.656 386.904ZM631.336 388.368L630.536 387.768C630.012 388.466 629.76 389.281 629.76 390.168H630.76H631.76C631.76 389.679 631.892 389.294 632.136 388.968L631.336 388.368ZM630.76 390.168H629.76V390.48H630.76H631.76V390.168H630.76ZM630.76 390.48V389.48H627.4V390.48V391.48H630.76V390.48ZM627.304 396H628.304V392.4H627.304H626.304V396H627.304ZM627.304 392.4V393.4H630.904V392.4V391.4H627.304V392.4ZM630.904 392.4H629.904V396H630.904H631.904V392.4H630.904ZM630.904 396V395H627.304V396V397H630.904V396Z" fill="#454545" fill-opacity="0.35" mask="url(#path-54-outside-4_4645_1544)"/>
<mask id="path-56-outside-5_4645_1544" maskUnits="userSpaceOnUse" x="545" y="323" width="22" height="33" fill="black">
<rect fill="white" x="545" y="323" width="22" height="33"/>
<path d="M553 345.8V344.88C553 343.707 553.16 342.68 553.48 341.8C553.827 340.893 554.267 340.093 554.8 339.4C555.333 338.707 555.88 338.08 556.44 337.52C557.213 336.747 557.907 336.053 558.52 335.44C559.133 334.8 559.44 334.067 559.44 333.24C559.44 332.68 559.307 332.187 559.04 331.76C558.773 331.307 558.373 330.96 557.84 330.72C557.333 330.453 556.693 330.32 555.92 330.32C554.933 330.32 554.067 330.627 553.32 331.24C552.6 331.827 552.16 332.627 552 333.64L546.44 332.24C546.68 330.747 547.227 329.44 548.08 328.32C548.96 327.2 550.08 326.32 551.44 325.68C552.827 325.04 554.373 324.72 556.08 324.72C558.16 324.72 559.907 325.133 561.32 325.96C562.76 326.76 563.84 327.8 564.56 329.08C565.28 330.333 565.64 331.667 565.64 333.08C565.64 334.093 565.44 335 565.04 335.8C564.667 336.573 564.187 337.293 563.6 337.96C563.013 338.6 562.4 339.227 561.76 339.84C560.933 340.613 560.2 341.427 559.56 342.28C558.92 343.133 558.6 344.133 558.6 345.28V345.8H553ZM552.84 355V349H558.84V355H552.84Z"/>
</mask>
<path d="M553 345.8V344.88C553 343.707 553.16 342.68 553.48 341.8C553.827 340.893 554.267 340.093 554.8 339.4C555.333 338.707 555.88 338.08 556.44 337.52C557.213 336.747 557.907 336.053 558.52 335.44C559.133 334.8 559.44 334.067 559.44 333.24C559.44 332.68 559.307 332.187 559.04 331.76C558.773 331.307 558.373 330.96 557.84 330.72C557.333 330.453 556.693 330.32 555.92 330.32C554.933 330.32 554.067 330.627 553.32 331.24C552.6 331.827 552.16 332.627 552 333.64L546.44 332.24C546.68 330.747 547.227 329.44 548.08 328.32C548.96 327.2 550.08 326.32 551.44 325.68C552.827 325.04 554.373 324.72 556.08 324.72C558.16 324.72 559.907 325.133 561.32 325.96C562.76 326.76 563.84 327.8 564.56 329.08C565.28 330.333 565.64 331.667 565.64 333.08C565.64 334.093 565.44 335 565.04 335.8C564.667 336.573 564.187 337.293 563.6 337.96C563.013 338.6 562.4 339.227 561.76 339.84C560.933 340.613 560.2 341.427 559.56 342.28C558.92 343.133 558.6 344.133 558.6 345.28V345.8H553ZM552.84 355V349H558.84V355H552.84Z" fill="white"/>
<path d="M553 345.8H552V346.8H553V345.8ZM553.48 341.8L552.546 341.443L552.543 341.451L552.54 341.458L553.48 341.8ZM556.44 337.52L557.147 338.227H557.147L556.44 337.52ZM558.52 335.44L559.227 336.147L559.235 336.14L559.242 336.132L558.52 335.44ZM559.04 331.76L558.178 332.267L558.185 332.279L558.192 332.29L559.04 331.76ZM557.84 330.72L557.374 331.605L557.402 331.619L557.43 331.632L557.84 330.72ZM553.32 331.24L553.952 332.015L553.955 332.013L553.32 331.24ZM552 333.64L551.756 334.61L552.817 334.877L552.988 333.796L552 333.64ZM546.44 332.24L545.453 332.081L545.307 332.986L546.196 333.21L546.44 332.24ZM548.08 328.32L547.294 327.702L547.289 327.708L547.285 327.714L548.08 328.32ZM551.44 325.68L551.021 324.772L551.014 324.775L551.44 325.68ZM561.32 325.96L560.815 326.823L560.825 326.829L560.834 326.834L561.32 325.96ZM564.56 329.08L563.688 329.57L563.693 329.578L564.56 329.08ZM565.04 335.8L564.145 335.353L564.139 335.365L565.04 335.8ZM563.6 337.96L564.337 338.636L564.344 338.628L564.351 338.621L563.6 337.96ZM561.76 339.84L562.443 340.57L562.452 340.562L561.76 339.84ZM559.56 342.28L560.36 342.88L559.56 342.28ZM558.6 345.8V346.8H559.6V345.8H558.6ZM552.84 355H551.84V356H552.84V355ZM552.84 349V348H551.84V349H552.84ZM558.84 349H559.84V348H558.84V349ZM558.84 355V356H559.84V355H558.84ZM553 345.8H554V344.88H553H552V345.8H553ZM553 344.88H554C554 343.795 554.148 342.888 554.42 342.142L553.48 341.8L552.54 341.458C552.172 342.472 552 343.618 552 344.88H553ZM553.48 341.8L554.414 342.157C554.73 341.331 555.125 340.618 555.593 340.01L554.8 339.4L554.007 338.79C553.409 339.568 552.924 340.455 552.546 341.443L553.48 341.8ZM554.8 339.4L555.593 340.01C556.102 339.347 556.621 338.754 557.147 338.227L556.44 337.52L555.733 336.813C555.139 337.406 554.564 338.066 554.007 338.79L554.8 339.4ZM556.44 337.52L557.147 338.227C557.92 337.454 558.614 336.76 559.227 336.147L558.52 335.44L557.813 334.733C557.2 335.346 556.506 336.04 555.733 336.813L556.44 337.52ZM558.52 335.44L559.242 336.132C560.02 335.321 560.44 334.344 560.44 333.24H559.44H558.44C558.44 333.789 558.247 334.279 557.798 334.748L558.52 335.44ZM559.44 333.24H560.44C560.44 332.514 560.265 331.833 559.888 331.23L559.04 331.76L558.192 332.29C558.348 332.54 558.44 332.846 558.44 333.24H559.44ZM559.04 331.76L559.902 331.253C559.519 330.601 558.95 330.123 558.25 329.808L557.84 330.72L557.43 331.632C557.796 331.797 558.028 332.012 558.178 332.267L559.04 331.76ZM557.84 330.72L558.306 329.835C557.614 329.471 556.801 329.32 555.92 329.32V330.32V331.32C556.585 331.32 557.053 331.436 557.374 331.605L557.84 330.72ZM555.92 330.32V329.32C554.707 329.32 553.615 329.704 552.685 330.467L553.32 331.24L553.955 332.013C554.518 331.55 555.16 331.32 555.92 331.32V330.32ZM553.32 331.24L552.688 330.465C551.757 331.224 551.206 332.255 551.012 333.484L552 333.64L552.988 333.796C553.114 332.998 553.443 332.43 553.952 332.015L553.32 331.24ZM552 333.64L552.244 332.67L546.684 331.27L546.44 332.24L546.196 333.21L551.756 334.61L552 333.64ZM546.44 332.24L547.427 332.399C547.643 331.056 548.129 329.905 548.875 328.926L548.08 328.32L547.285 327.714C546.324 328.975 545.717 330.438 545.453 332.081L546.44 332.24ZM548.08 328.32L548.866 328.938C549.645 327.947 550.639 327.162 551.866 326.585L551.44 325.68L551.014 324.775C549.521 325.478 548.275 326.453 547.294 327.702L548.08 328.32ZM551.44 325.68L551.859 326.588C553.1 326.015 554.501 325.72 556.08 325.72V324.72V323.72C554.246 323.72 552.554 324.065 551.021 324.772L551.44 325.68ZM556.08 324.72V325.72C558.03 325.72 559.591 326.107 560.815 326.823L561.32 325.96L561.825 325.097C560.222 324.159 558.29 323.72 556.08 323.72V324.72ZM561.32 325.96L560.834 326.834C562.133 327.556 563.07 328.47 563.688 329.57L564.56 329.08L565.432 328.59C564.61 327.13 563.387 325.964 561.806 325.086L561.32 325.96ZM564.56 329.08L563.693 329.578C564.328 330.683 564.64 331.846 564.64 333.08H565.64H566.64C566.64 331.488 566.232 329.983 565.427 328.582L564.56 329.08ZM565.64 333.08H564.64C564.64 333.959 564.467 334.709 564.146 335.353L565.04 335.8L565.934 336.247C566.413 335.291 566.64 334.228 566.64 333.08H565.64ZM565.04 335.8L564.139 335.365C563.807 336.054 563.378 336.699 562.849 337.299L563.6 337.96L564.351 338.621C564.995 337.888 565.526 337.093 565.941 336.235L565.04 335.8ZM563.6 337.96L562.863 337.284C562.291 337.908 561.693 338.519 561.068 339.118L561.76 339.84L562.452 340.562C563.107 339.934 563.736 339.292 564.337 338.636L563.6 337.96ZM561.76 339.84L561.077 339.11C560.21 339.921 559.437 340.777 558.76 341.68L559.56 342.28L560.36 342.88C560.963 342.076 561.657 341.306 562.443 340.57L561.76 339.84ZM559.56 342.28L558.76 341.68C557.98 342.72 557.6 343.934 557.6 345.28H558.6H559.6C559.6 344.332 559.86 343.547 560.36 342.88L559.56 342.28ZM558.6 345.28H557.6V345.8H558.6H559.6V345.28H558.6ZM558.6 345.8V344.8H553V345.8V346.8H558.6V345.8ZM552.84 355H553.84V349H552.84H551.84V355H552.84ZM552.84 349V350H558.84V349V348H552.84V349ZM558.84 349H557.84V355H558.84H559.84V349H558.84ZM558.84 355V354H552.84V355V356H558.84V355Z" fill="#454545" fill-opacity="0.35" mask="url(#path-56-outside-5_4645_1544)"/>
<path d="M851.849 195.528L819.809 246.985L838.671 240.056L838.783 240.364L839 240L839.86 240.51L807.86 294.51L807 294L838.241 241.279L818.947 248.368L818.849 248.528L818.724 248.45L818.674 248.47L818.649 248.404L818 248L851 195L851.849 195.528Z" fill="url(#paint8_linear_4645_1544)"/>
<path d="M166.001 216.502L200.388 268.019L180.081 261.06L179.963 261.364L179.73 261L178.855 261.483L213.16 315.484L214.035 315L180.54 262.273L201.304 269.391L201.378 269.503L201.472 269.448L201.523 269.467L201.549 269.403L202.243 269L166.866 216L166.001 216.502Z" fill="url(#paint9_linear_4645_1544)"/>
<path d="M850.849 196.528L818.809 247.985L837.671 241.056L837.783 241.364L838 241L838.86 241.51L806.86 295.51L806 295L837.241 242.279L817.947 249.368L817.849 249.528L817.724 249.45L817.674 249.47L817.649 249.404L817 249L850 196L850.849 196.528Z" fill="#E4EA43"/>
<path d="M167.071 217.502L201.458 269.019L181.151 262.06L181.033 262.364L180.801 262L179.925 262.483L214.23 316.484L215.105 316L181.61 263.273L202.374 270.391L202.448 270.503L202.542 270.448L202.594 270.467L202.619 270.403L203.313 270L167.936 217L167.071 217.502Z" fill="#E4EA43"/>
</g>
<defs>
<linearGradient id="paint0_linear_4645_1544" x1="920.856" y1="567.395" x2="516.031" y2="554.981" gradientUnits="userSpaceOnUse">
<stop stop-color="#065366"/>
<stop offset="0.845401" stop-color="#A0BA3B"/>
</linearGradient>
<linearGradient id="paint1_linear_4645_1544" x1="342" y1="154" x2="352.548" y2="323.876" gradientUnits="userSpaceOnUse">
<stop stop-color="#F3F5FD"/>
<stop offset="0.972506" stop-color="#919297"/>
</linearGradient>
<linearGradient id="paint2_linear_4645_1544" x1="121.261" y1="154" x2="110.126" y2="323.801" gradientUnits="userSpaceOnUse">
<stop stop-color="#F3F5FD"/>
<stop offset="0.972506" stop-color="#919297"/>
</linearGradient>
<linearGradient id="paint3_linear_4645_1544" x1="209.292" y1="157.438" x2="198.601" y2="303.011" gradientUnits="userSpaceOnUse">
<stop stop-color="white"/>
<stop offset="1" stop-color="#919297"/>
</linearGradient>
<linearGradient id="paint4_linear_4645_1544" x1="781" y1="137" x2="771.5" y2="307" gradientUnits="userSpaceOnUse">
<stop stop-color="#F3F5FD"/>
<stop offset="0.972506" stop-color="#919297"/>
</linearGradient>
<linearGradient id="paint5_linear_4645_1544" x1="880" y1="133.5" x2="891" y2="279.5" gradientUnits="userSpaceOnUse">
<stop stop-color="#F3F5FD"/>
<stop offset="1" stop-color="#919297"/>
</linearGradient>
<linearGradient id="paint6_linear_4645_1544" x1="880" y1="133.5" x2="891" y2="279.5" gradientUnits="userSpaceOnUse">
<stop stop-color="white"/>
<stop offset="1" stop-color="#919297"/>
</linearGradient>
<linearGradient id="paint7_linear_4645_1544" x1="626.967" y1="145.438" x2="614.873" y2="290.79" gradientUnits="userSpaceOnUse">
<stop stop-color="white"/>
<stop offset="1" stop-color="#919297"/>
</linearGradient>
<linearGradient id="paint8_linear_4645_1544" x1="840.04" y1="186.313" x2="723.924" y2="231.876" gradientUnits="userSpaceOnUse">
<stop stop-color="#CCB90C"/>
<stop offset="1" stop-color="#D47800"/>
</linearGradient>
<linearGradient id="paint9_linear_4645_1544" x1="178.648" y1="207.315" x2="300.609" y2="258.583" gradientUnits="userSpaceOnUse">
<stop stop-color="#CCB90C"/>
<stop offset="1" stop-color="#D47800"/>
</linearGradient>
<clipPath id="clip0_4645_1544">
<rect width="1085" height="604" fill="white"/>
</clipPath>
</defs>
</svg>
