<svg width="538" height="300" viewBox="0 0 538 300" fill="none" xmlns="http://www.w3.org/2000/svg">
<g clip-path="url(#clip0_4430_17325)">
<path d="M524.294 116.164L518.591 130.757L522.634 132.337L528.338 117.745L524.294 116.164Z" fill="#A0BA3B"/>
<path d="M168.012 80.3818L164.778 83.2784L175.231 94.9493L178.465 92.0528L168.012 80.3818Z" fill="#065366"/>
<path d="M215.933 132.619L203.394 142.012L205.997 145.487L218.536 136.094L215.933 132.619Z" fill="#A0BA3B"/>
<path d="M360.963 24.8328L357.987 27.9947L369.397 38.7319L372.373 35.57L360.963 24.8328Z" fill="#A0BA3B"/>
<path d="M277.997 28.3242L270.188 41.9076L273.952 44.0715L281.761 30.4881L277.997 28.3242Z" fill="#065366"/>
<path d="M391.386 144.484L387.715 146.801L396.076 160.051L399.747 157.734L391.386 144.484Z" fill="#065366"/>
<path d="M221.139 209.005L217.255 210.945L224.257 224.961L228.14 223.02L221.139 209.005Z" fill="#065366"/>
<path d="M164.316 172.127L159.817 187.134L163.976 188.381L168.474 173.373L164.316 172.127Z" fill="#A0BA3B"/>
<path d="M436.095 218.892L423.083 227.618L425.501 231.224L438.513 222.498L436.095 218.892Z" fill="#A0BA3B"/>
<path d="M438.043 0.0011757L430.235 13.5842L433.999 15.748L441.807 2.16499L438.043 0.0011757Z" fill="#065366"/>
<path d="M4.04361 111.125L0 112.706L5.70351 127.298L9.74711 125.718L4.04361 111.125Z" fill="#065366"/>
<path d="M423.796 93.0978L421.193 96.5731L433.733 105.966L436.336 102.491L423.796 93.0978Z" fill="#065366"/>
<path d="M71.5702 29.0816L60.1602 39.8189L63.1354 42.9808L74.5454 32.2435L71.5702 29.0816Z" fill="#A0BA3B"/>
<path d="M197.949 16.2953L194.186 18.4592L201.994 32.0425L205.758 29.8787L197.949 16.2953Z" fill="#A0BA3B"/>
<path d="M44.4284 186.841L36.0674 200.091L39.739 202.408L48.1 189.158L44.4284 186.841Z" fill="#065366"/>
<path d="M7.39577 223.137L4.97754 226.745L17.9968 235.472L20.415 231.864L7.39577 223.137Z" fill="#A0BA3B"/>
<path d="M509.685 50.1104L505.921 52.2742L513.729 65.8572L517.493 63.6934L509.685 50.1104Z" fill="#A0BA3B"/>
<path d="M346.567 87.1274L336.114 98.7983L339.348 101.695L349.801 90.0239L346.567 87.1274Z" fill="#A0BA3B"/>
<path d="M254.807 218.679L247.806 232.694L251.689 234.635L258.691 220.619L254.807 218.679Z" fill="#065366"/>
<path d="M311.631 181.802L307.473 183.048L311.972 198.056L316.13 196.809L311.631 181.802Z" fill="#A0BA3B"/>
<path d="M313.031 190.366L298.234 179.117C297.909 178.87 297.535 178.694 297.138 178.599C296.741 178.504 296.328 178.493 295.927 178.566C295.525 178.639 295.143 178.795 294.804 179.024C294.466 179.253 294.179 179.55 293.962 179.896C293.581 180.547 293.456 181.316 293.609 182.055C293.763 182.793 294.186 183.448 294.795 183.893L297.968 186.305L284.51 183.3C283.019 182.94 280.959 183.452 280.666 185.15C280.51 185.797 280.578 186.477 280.858 187.079C281.139 187.682 281.615 188.172 282.21 188.469C282.203 188.483 282.197 188.496 282.193 188.511C282.193 188.522 282.193 188.533 282.193 188.544L279.895 187.989C279.469 187.886 279.025 187.88 278.597 187.971C278.168 188.061 277.765 188.246 277.417 188.512C277.069 188.778 276.785 189.118 276.585 189.508C276.385 189.898 276.275 190.327 276.262 190.765C276.255 191.455 276.486 192.126 276.915 192.666C277.344 193.206 277.946 193.583 278.619 193.733L279.596 193.969C279.603 194 279.614 194.03 279.631 194.058C278.933 194.052 278.256 194.294 277.72 194.741C277.184 195.189 276.825 195.812 276.707 196.5C276.599 197.256 276.781 198.025 277.216 198.654C277.65 199.282 278.306 199.723 279.051 199.89L281.481 200.477C281.441 200.493 281.406 200.518 281.378 200.551C281.349 200.583 281.329 200.622 281.319 200.664C281.309 200.714 281.314 200.766 281.333 200.814C280.71 200.981 280.159 201.348 279.765 201.859C279.371 202.37 279.155 202.996 279.152 203.641C279.162 204.318 279.4 204.973 279.828 205.498C280.257 206.023 280.85 206.389 281.511 206.535L302.011 211.488C304.879 212.18 307.888 212.001 310.653 210.972C313.419 209.943 315.814 208.112 317.532 205.714C319.013 203.646 319.63 201.081 319.25 198.566C318.871 196.05 317.525 193.782 315.5 192.242L313.031 190.366Z" fill="#E98862"/>
<g opacity="0.2">
<path d="M295.517 191.51C295.5 191.578 295.456 191.638 295.396 191.675C295.336 191.712 295.263 191.724 295.194 191.709L282.397 188.832C282.363 188.825 282.33 188.81 282.301 188.789C282.271 188.769 282.247 188.743 282.228 188.713C282.208 188.683 282.196 188.649 282.19 188.614C282.183 188.579 282.184 188.543 282.192 188.508C282.2 188.473 282.215 188.44 282.235 188.411C282.256 188.382 282.282 188.357 282.312 188.338C282.342 188.319 282.376 188.306 282.411 188.3C282.446 188.294 282.482 188.295 282.517 188.303L295.313 191.179C295.348 191.187 295.381 191.202 295.41 191.222C295.439 191.243 295.464 191.269 295.483 191.299C295.502 191.33 295.515 191.363 295.521 191.399C295.527 191.434 295.526 191.47 295.518 191.505L295.517 191.51Z" fill="#0C0C0C"/>
</g>
<g opacity="0.2">
<path d="M294.405 197.189C294.388 197.258 294.345 197.318 294.284 197.355C294.223 197.392 294.149 197.404 294.08 197.388L279.799 194.18C279.764 194.173 279.731 194.158 279.702 194.137C279.673 194.117 279.648 194.09 279.629 194.06C279.61 194.03 279.597 193.996 279.591 193.961C279.585 193.926 279.586 193.89 279.594 193.855C279.612 193.786 279.656 193.726 279.716 193.688C279.777 193.65 279.849 193.636 279.919 193.65L294.2 196.857C294.235 196.865 294.268 196.879 294.297 196.9C294.327 196.921 294.352 196.947 294.371 196.977C294.39 197.007 294.403 197.041 294.409 197.076C294.415 197.112 294.413 197.148 294.405 197.183V197.189Z" fill="#0C0C0C"/>
</g>
<g opacity="0.2">
<path d="M293.237 203.346C293.22 203.415 293.177 203.474 293.116 203.512C293.056 203.549 292.983 203.561 292.914 203.545L281.523 200.987C281.452 200.971 281.391 200.928 281.353 200.867C281.314 200.807 281.301 200.733 281.317 200.663C281.333 200.592 281.376 200.531 281.437 200.493C281.498 200.454 281.571 200.442 281.641 200.457L293.033 203.016C293.068 203.023 293.101 203.038 293.13 203.059C293.16 203.079 293.185 203.105 293.204 203.136C293.223 203.166 293.236 203.2 293.242 203.235C293.248 203.27 293.247 203.306 293.239 203.341L293.237 203.346Z" fill="#0C0C0C"/>
</g>
<path d="M242.778 112.995L251.04 96.3445C251.222 95.9786 251.477 95.6546 251.791 95.393C252.105 95.1314 252.469 94.9379 252.862 94.825C253.254 94.7121 253.666 94.6821 254.071 94.737C254.475 94.792 254.864 94.9306 255.212 95.144C255.843 95.5578 256.298 96.1911 256.489 96.9212C256.679 97.6513 256.592 98.4262 256.243 99.0955L254.472 102.666L265.195 93.9973C266.37 93.0123 268.443 92.5558 269.46 93.9474C269.887 94.4573 270.128 95.0967 270.144 95.7613C270.161 96.4259 269.952 97.0764 269.551 97.6068C269.563 97.6156 269.574 97.6256 269.584 97.6367C269.59 97.6462 269.595 97.6562 269.6 97.6665L271.413 96.147C271.749 95.8659 272.143 95.6633 272.567 95.5539C272.991 95.4446 273.434 95.4313 273.864 95.5149C274.294 95.5986 274.7 95.7771 275.052 96.0375C275.405 96.2979 275.694 96.6336 275.9 97.0202C276.212 97.6354 276.304 98.3392 276.159 99.0138C276.015 99.6884 275.643 100.293 275.106 100.726L274.335 101.373C274.343 101.404 274.346 101.436 274.343 101.468C274.965 101.152 275.68 101.068 276.358 101.231C277.037 101.394 277.635 101.792 278.047 102.356C278.479 102.986 278.658 103.756 278.547 104.512C278.436 105.268 278.045 105.955 277.45 106.435L275.534 108.039C275.577 108.036 275.62 108.042 275.66 108.059C275.7 108.075 275.736 108.101 275.764 108.134C275.795 108.175 275.814 108.224 275.818 108.275C276.451 108.148 277.107 108.232 277.688 108.515C278.268 108.797 278.739 109.262 279.028 109.839C279.32 110.451 279.397 111.143 279.247 111.804C279.097 112.464 278.727 113.055 278.2 113.48L262.033 127.023C259.771 128.917 256.995 130.093 254.061 130.4C251.127 130.707 248.168 130.13 245.563 128.744C243.318 127.549 241.627 125.525 240.85 123.103C240.072 120.681 240.269 118.052 241.4 115.773L242.778 112.995Z" fill="#E98862"/>
<g opacity="0.2">
<path d="M258.978 106.24C259.024 106.294 259.089 106.329 259.16 106.335C259.232 106.342 259.302 106.32 259.358 106.275L269.546 98.016C269.602 97.9707 269.638 97.905 269.645 97.8334C269.653 97.7618 269.631 97.6902 269.586 97.6342C269.541 97.5783 269.475 97.5427 269.403 97.5352C269.332 97.5277 269.26 97.549 269.204 97.5943L259.016 105.853C258.96 105.899 258.925 105.964 258.918 106.035C258.91 106.106 258.931 106.177 258.976 106.233L258.978 106.24Z" fill="#0C0C0C"/>
</g>
<g opacity="0.2">
<path d="M262.497 110.834C262.543 110.889 262.608 110.923 262.679 110.93C262.75 110.936 262.821 110.914 262.876 110.869L274.247 101.652C274.302 101.607 274.337 101.542 274.345 101.47C274.352 101.399 274.331 101.328 274.287 101.272C274.24 101.219 274.175 101.185 274.104 101.178C274.034 101.17 273.963 101.19 273.907 101.232L262.532 110.447C262.477 110.493 262.442 110.558 262.434 110.629C262.427 110.7 262.447 110.771 262.492 110.827L262.497 110.834Z" fill="#0C0C0C"/>
</g>
<g opacity="0.2">
<path d="M266.278 115.832C266.324 115.886 266.389 115.921 266.46 115.927C266.532 115.934 266.602 115.912 266.658 115.867L275.728 108.515C275.784 108.469 275.819 108.404 275.827 108.332C275.834 108.261 275.813 108.189 275.768 108.133C275.722 108.077 275.657 108.041 275.585 108.034C275.513 108.026 275.442 108.048 275.386 108.093L266.314 115.445C266.258 115.49 266.223 115.556 266.215 115.627C266.208 115.698 266.229 115.769 266.273 115.825L266.278 115.832Z" fill="#0C0C0C"/>
</g>
<path d="M57.363 98.7188C57.363 98.7188 56.1978 116.202 52.2649 122.544C40.9412 140.805 37.6606 161.348 49.0001 172.081C60.3396 182.814 132.667 182.963 138.146 158.277C142.759 137.494 132.86 135.259 130.451 118.116C129.361 110.359 126.363 94.0923 126.363 94.0923" fill="#0A0A0A"/>
<path d="M119.427 154.658C119.303 154.641 117.917 177.631 91.2108 175.627C72.7224 174.241 66.1303 154.624 65.707 154.624C67.7003 154.2 71.0569 153.584 71.942 153.111C74.8535 151.547 78.4543 149.919 79.3942 144.265C79.9369 141.009 79.017 124.336 79.2998 121.037L107.679 127.374C107.283 134.337 104.507 150.48 114.235 153.337C115.853 153.81 117.597 154.245 119.427 154.658Z" fill="#E98862"/>
<path opacity="0.5" d="M108.077 146.74C107.633 145.308 107.346 143.831 107.223 142.336C106.912 138.924 106.974 135.489 107.409 132.091C101.641 131.312 96.2075 128.932 91.7253 125.219C91.1983 127.165 88.2998 135.669 89.1024 137.519C90.6182 141.015 97.7453 146.74 108.077 146.74Z" fill="#0C0C0C"/>
<path d="M104.407 139.578C93.2181 140.664 78.7413 136.185 75.7424 121.284L73.0366 107.839C70.0377 92.9384 75.4326 79.2839 89.4616 76.4601C103.491 73.6381 116.408 83.6049 119.407 98.5061L120.606 104.459C121.756 110.176 124.37 137.646 104.407 139.578Z" fill="#E98862"/>
<path opacity="0.1" d="M97.2945 120.052C99.1358 119.832 100.498 118.559 100.337 117.209C100.176 115.858 98.5522 114.941 96.7109 115.161C94.8696 115.381 93.5076 116.654 93.6687 118.004C93.8299 119.355 95.4532 120.272 97.2945 120.052Z" fill="#0C0C0C"/>
<path opacity="0.1" d="M116.751 114.652C116.914 116.001 118.539 116.916 120.38 116.699C120.699 116.661 121.012 116.59 121.316 116.487C121.401 114.879 121.406 113.332 121.36 111.9C120.848 111.772 120.317 111.741 119.794 111.808C117.953 112.026 116.591 113.298 116.751 114.652Z" fill="#0C0C0C"/>
<path opacity="0.5" d="M108.615 118.821C108.624 118.82 108.633 118.818 108.642 118.816C109.21 118.698 109.772 118.548 110.324 118.368C111.148 118.092 112.224 117.639 112.076 116.894C111.906 116.045 107.734 107.353 107.261 106.366C107.242 106.321 107.214 106.281 107.178 106.247C107.143 106.214 107.101 106.188 107.056 106.171C107.01 106.154 106.962 106.147 106.913 106.149C106.865 106.151 106.817 106.163 106.773 106.184C106.73 106.205 106.69 106.235 106.658 106.271C106.626 106.308 106.602 106.35 106.587 106.396C106.571 106.442 106.566 106.491 106.57 106.54C106.574 106.588 106.587 106.635 106.61 106.678C108.388 110.38 111.253 116.467 111.368 117.038C111.278 117.304 109.911 117.825 108.501 118.109C108.454 118.117 108.409 118.134 108.369 118.158C108.328 118.183 108.293 118.216 108.266 118.254C108.238 118.293 108.218 118.336 108.207 118.382C108.196 118.429 108.194 118.476 108.202 118.523C108.21 118.57 108.226 118.615 108.251 118.655C108.276 118.695 108.309 118.73 108.347 118.758C108.385 118.786 108.429 118.806 108.475 118.817C108.521 118.828 108.569 118.829 108.616 118.822L108.615 118.821Z" fill="#0C0C0C"/>
<path d="M61.8427 112.666L74.4201 110.21C83.9209 106.236 86.6165 89.6778 86.6165 89.6778C86.6165 89.6778 98.3419 100.845 126.365 94.0922C126.365 94.0922 120.278 54.9705 78.8989 66.8482C65.5569 70.677 56.1059 84.2773 57.5115 102.291C58.4965 114.911 61.8427 112.666 61.8427 112.666Z" fill="#0A0A0A"/>
<path d="M77.5269 125.649C73.2635 126.507 68.8894 122.641 68.0298 118.376C67.1702 114.112 70.155 111.066 74.4183 110.207L77.1904 112.623L81.1917 124.91L77.5269 125.649Z" fill="#E98862"/>
<path d="M110.284 99.4336C111.351 98.6793 112.598 98.2209 113.9 98.105C114.554 98.0423 115.213 98.0789 115.856 98.2136C116.505 98.3457 117.134 98.5587 117.729 98.8475L117.747 98.8561C117.813 98.8853 117.888 98.8874 117.956 98.8621C118.023 98.8369 118.078 98.7862 118.109 98.7209C118.14 98.6557 118.144 98.581 118.12 98.5129C118.096 98.4447 118.047 98.3885 117.982 98.3563C117.352 98.0233 116.681 97.7709 115.988 97.6052C115.289 97.4353 114.569 97.3715 113.851 97.4158C112.397 97.4961 110.992 97.9646 109.781 98.7726C109.736 98.8031 109.697 98.8423 109.667 98.8879C109.637 98.9334 109.616 98.9845 109.606 99.038C109.596 99.0916 109.596 99.1467 109.607 99.2001C109.618 99.2535 109.64 99.3042 109.671 99.3492C109.701 99.3943 109.741 99.4329 109.786 99.4628C109.832 99.4926 109.883 99.5132 109.936 99.5233C109.99 99.5334 110.045 99.5329 110.098 99.5217C110.152 99.5104 110.202 99.4888 110.247 99.458L110.257 99.4515L110.284 99.4336Z" fill="#0C0C0C"/>
<path d="M98.7945 101.022C97.3663 100.737 95.8879 100.842 94.5138 101.324C93.8345 101.558 93.1943 101.892 92.6144 102.316C92.0367 102.735 91.5142 103.225 91.059 103.774C91.0131 103.829 90.99 103.899 90.9947 103.97C90.9995 104.042 91.0316 104.108 91.0844 104.156C91.1371 104.204 91.2065 104.23 91.2778 104.228C91.3492 104.226 91.417 104.197 91.4671 104.146L91.4818 104.131C91.9209 103.636 92.4205 103.198 92.9687 102.828C93.5113 102.458 94.1067 102.172 94.7347 101.98C95.9811 101.588 97.3091 101.534 98.5834 101.823L98.6149 101.831C98.7218 101.857 98.8347 101.839 98.9286 101.782C99.0226 101.724 99.0899 101.632 99.1158 101.525C99.1417 101.418 99.1241 101.305 99.0668 101.211C99.0095 101.118 98.9172 101.05 98.8103 101.024L98.7945 101.022Z" fill="#0C0C0C"/>
<path d="M74.428 110.002C82.8825 106.855 85.6883 101.016 86.5522 96.6712C87.1114 93.7735 87.0591 90.7909 86.3986 87.9146L86.1371 87.9868C86.7876 90.8256 86.8379 93.769 86.2847 96.6283C85.4316 100.902 82.666 106.647 74.333 109.749L74.428 110.002Z" fill="#0C0C0C"/>
<path d="M141.177 157.392L221.456 184.228L197.886 194.705L237.916 112.582L270.631 127.829L233.49 211.297C231.612 215.518 228.278 218.922 224.097 220.888C219.916 222.853 215.167 223.248 210.719 222.001L209.92 221.775L128.427 198.894L141.177 157.392Z" fill="#A0BA3B"/>
<path d="M90.7125 169.879C72.2112 169.007 71.4324 153.303 71.4324 153.303C71.4324 153.303 62.2653 153.896 56.1714 154.72C46.1946 156.07 39.6129 159.453 34.3748 164.691C29.5025 169.564 26.5362 174.836 29.6751 208.494C31.9479 232.865 30.3486 286.47 30.3486 286.47H143.092C143.092 286.47 150.965 209.025 151.899 198.056C153.68 177.114 158.712 172.49 148.516 161.702C141.122 153.879 122.033 153.303 114.349 153.305C114.224 153.305 115.909 171.067 90.7125 169.879Z" fill="#A0BA3B"/>
<path d="M112.365 121.758C108.73 123.607 104.582 124.191 100.578 123.419C100.439 123.393 100.296 123.407 100.165 123.46C100.034 123.512 99.9205 123.6 99.8379 123.715C99.7554 123.829 99.707 123.965 99.6986 124.105C99.6902 124.246 99.722 124.387 99.7903 124.51C100.984 126.614 103.816 130.208 108.674 128.743C111.811 127.797 112.997 124.57 113.436 122.573C113.466 122.435 113.456 122.291 113.407 122.159C113.359 122.026 113.273 121.91 113.16 121.824C113.048 121.739 112.913 121.687 112.773 121.675C112.632 121.664 112.491 121.692 112.365 121.758Z" fill="white"/>
<path d="M112.593 105.59C113.563 105.59 114.349 104.803 114.349 103.833C114.349 102.863 113.563 102.076 112.593 102.076C111.622 102.076 110.836 102.863 110.836 103.833C110.836 104.803 111.622 105.59 112.593 105.59Z" fill="#0C0C0C"/>
<path d="M95.7137 108.545C96.6839 108.545 97.4704 107.758 97.4704 106.788C97.4704 105.818 96.6839 105.031 95.7137 105.031C94.7435 105.031 93.957 105.818 93.957 106.788C93.957 107.758 94.7435 108.545 95.7137 108.545Z" fill="#0C0C0C"/>
<path d="M151.648 205.687C151.636 205.688 151.625 205.688 151.614 205.687C151.542 205.678 151.477 205.641 151.433 205.584C151.389 205.528 151.369 205.456 151.378 205.385L153.124 191.232C153.128 191.196 153.138 191.162 153.156 191.13C153.173 191.099 153.197 191.072 153.225 191.05C153.253 191.028 153.285 191.012 153.32 191.002C153.355 190.993 153.391 190.991 153.426 190.996C153.462 191.001 153.496 191.012 153.527 191.03C153.558 191.047 153.585 191.071 153.607 191.099C153.629 191.127 153.645 191.159 153.654 191.193C153.664 191.228 153.667 191.264 153.662 191.299L151.916 205.451C151.908 205.516 151.876 205.576 151.826 205.62C151.777 205.663 151.713 205.687 151.648 205.687Z" fill="#0C0C0C"/>
<path d="M437.029 96.4818C437.029 96.4818 430.304 88.9289 431.083 74.7843C431.687 63.8324 440.135 72.6894 440.135 72.6894C440.135 72.6894 440.647 64.8077 446.087 66.6843C451.527 68.561 453.054 77.252 453.054 77.252" fill="#0C0C0C"/>
<path d="M474.825 73.3466C474.825 73.3466 501.989 81.8558 484.458 117.469L481.969 117.143L476.917 116.484" fill="#0C0C0C"/>
<path d="M436.183 154.6C436.307 154.584 437.688 177.497 464.306 175.5C482.733 174.119 489.303 154.568 489.725 154.568C487.739 154.145 484.393 153.531 483.511 153.06C480.609 151.501 477.019 149.879 476.083 144.244C475.544 140.996 476.459 124.381 476.178 121.094L447.892 127.408C448.287 134.348 451.053 150.437 441.358 153.284C439.745 153.756 438.006 154.189 436.183 154.6Z" fill="#E98862"/>
<path opacity="0.52" d="M447.495 146.71C447.938 145.281 448.223 143.809 448.346 142.319C448.657 138.919 448.595 135.495 448.161 132.108C453.91 131.332 459.326 128.959 463.794 125.259C464.319 127.199 467.208 135.675 466.408 137.518C464.896 141.003 457.792 146.71 447.495 146.71Z" fill="#0C0C0C"/>
<path d="M450.887 138.95C462.026 140.15 476.502 135.846 479.653 121.027L482.495 107.657C485.643 92.8407 480.416 79.1715 466.464 76.2056C452.513 73.2397 439.531 83.0356 436.381 97.8537L435.123 103.773C434.726 105.813 434.469 107.878 434.353 109.952C434.007 115.434 433.501 123.772 436.03 129.985C438.418 135.851 443.77 138.183 450.887 138.95Z" fill="#E98862"/>
<path d="M442.039 104.812C443.009 104.812 443.796 104.026 443.796 103.056C443.796 102.085 443.009 101.299 442.039 101.299C441.069 101.299 440.282 102.085 440.282 103.056C440.282 104.026 441.069 104.812 442.039 104.812Z" fill="#0C0C0C"/>
<path d="M458.723 106.569C459.694 106.569 460.48 105.783 460.48 104.812C460.48 103.842 459.694 103.056 458.723 103.056C457.753 103.056 456.967 103.842 456.967 104.812C456.967 105.783 457.753 106.569 458.723 106.569Z" fill="#0C0C0C"/>
<path d="M477.827 125.358C482.067 126.259 486.468 122.454 487.37 118.213C488.271 113.973 485.331 110.905 481.091 110.003L478.302 112.38L474.182 124.583L477.827 125.358Z" fill="#E98862"/>
<path d="M474.962 117.684C474.962 117.684 477.717 96.3771 471.601 93.8084C467.531 92.0978 456.034 96.0672 446.861 92.348C442.848 90.7199 438.682 90.9641 437.887 92.8543C437.571 93.6027 437.208 81.8726 445.437 74.6654C451.988 68.9268 469.39 70.4068 476.691 74.1721C496.906 84.597 481.785 111.104 481.785 111.104L479.385 118.159L474.962 117.684Z" fill="#0C0C0C"/>
<g opacity="0.52">
<path d="M446.609 119.209L446.581 119.205C445.214 118.917 442.953 118.282 443.166 117.261C443.345 116.414 447.583 107.753 448.067 106.769C448.108 106.684 448.182 106.619 448.271 106.589C448.36 106.558 448.458 106.565 448.543 106.606C448.628 106.648 448.692 106.721 448.723 106.81C448.753 106.9 448.747 106.997 448.706 107.082C446.825 110.917 443.984 116.831 443.863 117.407C443.947 117.678 445.312 118.211 446.726 118.508C446.815 118.528 446.893 118.581 446.944 118.656C446.995 118.732 447.015 118.824 447 118.914C446.985 119.004 446.936 119.085 446.863 119.139C446.79 119.194 446.699 119.219 446.609 119.209Z" fill="#0C0C0C"/>
</g>
<path d="M446.293 97.5602C444.95 96.8824 443.449 96.5792 441.948 96.6826C441.21 96.729 440.484 96.8858 439.793 97.1477C439.109 97.4036 438.46 97.745 437.862 98.1637C437.762 98.2273 437.691 98.3278 437.665 98.4433C437.638 98.5589 437.658 98.6803 437.72 98.7813C437.782 98.8823 437.882 98.9547 437.997 98.9831C438.112 99.0114 438.234 98.9933 438.336 98.9327L438.367 98.9148C438.916 98.5746 439.505 98.3047 440.121 98.1116C440.728 97.9175 441.36 97.8167 441.998 97.8125C443.257 97.794 444.499 98.1088 445.598 98.7248L445.639 98.7492C445.716 98.7951 445.801 98.8252 445.89 98.838C445.979 98.8507 446.069 98.8458 446.156 98.8235C446.242 98.8013 446.324 98.762 446.395 98.7081C446.467 98.6542 446.527 98.5867 446.572 98.5095C446.618 98.4323 446.647 98.3468 446.659 98.2581C446.671 98.1694 446.666 98.0792 446.643 97.9926C446.62 97.906 446.58 97.8248 446.526 97.7537C446.472 97.6825 446.404 97.6229 446.326 97.5781L446.293 97.5602Z" fill="#0C0C0C"/>
<path d="M456.338 100.275C457.558 99.9623 458.839 99.9771 460.052 100.318C460.666 100.486 461.252 100.746 461.789 101.089C462.334 101.435 462.834 101.847 463.277 102.316L463.301 102.341C463.385 102.422 463.497 102.468 463.613 102.468C463.73 102.469 463.842 102.425 463.927 102.345C464.011 102.265 464.062 102.155 464.067 102.039C464.073 101.922 464.034 101.808 463.957 101.72C463.487 101.162 462.948 100.665 462.353 100.242C461.752 99.8119 461.09 99.4738 460.39 99.2393C458.966 98.753 457.438 98.6593 455.965 98.9679C455.878 98.9869 455.795 99.0229 455.722 99.0738C455.649 99.1247 455.586 99.1895 455.538 99.2645C455.441 99.4161 455.408 99.6001 455.446 99.776C455.485 99.952 455.591 100.106 455.743 100.203C455.894 100.3 456.078 100.333 456.254 100.295L456.289 100.286L456.338 100.275Z" fill="#0C0C0C"/>
<path d="M444.459 122.496C448.416 123.485 452.589 123.126 456.319 121.478C456.449 121.422 456.591 121.403 456.731 121.425C456.87 121.447 457 121.507 457.106 121.6C457.212 121.693 457.29 121.815 457.33 121.95C457.369 122.085 457.37 122.229 457.331 122.365C456.637 124.683 454.683 128.823 449.62 128.48C446.351 128.26 444.473 125.379 443.596 123.532C443.535 123.404 443.512 123.261 443.53 123.121C443.548 122.98 443.606 122.847 443.697 122.738C443.787 122.629 443.907 122.549 444.042 122.506C444.177 122.463 444.322 122.459 444.459 122.496Z" fill="white"/>
<path d="M460.16 77.7012C462.05 73.263 461.139 68.6237 458.123 67.3392C455.108 66.0547 451.131 68.6113 449.241 73.0495C447.35 77.4877 448.262 82.1269 451.277 83.4114C454.292 84.696 458.269 82.1394 460.16 77.7012Z" fill="#0C0C0C"/>
<path d="M464.72 169.879C483.221 169.007 484 153.303 484 153.303C484 153.303 493.167 153.896 499.261 154.72C509.238 156.07 515.82 159.453 521.057 164.691C525.93 169.564 528.896 174.836 525.757 208.494C523.484 232.865 525.084 286.47 525.084 286.47H412.34C412.34 286.47 404.467 209.027 403.534 198.056C401.752 177.114 396.72 172.49 406.916 161.702C414.31 153.879 433.399 153.303 441.083 153.305C441.207 153.305 439.525 171.067 464.72 169.879Z" fill="#A0BA3B"/>
<path d="M403.268 166.553L374.118 228.352L316.634 185.122L293.802 215.484L369.92 272.727C370.601 273.233 371.313 273.697 372.051 274.117C374.225 275.335 376.619 276.113 379.095 276.407C381.571 276.7 384.08 276.503 386.479 275.827C388.879 275.151 391.122 274.008 393.08 272.465C395.038 270.922 396.673 269.008 397.891 266.833L398.221 266.246L442.693 186.864L403.268 166.553Z" fill="#A0BA3B"/>
<path d="M529.41 287.012H15.9802C15.8363 287.012 15.6982 286.955 15.5965 286.853C15.4947 286.752 15.4375 286.614 15.4375 286.47C15.4375 286.326 15.4947 286.188 15.5965 286.086C15.6982 285.984 15.8363 285.927 15.9802 285.927H529.41C529.554 285.927 529.692 285.984 529.794 286.086C529.895 286.188 529.953 286.326 529.953 286.47C529.953 286.614 529.895 286.752 529.794 286.853C529.692 286.955 529.554 287.012 529.41 287.012Z" fill="#292A2E"/>
<path d="M417.735 205.747H142.798V299.728H417.735V205.747Z" fill="white"/>
<path d="M418.006 300H142.526V205.475H418.006V300ZM143.069 299.457H417.463V206.018H143.069V299.457Z" fill="#0C0C0C"/>
<path d="M129.222 234.469L146.194 226.889C146.567 226.722 146.971 226.635 147.379 226.633C147.787 226.631 148.192 226.715 148.566 226.877C148.941 227.04 149.277 227.279 149.554 227.579C149.832 227.879 150.043 228.234 150.176 228.62C150.399 229.341 150.346 230.119 150.028 230.803C149.709 231.487 149.149 232.028 148.454 232.322L144.815 233.95L158.605 234.092C160.138 234.081 162.027 235.049 161.926 236.769C161.931 237.434 161.709 238.081 161.299 238.604C160.889 239.127 160.313 239.496 159.666 239.65C159.67 239.664 159.672 239.679 159.673 239.694C159.671 239.705 159.669 239.716 159.666 239.727L162.031 239.71C162.468 239.707 162.901 239.802 163.298 239.987C163.694 240.173 164.044 240.445 164.322 240.783C164.601 241.12 164.8 241.516 164.906 241.941C165.012 242.365 165.022 242.808 164.935 243.237C164.784 243.911 164.407 244.512 163.866 244.94C163.325 245.368 162.653 245.598 161.964 245.59L160.957 245.597C160.944 245.626 160.926 245.653 160.903 245.676C161.584 245.829 162.188 246.219 162.608 246.777C163.028 247.334 163.235 248.023 163.194 248.719C163.126 249.481 162.775 250.188 162.208 250.701C161.642 251.214 160.903 251.495 160.139 251.487L157.639 251.505C157.674 251.53 157.703 251.562 157.724 251.6C157.744 251.637 157.755 251.679 157.757 251.722C157.754 251.773 157.737 251.823 157.708 251.865C158.276 252.17 158.729 252.653 158.997 253.24C159.264 253.827 159.331 254.486 159.188 255.115C159.023 255.772 158.642 256.355 158.106 256.768C157.569 257.182 156.909 257.402 156.231 257.394L135.142 257.544C132.192 257.565 129.303 256.705 126.845 255.073C124.387 253.442 122.473 251.113 121.346 248.387C120.375 246.035 120.359 243.398 121.302 241.035C122.244 238.672 124.071 236.77 126.393 235.732L129.222 234.469Z" fill="#E98862"/>
<g opacity="0.2">
<path d="M146.016 239.574C146.017 239.645 146.046 239.714 146.096 239.764C146.147 239.814 146.216 239.842 146.287 239.842L159.402 239.96C159.474 239.96 159.543 239.932 159.594 239.882C159.646 239.831 159.675 239.763 159.675 239.691C159.676 239.619 159.648 239.549 159.598 239.498C159.547 239.447 159.478 239.417 159.406 239.417L146.292 239.298C146.22 239.298 146.151 239.327 146.1 239.378C146.049 239.429 146.021 239.498 146.021 239.57L146.016 239.574Z" fill="#0C0C0C"/>
</g>
<g opacity="0.2">
<path d="M145.803 245.359C145.804 245.43 145.834 245.498 145.884 245.548C145.935 245.598 146.004 245.626 146.075 245.626L160.711 245.758C160.783 245.758 160.852 245.73 160.903 245.679C160.953 245.628 160.982 245.559 160.982 245.487C160.98 245.416 160.95 245.348 160.9 245.298C160.849 245.247 160.782 245.218 160.711 245.216L146.075 245.084C146.039 245.083 146.003 245.09 145.97 245.104C145.937 245.117 145.907 245.137 145.881 245.162C145.856 245.188 145.836 245.218 145.822 245.251C145.808 245.284 145.801 245.319 145.801 245.355L145.803 245.359Z" fill="#0C0C0C"/>
</g>
<g opacity="0.2">
<path d="M145.538 251.619C145.539 251.69 145.568 251.758 145.619 251.808C145.67 251.858 145.738 251.886 145.809 251.886L157.484 251.991C157.556 251.992 157.626 251.964 157.677 251.914C157.728 251.863 157.757 251.794 157.758 251.722C157.759 251.651 157.731 251.581 157.68 251.53C157.63 251.479 157.561 251.449 157.489 251.449L145.814 251.343C145.742 251.343 145.673 251.372 145.622 251.423C145.572 251.474 145.543 251.543 145.543 251.615L145.538 251.619Z" fill="#0C0C0C"/>
</g>
<path d="M134.08 264.689L39.9845 286.08C36.8586 286.42 33.6964 286.031 30.746 284.944C27.7955 283.857 25.1372 282.1 22.9795 279.813C20.8217 277.526 19.2233 274.77 18.3097 271.761C17.396 268.752 17.192 265.573 17.7136 262.472L28.4816 175.855C29.3771 170.532 32.3504 165.783 36.7473 162.653C41.1442 159.522 46.6046 158.267 51.9272 159.162C57.2498 160.058 61.9987 163.031 65.1291 167.428C68.2595 171.825 69.515 177.286 68.6195 182.609L63.4341 244.605L128.809 229.81L134.08 264.689Z" fill="#A0BA3B"/>
<path d="M50.2047 247.041C50.1365 247.041 50.0711 247.015 50.0214 246.968C49.9716 246.921 49.9413 246.858 49.9363 246.79C49.9313 246.722 49.952 246.655 49.9944 246.601C50.0368 246.548 50.0977 246.512 50.165 246.502L63.277 243.702C63.3122 243.696 63.3483 243.698 63.383 243.706C63.4178 243.714 63.4505 243.73 63.4792 243.751C63.5079 243.772 63.5321 243.799 63.5503 243.83C63.5685 243.861 63.5804 243.895 63.5852 243.93C63.5958 244.001 63.5777 244.073 63.535 244.131C63.4923 244.189 63.4284 244.228 63.3573 244.238L50.2454 247.038C50.2319 247.04 50.2183 247.041 50.2047 247.041Z" fill="#0C0C0C"/>
<path d="M42.8071 286.47C42.7352 286.474 42.6643 286.45 42.6101 286.403C42.5559 286.355 42.5228 286.288 42.5182 286.216C42.5135 286.144 42.5376 286.073 42.5852 286.019C42.6327 285.965 42.6999 285.932 42.7719 285.927L133.489 264.56L128.349 230.206L63.3642 244.236C63.3222 244.241 63.2795 244.236 63.2395 244.222C63.1995 244.208 63.1633 244.185 63.1336 244.155C63.104 244.125 63.082 244.088 63.0693 244.047C63.0567 244.006 63.0538 243.963 63.0609 243.921L66.7061 208.499C66.7116 208.463 66.724 208.429 66.7428 208.399C66.7616 208.368 66.7863 208.342 66.8154 208.321C66.8445 208.301 66.8776 208.286 66.9125 208.278C66.9474 208.27 66.9835 208.27 67.0187 208.276C67.0897 208.288 67.153 208.328 67.1947 208.386C67.2364 208.445 67.2531 208.518 67.2412 208.589L63.6595 243.648L128.475 229.608C128.51 229.598 128.546 229.596 128.582 229.6C128.618 229.605 128.653 229.617 128.684 229.635C128.715 229.653 128.742 229.678 128.764 229.707C128.786 229.736 128.802 229.769 128.81 229.804L134.082 264.685C134.098 264.754 134.088 264.826 134.052 264.887C134.016 264.948 133.958 264.992 133.89 265.011L42.8424 286.468C42.8307 286.469 42.8189 286.47 42.8071 286.47Z" fill="#0C0C0C"/>
<path d="M426.21 250.75L409.238 243.17C408.865 243.004 408.462 242.917 408.053 242.915C407.645 242.913 407.241 242.996 406.866 243.159C406.492 243.322 406.155 243.561 405.878 243.861C405.601 244.161 405.39 244.515 405.257 244.901C405.034 245.622 405.087 246.4 405.405 247.084C405.723 247.768 406.284 248.309 406.979 248.603L410.618 250.231L396.827 250.374C395.294 250.362 393.405 251.33 393.507 253.051C393.502 253.716 393.723 254.362 394.133 254.886C394.544 255.409 395.12 255.777 395.766 255.931C395.762 255.945 395.76 255.96 395.759 255.975C395.761 255.986 395.763 255.997 395.766 256.008L393.402 255.991C392.964 255.988 392.531 256.083 392.135 256.269C391.738 256.454 391.388 256.726 391.11 257.064C390.832 257.402 390.632 257.797 390.526 258.222C390.42 258.647 390.41 259.09 390.497 259.519C390.648 260.192 391.025 260.793 391.566 261.221C392.107 261.649 392.779 261.879 393.469 261.871L394.475 261.878C394.489 261.908 394.507 261.934 394.53 261.957C393.849 262.11 393.244 262.5 392.825 263.058C392.405 263.615 392.197 264.304 392.239 265.001C392.306 265.762 392.658 266.47 393.225 266.983C393.791 267.496 394.53 267.776 395.294 267.769L397.794 267.786C397.759 267.811 397.73 267.843 397.709 267.881C397.689 267.919 397.678 267.961 397.677 268.004C397.678 268.055 397.695 268.104 397.725 268.146C397.156 268.451 396.704 268.934 396.436 269.521C396.169 270.108 396.102 270.767 396.245 271.396C396.409 272.053 396.791 272.636 397.327 273.05C397.864 273.463 398.525 273.684 399.202 273.675L420.291 273.826C423.241 273.847 426.131 272.986 428.589 271.354C431.046 269.722 432.961 267.394 434.087 264.666C435.058 262.315 435.074 259.678 434.131 257.315C433.189 254.952 431.362 253.05 429.04 252.012L426.21 250.75Z" fill="#E98862"/>
<g opacity="0.2">
<path d="M409.417 255.855C409.416 255.927 409.387 255.995 409.336 256.045C409.285 256.095 409.217 256.123 409.145 256.123L396.031 256.241C395.995 256.241 395.96 256.234 395.927 256.221C395.894 256.208 395.863 256.188 395.838 256.163C395.813 256.138 395.792 256.108 395.778 256.076C395.765 256.043 395.757 256.008 395.757 255.972C395.757 255.936 395.763 255.901 395.777 255.868C395.79 255.835 395.81 255.805 395.835 255.779C395.86 255.754 395.889 255.734 395.922 255.72C395.955 255.706 395.99 255.698 396.026 255.698L409.14 255.58C409.212 255.58 409.281 255.608 409.332 255.659C409.383 255.71 409.412 255.779 409.412 255.851L409.417 255.855Z" fill="#0C0C0C"/>
</g>
<g opacity="0.2">
<path d="M409.628 261.64C409.627 261.711 409.599 261.779 409.549 261.829C409.498 261.879 409.431 261.907 409.36 261.908L394.723 262.04C394.652 262.04 394.583 262.011 394.532 261.96C394.481 261.909 394.452 261.84 394.452 261.768C394.454 261.697 394.484 261.629 394.534 261.579C394.585 261.529 394.652 261.499 394.723 261.497L409.359 261.365C409.431 261.365 409.5 261.394 409.551 261.445C409.602 261.495 409.631 261.564 409.631 261.636L409.628 261.64Z" fill="#0C0C0C"/>
</g>
<g opacity="0.2">
<path d="M409.894 267.9C409.893 267.971 409.864 268.039 409.813 268.089C409.762 268.139 409.694 268.167 409.623 268.167L397.948 268.273C397.912 268.273 397.877 268.266 397.844 268.253C397.811 268.24 397.78 268.22 397.755 268.195C397.73 268.17 397.709 268.14 397.695 268.107C397.682 268.075 397.674 268.039 397.674 268.004C397.674 267.968 397.68 267.933 397.694 267.9C397.707 267.867 397.727 267.837 397.752 267.811C397.777 267.786 397.806 267.765 397.839 267.752C397.872 267.738 397.907 267.73 397.943 267.73L409.618 267.625C409.69 267.625 409.759 267.653 409.81 267.704C409.86 267.755 409.889 267.824 409.889 267.896L409.894 267.9Z" fill="#0C0C0C"/>
</g>
<path d="M426.779 280.97L515.448 286.08C518.574 286.42 521.736 286.031 524.686 284.944C527.637 283.857 530.295 282.1 532.453 279.813C534.61 277.526 536.209 274.77 537.123 271.761C538.036 268.752 538.24 265.573 537.719 262.472L526.953 175.853C526.509 173.217 525.551 170.694 524.133 168.429C522.715 166.164 520.864 164.2 518.687 162.65C516.51 161.1 514.049 159.994 511.444 159.395C508.84 158.796 506.143 158.716 503.507 159.16C500.872 159.603 498.349 160.561 496.084 161.98C493.819 163.398 491.855 165.248 490.305 167.426C488.755 169.603 487.649 172.064 487.05 174.669C486.451 177.273 486.371 179.97 486.815 182.606L492 248.401L427.168 246.088L426.779 280.97Z" fill="#A0BA3B"/>
<path d="M505.227 248.127C505.295 248.126 505.361 248.1 505.411 248.054C505.461 248.007 505.491 247.944 505.496 247.876C505.501 247.808 505.481 247.74 505.438 247.687C505.396 247.633 505.335 247.598 505.267 247.587L492.156 247.501C492.12 247.495 492.084 247.497 492.049 247.505C492.015 247.513 491.982 247.529 491.953 247.55C491.924 247.571 491.9 247.598 491.882 247.629C491.864 247.659 491.852 247.694 491.847 247.729C491.836 247.8 491.854 247.873 491.897 247.93C491.94 247.988 492.004 248.027 492.075 248.037L505.187 248.123C505.2 248.126 505.214 248.127 505.227 248.127Z" fill="#0C0C0C"/>
<path d="M512.626 286.47C512.698 286.474 512.769 286.45 512.823 286.403C512.877 286.355 512.91 286.288 512.914 286.216C512.919 286.144 512.895 286.073 512.847 286.019C512.8 285.965 512.732 285.932 512.66 285.927L427.369 280.843L427.625 246.49L492.066 248.037C492.109 248.042 492.151 248.037 492.191 248.024C492.231 248.01 492.267 247.987 492.297 247.956C492.327 247.926 492.349 247.889 492.361 247.848C492.374 247.807 492.377 247.764 492.37 247.722L488.725 208.501C488.72 208.466 488.707 208.432 488.688 208.401C488.67 208.371 488.645 208.344 488.616 208.324C488.587 208.303 488.554 208.288 488.519 208.281C488.484 208.273 488.448 208.272 488.413 208.278C488.377 208.284 488.344 208.297 488.313 208.316C488.283 208.335 488.257 208.359 488.236 208.388C488.215 208.417 488.201 208.45 488.193 208.485C488.185 208.52 488.184 208.556 488.19 208.591L491.774 247.449L427.501 245.891C427.466 245.882 427.43 245.879 427.394 245.884C427.358 245.888 427.323 245.9 427.292 245.918C427.261 245.937 427.234 245.961 427.212 245.99C427.19 246.019 427.175 246.052 427.166 246.087L426.778 280.969C426.762 281.037 426.772 281.11 426.808 281.17C426.844 281.231 426.902 281.276 426.97 281.294L512.588 286.464C512.601 286.467 512.613 286.469 512.626 286.47Z" fill="#0C0C0C"/>
<path d="M207.98 267.239H200.773L196.731 251.558C196.581 251 196.326 249.846 195.966 248.097C195.605 246.348 195.398 245.174 195.343 244.575C195.261 245.31 195.057 246.491 194.73 248.118C194.403 249.744 194.151 250.905 193.975 251.599L189.953 267.239H182.766L175.15 237.39H181.378L185.196 253.683C185.863 256.691 186.346 259.298 186.645 261.503C186.727 260.727 186.914 259.526 187.207 257.899C187.5 256.273 187.776 255.01 188.034 254.112L192.382 237.39H198.364L202.713 254.112C202.903 254.861 203.142 256.004 203.428 257.542C203.714 259.079 203.931 260.4 204.079 261.503C204.215 260.442 204.432 259.118 204.73 257.532C205.028 255.946 205.3 254.663 205.544 253.684L209.343 237.39H215.57L207.98 267.239Z" fill="#065366"/>
<path d="M236.523 267.239H219.332V237.39H236.523V242.576H225.662V249.13H235.768V254.314H225.662V262.011H236.523V267.239Z" fill="#065366"/>
<path d="M242.75 267.239V237.39H249.079V262.014H261.186V267.24L242.75 267.239Z" fill="#065366"/>
<path d="M279.052 242.227C277.979 242.178 276.91 242.398 275.944 242.867C274.977 243.336 274.143 244.039 273.517 244.912C272.21 246.702 271.557 249.196 271.557 252.395C271.557 259.052 274.054 262.381 279.049 262.381C281.657 262.28 284.231 261.748 286.665 260.807V266.115C284.059 267.166 281.268 267.687 278.458 267.647C274.116 267.647 270.795 266.33 268.494 263.696C266.193 261.062 265.043 257.281 265.044 252.353C264.982 249.541 265.561 246.752 266.738 244.197C267.782 241.956 269.48 240.084 271.608 238.827C273.874 237.543 276.446 236.897 279.049 236.959C282.083 236.991 285.07 237.71 287.787 239.062L285.744 244.207C284.647 243.684 283.523 243.221 282.376 242.819C281.309 242.435 280.185 242.235 279.052 242.227Z" fill="#065366"/>
<path d="M320.11 252.272C320.11 257.213 318.885 261.011 316.434 263.666C313.984 266.32 310.473 267.647 305.899 267.647C301.326 267.647 297.815 266.32 295.365 263.666C292.914 261.011 291.689 257.2 291.689 252.232C291.689 247.263 292.918 243.469 295.375 240.849C297.832 238.229 301.353 236.919 305.94 236.918C310.527 236.918 314.035 238.239 316.465 240.88C318.896 243.521 320.11 247.319 320.11 252.272ZM298.325 252.272C298.325 255.607 298.958 258.119 300.224 259.806C301.491 261.494 303.382 262.338 305.9 262.338C310.95 262.338 313.475 258.983 313.475 252.272C313.475 245.548 310.963 242.186 305.94 242.186C303.423 242.186 301.523 243.034 300.242 244.728C298.961 246.423 298.322 248.938 298.325 252.272Z" fill="#065366"/>
<path d="M338.934 267.239L331.748 243.82H331.564C331.822 248.584 331.951 251.762 331.952 253.355V267.239H326.296V237.39H334.912L341.976 260.217H342.098L349.592 237.39H358.208V267.239H352.308V253.109C352.308 252.443 352.317 251.674 352.337 250.802C352.357 249.931 352.449 247.617 352.613 243.86H352.43L344.733 267.239H338.934Z" fill="#065366"/>
<path d="M382.912 267.239H365.72V237.39H382.911V242.576H372.05V249.13H382.157V254.314H372.05V262.011H382.912V267.239Z" fill="#065366"/>
</g>
<defs>
<clipPath id="clip0_4430_17325">
<rect width="538" height="300" fill="white"/>
</clipPath>
</defs>
</svg>
