<svg width="263" height="70" viewBox="0 0 263 70" fill="none" xmlns="http://www.w3.org/2000/svg">
<path d="M30.0242 10.2287C31.5045 9.26421 33.2332 8.7507 35 8.7507C36.7668 8.7507 38.4955 9.26421 39.9758 10.2287L63.3383 25.4537C63.5923 25.6194 63.801 25.8458 63.9454 26.1124C64.0898 26.379 64.1654 26.6774 64.1654 26.9806C64.1654 27.2838 64.0898 27.5823 63.9454 27.8489C63.801 28.1155 63.5923 28.3419 63.3383 28.5075L39.9758 43.7325C38.4955 44.697 36.7668 45.2105 35 45.2105C33.2332 45.2105 31.5045 44.697 30.0242 43.7325L9.47918 30.345V46.3021C9.47918 46.7855 9.28712 47.2492 8.94526 47.5911C8.60339 47.9329 8.13973 48.125 7.65626 48.125C7.17279 48.125 6.70913 47.9329 6.36726 47.5911C6.0254 47.2492 5.83334 46.7855 5.83334 46.3021V26.9792C5.83334 26.3185 6.18626 25.7367 6.71564 25.4187L30.0242 10.2287ZM16.0417 52.1354V38.1019L28.4317 46.1752C30.3857 47.4485 32.6677 48.1264 35 48.1264C37.3323 48.1264 39.6143 47.4485 41.5683 46.1752L53.9583 38.1019V52.1354C53.9583 52.2521 53.9559 52.3678 53.951 52.4825C53.9337 52.9469 53.7397 53.3872 53.4086 53.7133C48.5031 58.5499 41.8888 61.2579 35 61.25C28.1112 61.2579 21.4969 58.5499 16.5915 53.7133C16.2598 53.3874 16.0652 52.9471 16.0475 52.4825C16.0433 52.3669 16.0413 52.2511 16.0417 52.1354Z" fill="url(#paint0_linear_4280_114)"/>
<path d="M73.376 35.5V8.68H78.956V22.108L77.408 21.568L88.136 8.68H95.12L84.5 21.496L84.824 17.536L95.336 35.5H88.82L82.268 24.16L78.956 28.156V35.5H73.376ZM106.46 35.932C104.372 35.932 102.56 35.476 101.024 34.564C99.4877 33.628 98.2997 32.38 97.4597 30.82C96.6197 29.26 96.1997 27.532 96.1997 25.636C96.1997 23.668 96.6317 21.916 97.4957 20.38C98.3837 18.844 99.5717 17.632 101.06 16.744C102.548 15.856 104.228 15.412 106.1 15.412C107.66 15.412 109.04 15.664 110.24 16.168C111.44 16.648 112.448 17.332 113.264 18.22C114.104 19.108 114.74 20.14 115.172 21.316C115.604 22.468 115.82 23.728 115.82 25.096C115.82 25.48 115.796 25.864 115.748 26.248C115.724 26.608 115.664 26.92 115.568 27.184H100.844V23.224H112.508L109.952 25.096C110.192 24.064 110.18 23.152 109.916 22.36C109.652 21.544 109.184 20.908 108.512 20.452C107.864 19.972 107.06 19.732 106.1 19.732C105.164 19.732 104.36 19.96 103.688 20.416C103.016 20.872 102.512 21.544 102.176 22.432C101.84 23.32 101.708 24.4 101.78 25.672C101.684 26.776 101.816 27.748 102.176 28.588C102.536 29.428 103.088 30.088 103.832 30.568C104.576 31.024 105.476 31.252 106.532 31.252C107.492 31.252 108.308 31.06 108.98 30.676C109.676 30.292 110.216 29.764 110.6 29.092L114.92 31.144C114.536 32.104 113.924 32.944 113.084 33.664C112.268 34.384 111.296 34.948 110.168 35.356C109.04 35.74 107.804 35.932 106.46 35.932ZM119 35.5V15.844H124.04V20.632L123.5 19.84C123.788 18.328 124.484 17.212 125.588 16.492C126.692 15.772 128.012 15.412 129.548 15.412C131.18 15.412 132.608 15.832 133.832 16.672C135.08 17.488 135.86 18.592 136.172 19.984L134.624 20.128C135.272 18.52 136.196 17.332 137.396 16.564C138.596 15.796 140 15.412 141.608 15.412C143.024 15.412 144.272 15.724 145.352 16.348C146.456 16.972 147.32 17.848 147.944 18.976C148.568 20.08 148.88 21.376 148.88 22.864V35.5H143.48V24.016C143.48 23.248 143.336 22.588 143.048 22.036C142.784 21.484 142.4 21.052 141.896 20.74C141.392 20.428 140.78 20.272 140.06 20.272C139.364 20.272 138.752 20.428 138.224 20.74C137.72 21.052 137.324 21.484 137.036 22.036C136.772 22.588 136.64 23.248 136.64 24.016V35.5H131.24V24.016C131.24 23.248 131.096 22.588 130.808 22.036C130.544 21.484 130.16 21.052 129.656 20.74C129.152 20.428 128.54 20.272 127.82 20.272C127.124 20.272 126.512 20.428 125.984 20.74C125.48 21.052 125.084 21.484 124.796 22.036C124.532 22.588 124.4 23.248 124.4 24.016V35.5H119ZM161.901 35.932C159.813 35.932 158.001 35.476 156.465 34.564C154.929 33.628 153.741 32.38 152.901 30.82C152.061 29.26 151.641 27.532 151.641 25.636C151.641 23.668 152.073 21.916 152.937 20.38C153.825 18.844 155.013 17.632 156.501 16.744C157.989 15.856 159.669 15.412 161.541 15.412C163.101 15.412 164.481 15.664 165.681 16.168C166.881 16.648 167.889 17.332 168.705 18.22C169.545 19.108 170.181 20.14 170.613 21.316C171.045 22.468 171.261 23.728 171.261 25.096C171.261 25.48 171.237 25.864 171.189 26.248C171.165 26.608 171.105 26.92 171.009 27.184H156.285V23.224H167.949L165.393 25.096C165.633 24.064 165.621 23.152 165.357 22.36C165.093 21.544 164.625 20.908 163.953 20.452C163.305 19.972 162.501 19.732 161.541 19.732C160.605 19.732 159.801 19.96 159.129 20.416C158.457 20.872 157.953 21.544 157.617 22.432C157.281 23.32 157.149 24.4 157.221 25.672C157.125 26.776 157.257 27.748 157.617 28.588C157.977 29.428 158.529 30.088 159.273 30.568C160.017 31.024 160.917 31.252 161.973 31.252C162.933 31.252 163.749 31.06 164.421 30.676C165.117 30.292 165.657 29.764 166.041 29.092L170.361 31.144C169.977 32.104 169.365 32.944 168.525 33.664C167.709 34.384 166.737 34.948 165.609 35.356C164.481 35.74 163.245 35.932 161.901 35.932ZM174.441 35.5V15.844H179.481V19.732L179.193 18.868C179.649 17.692 180.381 16.828 181.389 16.276C182.421 15.7 183.621 15.412 184.989 15.412C186.477 15.412 187.773 15.724 188.877 16.348C190.005 16.972 190.881 17.848 191.505 18.976C192.129 20.08 192.441 21.376 192.441 22.864V35.5H187.041V24.016C187.041 23.248 186.885 22.588 186.573 22.036C186.285 21.484 185.865 21.052 185.313 20.74C184.785 20.428 184.161 20.272 183.441 20.272C182.745 20.272 182.121 20.428 181.569 20.74C181.017 21.052 180.585 21.484 180.273 22.036C179.985 22.588 179.841 23.248 179.841 24.016V35.5H174.441ZM195.992 35.5V8.248H201.392V25.708L199.376 25.06L208.052 15.844H214.712L207.584 23.764L214.676 35.5H208.556L202.616 25.528L205.748 24.736L199.736 31.288L201.392 28.156V35.5H195.992ZM226.49 35.932C224.546 35.932 222.77 35.488 221.162 34.6C219.578 33.712 218.306 32.5 217.346 30.964C216.41 29.404 215.942 27.64 215.942 25.672C215.942 23.68 216.41 21.916 217.346 20.38C218.306 18.844 219.578 17.632 221.162 16.744C222.77 15.856 224.546 15.412 226.49 15.412C228.434 15.412 230.198 15.856 231.782 16.744C233.366 17.632 234.626 18.844 235.562 20.38C236.522 21.916 237.002 23.68 237.002 25.672C237.002 27.64 236.522 29.404 235.562 30.964C234.626 32.5 233.366 33.712 231.782 34.6C230.198 35.488 228.434 35.932 226.49 35.932ZM226.49 31.072C227.474 31.072 228.326 30.844 229.046 30.388C229.79 29.932 230.366 29.296 230.774 28.48C231.206 27.664 231.422 26.728 231.422 25.672C231.422 24.616 231.206 23.692 230.774 22.9C230.366 22.084 229.79 21.448 229.046 20.992C228.326 20.512 227.474 20.272 226.49 20.272C225.506 20.272 224.642 20.512 223.898 20.992C223.154 21.448 222.566 22.084 222.134 22.9C221.726 23.692 221.522 24.616 221.522 25.672C221.522 26.728 221.726 27.664 222.134 28.48C222.566 29.296 223.154 29.932 223.898 30.388C224.642 30.844 225.506 31.072 226.49 31.072ZM240.183 42.7V15.844H245.223V19.588L244.755 18.508C245.403 17.524 246.279 16.768 247.383 16.24C248.511 15.688 249.795 15.412 251.235 15.412C253.107 15.412 254.799 15.868 256.311 16.78C257.823 17.692 259.023 18.928 259.911 20.488C260.799 22.024 261.243 23.752 261.243 25.672C261.243 27.568 260.799 29.296 259.911 30.856C259.047 32.416 257.859 33.652 256.347 34.564C254.835 35.476 253.119 35.932 251.199 35.932C249.855 35.932 248.607 35.692 247.455 35.212C246.327 34.708 245.415 33.976 244.719 33.016L245.583 31.9V42.7H240.183ZM250.551 31.072C251.559 31.072 252.447 30.844 253.215 30.388C253.983 29.932 254.583 29.296 255.015 28.48C255.447 27.664 255.663 26.728 255.663 25.672C255.663 24.616 255.447 23.692 255.015 22.9C254.583 22.084 253.983 21.448 253.215 20.992C252.447 20.512 251.559 20.272 250.551 20.272C249.591 20.272 248.727 20.5 247.959 20.956C247.215 21.412 246.627 22.048 246.195 22.864C245.787 23.68 245.583 24.616 245.583 25.672C245.583 26.728 245.787 27.664 246.195 28.48C246.627 29.296 247.215 29.932 247.959 30.388C248.727 30.844 249.591 31.072 250.551 31.072Z" fill="#065366"/>
<path d="M77.3 55.68C76.5 55.68 75.755 55.535 75.065 55.245C74.385 54.955 73.79 54.55 73.28 54.03C72.77 53.51 72.37 52.9 72.08 52.2C71.8 51.5 71.66 50.735 71.66 49.905C71.66 49.075 71.8 48.31 72.08 47.61C72.36 46.9 72.755 46.29 73.265 45.78C73.775 45.26 74.37 44.86 75.05 44.58C75.74 44.29 76.49 44.145 77.3 44.145C78.11 44.145 78.835 44.28 79.475 44.55C80.125 44.82 80.675 45.18 81.125 45.63C81.575 46.08 81.895 46.58 82.085 47.13L80.03 48.12C79.84 47.58 79.505 47.135 79.025 46.785C78.555 46.425 77.98 46.245 77.3 46.245C76.64 46.245 76.06 46.4 75.56 46.71C75.06 47.02 74.67 47.45 74.39 48C74.12 48.54 73.985 49.175 73.985 49.905C73.985 50.635 74.12 51.275 74.39 51.825C74.67 52.375 75.06 52.805 75.56 53.115C76.06 53.425 76.64 53.58 77.3 53.58C77.98 53.58 78.555 53.405 79.025 53.055C79.505 52.695 79.84 52.245 80.03 51.705L82.085 52.695C81.895 53.245 81.575 53.745 81.125 54.195C80.675 54.645 80.125 55.005 79.475 55.275C78.835 55.545 78.11 55.68 77.3 55.68ZM89.1719 55.68C88.3319 55.68 87.5519 55.535 86.8319 55.245C86.1119 54.955 85.4819 54.55 84.9419 54.03C84.4119 53.5 83.9969 52.885 83.6969 52.185C83.3969 51.485 83.2469 50.725 83.2469 49.905C83.2469 49.085 83.3919 48.325 83.6819 47.625C83.9819 46.925 84.3969 46.315 84.9269 45.795C85.4669 45.275 86.0969 44.87 86.8169 44.58C87.5369 44.29 88.3219 44.145 89.1719 44.145C90.0219 44.145 90.8069 44.29 91.5269 44.58C92.2469 44.87 92.8719 45.275 93.4019 45.795C93.9419 46.315 94.3569 46.925 94.6469 47.625C94.9469 48.325 95.0969 49.085 95.0969 49.905C95.0969 50.725 94.9469 51.485 94.6469 52.185C94.3469 52.885 93.9269 53.5 93.3869 54.03C92.8569 54.55 92.2319 54.955 91.5119 55.245C90.7919 55.535 90.0119 55.68 89.1719 55.68ZM89.1719 53.58C89.6819 53.58 90.1519 53.49 90.5819 53.31C91.0219 53.13 91.4069 52.88 91.7369 52.56C92.0669 52.23 92.3219 51.84 92.5019 51.39C92.6819 50.94 92.7719 50.445 92.7719 49.905C92.7719 49.365 92.6819 48.875 92.5019 48.435C92.3219 47.985 92.0669 47.595 91.7369 47.265C91.4069 46.935 91.0219 46.685 90.5819 46.515C90.1519 46.335 89.6819 46.245 89.1719 46.245C88.6619 46.245 88.1869 46.335 87.7469 46.515C87.3169 46.685 86.9369 46.935 86.6069 47.265C86.2769 47.595 86.0219 47.985 85.8419 48.435C85.6619 48.875 85.5719 49.365 85.5719 49.905C85.5719 50.445 85.6619 50.94 85.8419 51.39C86.0219 51.84 86.2769 52.23 86.6069 52.56C86.9369 52.88 87.3169 53.13 87.7469 53.31C88.1869 53.49 88.6619 53.58 89.1719 53.58ZM96.7459 55.5V44.325H101.021C101.791 44.325 102.471 44.46 103.061 44.73C103.661 45 104.131 45.4 104.471 45.93C104.811 46.46 104.981 47.115 104.981 47.895C104.981 48.655 104.806 49.305 104.456 49.845C104.106 50.375 103.636 50.775 103.046 51.045L105.596 55.5H102.986L100.226 50.565L101.726 51.45H99.0709V55.5H96.7459ZM99.0709 49.425H101.036C101.366 49.425 101.651 49.36 101.891 49.23C102.131 49.1 102.316 48.92 102.446 48.69C102.586 48.46 102.656 48.195 102.656 47.895C102.656 47.585 102.586 47.315 102.446 47.085C102.316 46.855 102.131 46.675 101.891 46.545C101.651 46.415 101.366 46.35 101.036 46.35H99.0709V49.425ZM106.751 55.5V44.325H111.041C111.811 44.325 112.491 44.46 113.081 44.73C113.681 45 114.151 45.4 114.491 45.93C114.831 46.46 115.001 47.115 115.001 47.895C115.001 48.655 114.826 49.3 114.476 49.83C114.136 50.36 113.666 50.765 113.066 51.045C112.476 51.315 111.801 51.45 111.041 51.45H109.076V55.5H106.751ZM109.076 49.425H111.056C111.386 49.425 111.671 49.36 111.911 49.23C112.151 49.1 112.336 48.92 112.466 48.69C112.606 48.46 112.676 48.195 112.676 47.895C112.676 47.585 112.606 47.315 112.466 47.085C112.336 46.855 112.151 46.675 111.911 46.545C111.671 46.415 111.386 46.35 111.056 46.35H109.076V49.425ZM122.087 55.68C121.247 55.68 120.467 55.535 119.747 55.245C119.027 54.955 118.397 54.55 117.857 54.03C117.327 53.5 116.912 52.885 116.612 52.185C116.312 51.485 116.162 50.725 116.162 49.905C116.162 49.085 116.307 48.325 116.597 47.625C116.897 46.925 117.312 46.315 117.842 45.795C118.382 45.275 119.012 44.87 119.732 44.58C120.452 44.29 121.237 44.145 122.087 44.145C122.937 44.145 123.722 44.29 124.442 44.58C125.162 44.87 125.787 45.275 126.317 45.795C126.857 46.315 127.272 46.925 127.562 47.625C127.862 48.325 128.012 49.085 128.012 49.905C128.012 50.725 127.862 51.485 127.562 52.185C127.262 52.885 126.842 53.5 126.302 54.03C125.772 54.55 125.147 54.955 124.427 55.245C123.707 55.535 122.927 55.68 122.087 55.68ZM122.087 53.58C122.597 53.58 123.067 53.49 123.497 53.31C123.937 53.13 124.322 52.88 124.652 52.56C124.982 52.23 125.237 51.84 125.417 51.39C125.597 50.94 125.687 50.445 125.687 49.905C125.687 49.365 125.597 48.875 125.417 48.435C125.237 47.985 124.982 47.595 124.652 47.265C124.322 46.935 123.937 46.685 123.497 46.515C123.067 46.335 122.597 46.245 122.087 46.245C121.577 46.245 121.102 46.335 120.662 46.515C120.232 46.685 119.852 46.935 119.522 47.265C119.192 47.595 118.937 47.985 118.757 48.435C118.577 48.875 118.487 49.365 118.487 49.905C118.487 50.445 118.577 50.94 118.757 51.39C118.937 51.84 119.192 52.23 119.522 52.56C119.852 52.88 120.232 53.13 120.662 53.31C121.102 53.49 121.577 53.58 122.087 53.58ZM129.661 55.5V44.325H133.936C134.706 44.325 135.386 44.46 135.976 44.73C136.576 45 137.046 45.4 137.386 45.93C137.726 46.46 137.896 47.115 137.896 47.895C137.896 48.655 137.721 49.305 137.371 49.845C137.021 50.375 136.551 50.775 135.961 51.045L138.511 55.5H135.901L133.141 50.565L134.641 51.45H131.986V55.5H129.661ZM131.986 49.425H133.951C134.281 49.425 134.566 49.36 134.806 49.23C135.046 49.1 135.231 48.92 135.361 48.69C135.501 48.46 135.571 48.195 135.571 47.895C135.571 47.585 135.501 47.315 135.361 47.085C135.231 46.855 135.046 46.675 134.806 46.545C134.566 46.415 134.281 46.35 133.951 46.35H131.986V49.425ZM138.841 55.5L142.621 44.325H145.711L149.491 55.5H146.956L146.206 53.22H142.111L141.361 55.5H138.841ZM142.756 51.195H145.561L143.851 45.915H144.481L142.756 51.195ZM151.915 55.5V46.35H149.08V44.325H157.03V46.35H154.24V55.5H151.915ZM158.181 55.5V44.325H165.696V46.35H160.506V48.885H165.396V50.91H160.506V53.475H165.696V55.5H158.181ZM174.15 55.68C173.27 55.68 172.485 55.495 171.795 55.125C171.105 54.755 170.56 54.25 170.16 53.61C169.77 52.96 169.575 52.225 169.575 51.405V44.325H171.9V51.255C171.9 51.695 171.995 52.095 172.185 52.455C172.385 52.805 172.655 53.08 172.995 53.28C173.335 53.48 173.72 53.58 174.15 53.58C174.59 53.58 174.975 53.48 175.305 53.28C175.645 53.08 175.91 52.805 176.1 52.455C176.3 52.095 176.4 51.695 176.4 51.255V44.325H178.725V51.405C178.725 52.225 178.525 52.96 178.125 53.61C177.735 54.25 177.195 54.755 176.505 55.125C175.815 55.495 175.03 55.68 174.15 55.68ZM180.564 55.5V44.325H182.349L188.349 52.23L187.389 52.455V44.325H189.714V55.5H187.914L182.019 47.535L182.889 47.31V55.5H180.564ZM191.697 55.5V44.325H194.022V55.5H191.697ZM199.004 55.5L195.179 44.325H197.729L200.609 53.295H200.099L202.979 44.325H205.529L201.704 55.5H199.004ZM206.682 55.5V44.325H214.197V46.35H209.007V48.885H213.897V50.91H209.007V53.475H214.197V55.5H206.682ZM215.515 55.5V44.325H219.79C220.56 44.325 221.24 44.46 221.83 44.73C222.43 45 222.9 45.4 223.24 45.93C223.58 46.46 223.75 47.115 223.75 47.895C223.75 48.655 223.575 49.305 223.225 49.845C222.875 50.375 222.405 50.775 221.815 51.045L224.365 55.5H221.755L218.995 50.565L220.495 51.45H217.84V55.5H215.515ZM217.84 49.425H219.805C220.135 49.425 220.42 49.36 220.66 49.23C220.9 49.1 221.085 48.92 221.215 48.69C221.355 48.46 221.425 48.195 221.425 47.895C221.425 47.585 221.355 47.315 221.215 47.085C221.085 46.855 220.9 46.675 220.66 46.545C220.42 46.415 220.135 46.35 219.805 46.35H217.84V49.425ZM229.585 55.68C228.885 55.68 228.225 55.555 227.605 55.305C226.995 55.045 226.465 54.68 226.015 54.21C225.575 53.74 225.245 53.185 225.025 52.545L226.93 51.69C227.21 52.3 227.595 52.78 228.085 53.13C228.585 53.48 229.135 53.655 229.735 53.655C230.055 53.655 230.33 53.605 230.56 53.505C230.79 53.405 230.97 53.27 231.1 53.1C231.23 52.92 231.295 52.71 231.295 52.47C231.295 52.21 231.215 51.99 231.055 51.81C230.895 51.62 230.645 51.47 230.305 51.36L228.115 50.64C227.225 50.35 226.555 49.94 226.105 49.41C225.655 48.87 225.43 48.225 225.43 47.475C225.43 46.815 225.59 46.235 225.91 45.735C226.24 45.235 226.695 44.845 227.275 44.565C227.865 44.285 228.54 44.145 229.3 44.145C229.97 44.145 230.59 44.26 231.16 44.49C231.73 44.72 232.22 45.045 232.63 45.465C233.05 45.885 233.365 46.39 233.575 46.98L231.685 47.835C231.475 47.315 231.16 46.91 230.74 46.62C230.32 46.32 229.84 46.17 229.3 46.17C228.99 46.17 228.715 46.22 228.475 46.32C228.235 46.42 228.05 46.565 227.92 46.755C227.79 46.935 227.725 47.145 227.725 47.385C227.725 47.645 227.81 47.875 227.98 48.075C228.15 48.265 228.405 48.415 228.745 48.525L230.89 49.215C231.79 49.505 232.46 49.91 232.9 50.43C233.35 50.95 233.575 51.585 233.575 52.335C233.575 52.985 233.405 53.565 233.065 54.075C232.725 54.575 232.255 54.97 231.655 55.26C231.065 55.54 230.375 55.68 229.585 55.68ZM235.232 55.5V44.325H237.557V55.5H235.232ZM241.549 55.5V46.35H238.714V44.325H246.664V46.35H243.874V55.5H241.549ZM250.71 55.5V50.625L246.99 44.325H249.645L252.345 49.065H251.4L254.085 44.325H256.74L253.035 50.61V55.5H250.71Z" fill="#E5A80E"/>
<defs>
<linearGradient id="paint0_linear_4280_114" x1="34.9994" y1="8.7507" x2="34.9994" y2="61.25" gradientUnits="userSpaceOnUse">
<stop stop-color="#E5A80E"/>
<stop offset="1" stop-color="#D47800"/>
</linearGradient>
</defs>
</svg>
