<svg width="309" height="351" viewBox="0 0 309 351" fill="none" xmlns="http://www.w3.org/2000/svg">
<g clip-path="url(#clip0_4220_13957)">
<path d="M290.483 98.9283L203.363 98.9283C201.707 98.9283 200.119 98.2717 198.948 97.1029C197.777 95.9341 197.119 94.3489 197.119 92.696V29.3894C197.119 27.7373 197.776 26.1528 198.947 24.9846C200.117 23.8163 201.705 23.16 203.36 23.16L290.486 23.16C292.142 23.16 293.729 23.8163 294.899 24.9846C296.07 26.1528 296.727 27.7373 296.727 29.3894V92.696C296.727 94.3489 296.069 95.9341 294.898 97.1029C293.728 98.2717 292.139 98.9283 290.483 98.9283Z" fill="white"/>
<path d="M196.858 92.6956V29.389C196.858 27.6678 197.543 26.0171 198.762 24.8C199.982 23.583 201.635 22.8992 203.36 22.8992H290.486C292.211 22.8992 293.865 23.583 295.084 24.8C296.303 26.0171 296.988 27.6678 296.988 29.389V92.6956C296.988 93.5482 296.82 94.3925 296.493 95.1803C296.166 95.968 295.687 96.6837 295.083 97.2866C294.479 97.8895 293.762 98.3678 292.973 98.694C292.184 99.0203 291.338 99.1883 290.484 99.1883H203.363C202.509 99.1883 201.663 99.0203 200.874 98.694C200.084 98.3678 199.367 97.8895 198.763 97.2866C198.159 96.6837 197.68 95.968 197.353 95.1803C197.026 94.3925 196.858 93.5482 196.858 92.6956ZM203.36 23.42C201.774 23.4205 200.254 24.0495 199.132 25.1689C198.011 26.2882 197.382 27.8062 197.382 29.389V92.6956C197.382 94.2795 198.012 95.7984 199.134 96.9184C200.256 98.0383 201.778 98.6675 203.364 98.6675H290.484C292.07 98.6675 293.592 98.0383 294.714 96.9184C295.836 95.7984 296.466 94.2795 296.466 92.6956V29.389C296.466 27.8059 295.836 26.2877 294.715 25.1683C293.593 24.0489 292.072 23.42 290.486 23.42H203.36Z" fill="#292A2E"/>
<path d="M197.119 29.3881V34.663H296.726V29.3881C296.726 27.736 296.069 26.1516 294.898 24.9833C293.728 23.8151 292.141 23.1588 290.486 23.1588H203.36C202.54 23.1588 201.729 23.3199 200.972 23.633C200.214 23.946 199.526 24.4049 198.947 24.9834C198.368 25.5618 197.908 26.2485 197.594 27.0043C197.281 27.7601 197.119 28.5701 197.119 29.3881Z" fill="#292A2E"/>
<path d="M231.137 43.1896H226.437C226.381 43.1896 226.328 43.1677 226.289 43.1286C226.25 43.0895 226.228 43.0365 226.228 42.9813C226.228 42.926 226.25 42.8731 226.289 42.834C226.328 42.7949 226.381 42.773 226.437 42.773H231.137C231.192 42.773 231.245 42.7949 231.284 42.834C231.323 42.8731 231.345 42.926 231.345 42.9813C231.345 43.0365 231.323 43.0895 231.284 43.1286C231.245 43.1677 231.192 43.1896 231.137 43.1896Z" fill="#292A2E"/>
<path d="M223.047 43.1896H221.269C221.213 43.1896 221.16 43.1677 221.121 43.1286C221.082 43.0895 221.06 43.0365 221.06 42.9813C221.06 42.926 221.082 42.8731 221.121 42.834C221.16 42.7949 221.213 42.773 221.269 42.773H223.047C223.102 42.773 223.155 42.7949 223.195 42.834C223.234 42.8731 223.256 42.926 223.256 42.9813C223.256 43.0365 223.234 43.0895 223.195 43.1286C223.155 43.1677 223.102 43.1896 223.047 43.1896Z" fill="#A0BA3B"/>
<path d="M223.047 46.9475H221.269C221.213 46.9475 221.16 46.9256 221.121 46.8865C221.082 46.8475 221.06 46.7945 221.06 46.7392C221.06 46.684 221.082 46.631 221.121 46.5919C221.16 46.5529 221.213 46.5309 221.269 46.5309H223.047C223.102 46.5309 223.155 46.5529 223.195 46.5919C223.234 46.631 223.256 46.684 223.256 46.7392C223.256 46.7945 223.234 46.8475 223.195 46.8865C223.155 46.9256 223.102 46.9475 223.047 46.9475Z" fill="#A0BA3B"/>
<path d="M223.047 50.7055H221.269C221.213 50.7055 221.16 50.6835 221.121 50.6445C221.082 50.6054 221.06 50.5524 221.06 50.4972C221.06 50.4419 221.082 50.3889 221.121 50.3499C221.16 50.3108 221.213 50.2888 221.269 50.2888H223.047C223.102 50.2888 223.155 50.3108 223.195 50.3499C223.234 50.3889 223.256 50.4419 223.256 50.4972C223.256 50.5524 223.234 50.6054 223.195 50.6445C223.155 50.6835 223.102 50.7055 223.047 50.7055Z" fill="#A0BA3B"/>
<path d="M223.047 54.4634H221.269C221.213 54.4634 221.16 54.4415 221.121 54.4024C221.082 54.3633 221.06 54.3103 221.06 54.2551C221.06 54.1998 221.082 54.1469 221.121 54.1078C221.16 54.0687 221.213 54.0468 221.269 54.0468H223.047C223.102 54.0468 223.155 54.0687 223.195 54.1078C223.234 54.1469 223.256 54.1998 223.256 54.2551C223.256 54.3103 223.234 54.3633 223.195 54.4024C223.155 54.4415 223.102 54.4634 223.047 54.4634Z" fill="#A0BA3B"/>
<path d="M223.047 58.2213H221.269C221.213 58.2213 221.16 58.1994 221.121 58.1603C221.082 58.1213 221.06 58.0683 221.06 58.013C221.06 57.9578 221.082 57.9048 221.121 57.8657C221.16 57.8267 221.213 57.8047 221.269 57.8047H223.047C223.102 57.8047 223.155 57.8267 223.195 57.8657C223.234 57.9048 223.256 57.9578 223.256 58.013C223.256 58.0683 223.234 58.1213 223.195 58.1603C223.155 58.1994 223.102 58.2213 223.047 58.2213Z" fill="#A0BA3B"/>
<path d="M223.047 61.9793H221.269C221.213 61.9793 221.16 61.9573 221.121 61.9183C221.082 61.8792 221.06 61.8262 221.06 61.771C221.06 61.7157 221.082 61.6627 221.121 61.6237C221.16 61.5846 221.213 61.5627 221.269 61.5627H223.047C223.102 61.5627 223.155 61.5846 223.195 61.6237C223.234 61.6627 223.256 61.7157 223.256 61.771C223.256 61.8262 223.234 61.8792 223.195 61.9183C223.155 61.9573 223.102 61.9793 223.047 61.9793Z" fill="#A0BA3B"/>
<path d="M223.047 65.7372H221.269C221.213 65.7372 221.16 65.7153 221.121 65.6762C221.082 65.6371 221.06 65.5841 221.06 65.5289C221.06 65.4737 221.082 65.4207 221.121 65.3816C221.16 65.3425 221.213 65.3206 221.269 65.3206H223.047C223.102 65.3206 223.155 65.3425 223.195 65.3816C223.234 65.4207 223.256 65.4737 223.256 65.5289C223.256 65.5841 223.234 65.6371 223.195 65.6762C223.155 65.7153 223.102 65.7372 223.047 65.7372Z" fill="#A0BA3B"/>
<path d="M223.047 69.4951H221.269C221.213 69.4951 221.16 69.4732 221.121 69.4341C221.082 69.3951 221.06 69.3421 221.06 69.2868C221.06 69.2316 221.082 69.1786 221.121 69.1395C221.16 69.1005 221.213 69.0785 221.269 69.0785H223.047C223.102 69.0785 223.155 69.1005 223.195 69.1395C223.234 69.1786 223.256 69.2316 223.256 69.2868C223.256 69.3421 223.234 69.3951 223.195 69.4341C223.155 69.4732 223.102 69.4951 223.047 69.4951Z" fill="#A0BA3B"/>
<path d="M223.047 73.2531H221.269C221.213 73.2531 221.16 73.2311 221.121 73.1921C221.082 73.153 221.06 73.1 221.06 73.0448C221.06 72.9895 221.082 72.9365 221.121 72.8975C221.16 72.8584 221.213 72.8365 221.269 72.8365H223.047C223.102 72.8365 223.155 72.8584 223.195 72.8975C223.234 72.9365 223.256 72.9895 223.256 73.0448C223.256 73.1 223.234 73.153 223.195 73.1921C223.155 73.2311 223.102 73.2531 223.047 73.2531Z" fill="#A0BA3B"/>
<path d="M223.047 77.011H221.269C221.213 77.011 221.16 76.9891 221.121 76.95C221.082 76.9109 221.06 76.8579 221.06 76.8027C221.06 76.7475 221.082 76.6945 221.121 76.6554C221.16 76.6163 221.213 76.5944 221.269 76.5944H223.047C223.102 76.5944 223.155 76.6163 223.195 76.6554C223.234 76.6945 223.256 76.7475 223.256 76.8027C223.256 76.8579 223.234 76.9109 223.195 76.95C223.155 76.9891 223.102 77.011 223.047 77.011Z" fill="#A0BA3B"/>
<path d="M223.047 80.7689H221.269C221.213 80.7689 221.16 80.747 221.121 80.7079C221.082 80.6689 221.06 80.6159 221.06 80.5606C221.06 80.5054 221.082 80.4524 221.121 80.4133C221.16 80.3743 221.213 80.3523 221.269 80.3523H223.047C223.102 80.3523 223.155 80.3743 223.195 80.4133C223.234 80.4524 223.256 80.5054 223.256 80.5606C223.256 80.6159 223.234 80.6689 223.195 80.7079C223.155 80.747 223.102 80.7689 223.047 80.7689Z" fill="#A0BA3B"/>
<path d="M223.047 84.5269H221.269C221.213 84.5269 221.16 84.505 221.121 84.4659C221.082 84.4268 221.06 84.3738 221.06 84.3186C221.06 84.2634 221.082 84.2104 221.121 84.1713C221.16 84.1322 221.213 84.1103 221.269 84.1103H223.047C223.102 84.1103 223.155 84.1322 223.195 84.1713C223.234 84.2104 223.256 84.2634 223.256 84.3186C223.256 84.3738 223.234 84.4268 223.195 84.4659C223.155 84.505 223.102 84.5269 223.047 84.5269Z" fill="#A0BA3B"/>
<path d="M223.047 88.2848H221.269C221.213 88.2848 221.16 88.2629 221.121 88.2238C221.082 88.1848 221.06 88.1318 221.06 88.0765C221.06 88.0213 221.082 87.9683 221.121 87.9292C221.16 87.8902 221.213 87.8682 221.269 87.8682H223.047C223.102 87.8682 223.155 87.8902 223.195 87.9292C223.234 87.9683 223.256 88.0213 223.256 88.0765C223.256 88.1318 223.234 88.1848 223.195 88.2238C223.155 88.2629 223.102 88.2848 223.047 88.2848Z" fill="#A0BA3B"/>
<path d="M223.047 92.0432H221.269C221.213 92.0432 221.16 92.0212 221.121 91.9822C221.082 91.9431 221.06 91.8901 221.06 91.8349C221.06 91.7796 221.082 91.7266 221.121 91.6876C221.16 91.6485 221.213 91.6266 221.269 91.6266H223.047C223.102 91.6266 223.155 91.6485 223.195 91.6876C223.234 91.7266 223.256 91.7796 223.256 91.8349C223.256 91.8901 223.234 91.9431 223.195 91.9822C223.155 92.0212 223.102 92.0432 223.047 92.0432Z" fill="#A0BA3B"/>
<path d="M234.893 46.9475H230.61C230.555 46.9475 230.502 46.9256 230.463 46.8865C230.424 46.8475 230.402 46.7945 230.402 46.7392C230.402 46.684 230.424 46.631 230.463 46.5919C230.502 46.5529 230.555 46.5309 230.61 46.5309H234.893C234.949 46.5309 235.002 46.5529 235.041 46.5919C235.08 46.631 235.102 46.684 235.102 46.7392C235.102 46.7945 235.08 46.8475 235.041 46.8865C235.002 46.9256 234.949 46.9475 234.893 46.9475Z" fill="#292A2E"/>
<path d="M231.137 69.4951H226.437C226.381 69.4951 226.328 69.4732 226.289 69.4341C226.25 69.3951 226.228 69.3421 226.228 69.2868C226.228 69.2316 226.25 69.1786 226.289 69.1395C226.328 69.1005 226.381 69.0785 226.437 69.0785H231.137C231.192 69.0785 231.245 69.1005 231.284 69.1395C231.323 69.1786 231.345 69.2316 231.345 69.2868C231.345 69.3421 231.323 69.3951 231.284 69.4341C231.245 69.4732 231.192 69.4951 231.137 69.4951Z" fill="#292A2E"/>
<path d="M234.893 73.2531H230.61C230.555 73.2531 230.502 73.2312 230.463 73.1921C230.424 73.153 230.402 73.1 230.402 73.0448C230.402 72.9896 230.424 72.9366 230.463 72.8975C230.502 72.8584 230.555 72.8365 230.61 72.8365H234.893C234.949 72.8365 235.002 72.8584 235.041 72.8975C235.08 72.9366 235.102 72.9896 235.102 73.0448C235.102 73.1 235.08 73.153 235.041 73.1921C235.002 73.2312 234.949 73.2531 234.893 73.2531Z" fill="#292A2E"/>
<path d="M259.102 50.7055H233.532C233.477 50.7055 233.424 50.6835 233.385 50.6445C233.345 50.6054 233.323 50.5524 233.323 50.4972C233.323 50.4419 233.345 50.3889 233.385 50.3499C233.424 50.3108 233.477 50.2888 233.532 50.2888H259.102C259.157 50.2888 259.21 50.3108 259.249 50.3499C259.288 50.3889 259.31 50.4419 259.31 50.4972C259.31 50.5524 259.288 50.6054 259.249 50.6445C259.21 50.6835 259.157 50.7055 259.102 50.7055Z" fill="#292A2E"/>
<path d="M281.677 50.7055H263.621C263.565 50.7055 263.512 50.6835 263.473 50.6445C263.434 50.6054 263.412 50.5524 263.412 50.4972C263.412 50.4419 263.434 50.3889 263.473 50.3499C263.512 50.3108 263.565 50.2888 263.621 50.2888H281.677C281.732 50.2888 281.785 50.3108 281.824 50.3499C281.863 50.3889 281.885 50.4419 281.885 50.4972C281.885 50.5524 281.863 50.6054 281.824 50.6445C281.785 50.6835 281.732 50.7055 281.677 50.7055Z" fill="#0CBC8B"/>
<path d="M291.367 50.7055H285.832C285.777 50.7055 285.724 50.6835 285.685 50.6445C285.646 50.6054 285.624 50.5524 285.624 50.4972C285.624 50.4419 285.646 50.3889 285.685 50.3499C285.724 50.3108 285.777 50.2888 285.832 50.2888H291.367C291.422 50.2888 291.475 50.3108 291.514 50.3499C291.553 50.3889 291.575 50.4419 291.575 50.4972C291.575 50.5524 291.553 50.6054 291.514 50.6445C291.475 50.6835 291.422 50.7055 291.367 50.7055Z" fill="#292A2E"/>
<path d="M271.623 58.2213H233.532C233.477 58.2213 233.424 58.1994 233.385 58.1603C233.345 58.1213 233.323 58.0683 233.323 58.013C233.323 57.9578 233.345 57.9048 233.385 57.8657C233.424 57.8267 233.477 57.8047 233.532 57.8047H271.623C271.679 57.8047 271.732 57.8267 271.771 57.8657C271.81 57.9048 271.832 57.9578 271.832 58.013C271.832 58.0683 271.81 58.1213 271.771 58.1603C271.732 58.1994 271.679 58.2213 271.623 58.2213Z" fill="#292A2E"/>
<path d="M281.677 58.2213H276.142C276.087 58.2213 276.034 58.1994 275.995 58.1603C275.955 58.1213 275.933 58.0683 275.933 58.013C275.933 57.9578 275.955 57.9048 275.995 57.8657C276.034 57.8267 276.087 57.8047 276.142 57.8047H281.677C281.732 57.8047 281.785 57.8267 281.824 57.8657C281.863 57.9048 281.885 57.9578 281.885 58.013C281.885 58.0683 281.863 58.1213 281.824 58.1603C281.785 58.1994 281.732 58.2213 281.677 58.2213Z" fill="#A0BA3B"/>
<path d="M238.232 54.4634H233.532C233.477 54.4634 233.424 54.4415 233.385 54.4024C233.345 54.3633 233.323 54.3103 233.323 54.2551C233.323 54.1998 233.345 54.1469 233.385 54.1078C233.424 54.0687 233.477 54.0468 233.532 54.0468H238.232C238.288 54.0468 238.341 54.0687 238.38 54.1078C238.419 54.1469 238.441 54.1998 238.441 54.2551C238.441 54.3103 238.419 54.3633 238.38 54.4024C238.341 54.4415 238.288 54.4634 238.232 54.4634Z" fill="#0CBC8B"/>
<path d="M269.155 54.4634H242.751C242.696 54.4634 242.643 54.4415 242.604 54.4024C242.565 54.3633 242.543 54.3103 242.543 54.2551C242.543 54.1998 242.565 54.1469 242.604 54.1078C242.643 54.0687 242.696 54.0468 242.751 54.0468H269.155C269.211 54.0468 269.264 54.0687 269.303 54.1078C269.342 54.1469 269.364 54.1998 269.364 54.2551C269.364 54.3103 269.342 54.3633 269.303 54.4024C269.264 54.4415 269.211 54.4634 269.155 54.4634Z" fill="#A0BA3B"/>
<path d="M291.403 54.4634H274.18C274.125 54.4634 274.072 54.4415 274.033 54.4024C273.994 54.3633 273.972 54.3103 273.972 54.2551C273.972 54.1998 273.994 54.1469 274.033 54.1078C274.072 54.0687 274.125 54.0468 274.18 54.0468H291.402C291.458 54.0468 291.511 54.0687 291.55 54.1078C291.589 54.1469 291.611 54.1998 291.611 54.2551C291.611 54.3103 291.589 54.3633 291.55 54.4024C291.511 54.4415 291.458 54.4634 291.402 54.4634H291.403Z" fill="#292A2E"/>
<path d="M259.102 61.9793H233.532C233.477 61.9793 233.424 61.9573 233.385 61.9183C233.345 61.8792 233.323 61.8262 233.323 61.771C233.323 61.7157 233.345 61.6627 233.385 61.6237C233.424 61.5846 233.477 61.5627 233.532 61.5627H259.102C259.157 61.5627 259.21 61.5846 259.249 61.6237C259.288 61.6627 259.31 61.7157 259.31 61.771C259.31 61.8262 259.288 61.8792 259.249 61.9183C259.21 61.9573 259.157 61.9793 259.102 61.9793Z" fill="#292A2E"/>
<path d="M273.329 61.9793H263.621C263.565 61.9793 263.512 61.9573 263.473 61.9183C263.434 61.8792 263.412 61.8262 263.412 61.771C263.412 61.7157 263.434 61.6627 263.473 61.6237C263.512 61.5846 263.565 61.5627 263.621 61.5627H273.329C273.384 61.5627 273.438 61.5846 273.477 61.6237C273.516 61.6627 273.538 61.7157 273.538 61.771C273.538 61.8262 273.516 61.8792 273.477 61.9183C273.438 61.9573 273.384 61.9793 273.329 61.9793Z" fill="#0CBC8B"/>
<path d="M291.367 61.9793H277.485C277.429 61.9793 277.376 61.9573 277.337 61.9183C277.298 61.8792 277.276 61.8262 277.276 61.771C277.276 61.7157 277.298 61.6627 277.337 61.6237C277.376 61.5846 277.429 61.5627 277.485 61.5627H291.367C291.422 61.5627 291.475 61.5846 291.514 61.6237C291.554 61.6627 291.576 61.7157 291.576 61.771C291.576 61.8262 291.554 61.8792 291.514 61.9183C291.475 61.9573 291.422 61.9793 291.367 61.9793Z" fill="#292A2E"/>
<path d="M238.232 65.7372H233.532C233.477 65.7372 233.424 65.7153 233.385 65.6762C233.345 65.6371 233.323 65.5841 233.323 65.5289C233.323 65.4737 233.345 65.4207 233.385 65.3816C233.424 65.3425 233.477 65.3206 233.532 65.3206H238.232C238.288 65.3206 238.341 65.3425 238.38 65.3816C238.419 65.4207 238.441 65.4737 238.441 65.5289C238.441 65.5841 238.419 65.6371 238.38 65.6762C238.341 65.7153 238.288 65.7372 238.232 65.7372Z" fill="#A0BA3B"/>
<path d="M269.155 65.7372H242.751C242.696 65.7372 242.643 65.7153 242.604 65.6762C242.565 65.6371 242.543 65.5841 242.543 65.5289C242.543 65.4737 242.565 65.4207 242.604 65.3816C242.643 65.3425 242.696 65.3206 242.751 65.3206H269.155C269.211 65.3206 269.264 65.3425 269.303 65.3816C269.342 65.4207 269.364 65.4737 269.364 65.5289C269.364 65.5841 269.342 65.6371 269.303 65.6762C269.264 65.7153 269.211 65.7372 269.155 65.7372Z" fill="#0CBC8B"/>
<path d="M258.267 80.7689H232.697C232.642 80.7689 232.589 80.747 232.55 80.7079C232.511 80.6689 232.489 80.6159 232.489 80.5606C232.489 80.5054 232.511 80.4524 232.55 80.4133C232.589 80.3743 232.642 80.3523 232.697 80.3523H258.267C258.322 80.3523 258.375 80.3743 258.414 80.4133C258.453 80.4524 258.475 80.5054 258.475 80.5606C258.475 80.6159 258.453 80.6689 258.414 80.7079C258.375 80.747 258.322 80.7689 258.267 80.7689Z" fill="#292A2E"/>
<path d="M280.842 80.7689H262.786C262.73 80.7689 262.677 80.747 262.638 80.7079C262.599 80.6689 262.577 80.6159 262.577 80.5606C262.577 80.5054 262.599 80.4524 262.638 80.4133C262.677 80.3743 262.73 80.3523 262.786 80.3523H280.842C280.897 80.3523 280.95 80.3743 280.99 80.4133C281.029 80.4524 281.051 80.5054 281.051 80.5606C281.051 80.6159 281.029 80.6689 280.99 80.7079C280.95 80.747 280.897 80.7689 280.842 80.7689Z" fill="#A0BA3B"/>
<path d="M245.745 77.011H232.697C232.642 77.011 232.589 76.9891 232.55 76.95C232.511 76.9109 232.489 76.8579 232.489 76.8027C232.489 76.7475 232.511 76.6945 232.55 76.6554C232.589 76.6163 232.642 76.5944 232.697 76.5944H245.745C245.801 76.5944 245.854 76.6163 245.893 76.6554C245.932 76.6945 245.954 76.7475 245.954 76.8027C245.954 76.8579 245.932 76.9109 245.893 76.95C245.854 76.9891 245.801 77.011 245.745 77.011Z" fill="#0CBC8B"/>
<path d="M268.32 77.011H250.264C250.209 77.011 250.156 76.9891 250.117 76.95C250.078 76.9109 250.056 76.8579 250.056 76.8027C250.056 76.7475 250.078 76.6945 250.117 76.6554C250.156 76.6163 250.209 76.5944 250.264 76.5944H268.32C268.376 76.5944 268.429 76.6163 268.468 76.6554C268.507 76.6945 268.529 76.7475 268.529 76.8027C268.529 76.8579 268.507 76.9109 268.468 76.95C268.429 76.9891 268.376 77.011 268.32 77.011Z" fill="#A0BA3B"/>
<path d="M290.568 77.011H273.346C273.29 77.011 273.237 76.9891 273.198 76.95C273.159 76.9109 273.137 76.8579 273.137 76.8027C273.137 76.7475 273.159 76.6945 273.198 76.6554C273.237 76.6163 273.29 76.5944 273.346 76.5944H290.567C290.623 76.5944 290.676 76.6163 290.715 76.6554C290.754 76.6945 290.776 76.7475 290.776 76.8027C290.776 76.8579 290.754 76.9109 290.715 76.95C290.676 76.9891 290.623 77.011 290.567 77.011H290.568Z" fill="#292A2E"/>
<path d="M270.788 88.2852H232.697C232.642 88.2852 232.589 88.2633 232.55 88.2242C232.511 88.1852 232.489 88.1322 232.489 88.0769C232.489 88.0217 232.511 87.9687 232.55 87.9296C232.589 87.8906 232.642 87.8686 232.697 87.8686H270.788C270.844 87.8686 270.897 87.8906 270.936 87.9296C270.975 87.9687 270.997 88.0217 270.997 88.0769C270.997 88.1322 270.975 88.1852 270.936 88.2242C270.897 88.2633 270.844 88.2852 270.788 88.2852Z" fill="#A0BA3B"/>
<path d="M280.842 88.2852H275.307C275.252 88.2852 275.199 88.2633 275.16 88.2242C275.121 88.1852 275.099 88.1322 275.099 88.0769C275.099 88.0217 275.121 87.9687 275.16 87.9296C275.199 87.8906 275.252 87.8686 275.307 87.8686H280.842C280.897 87.8686 280.95 87.8906 280.989 87.9296C281.029 87.9687 281.051 88.0217 281.051 88.0769C281.051 88.1322 281.029 88.1852 280.989 88.2242C280.95 88.2633 280.897 88.2852 280.842 88.2852Z" fill="#292A2E"/>
<path d="M237.398 84.5273H232.697C232.642 84.5273 232.589 84.5054 232.55 84.4663C232.511 84.4272 232.489 84.3742 232.489 84.319C232.489 84.2638 232.511 84.2108 232.55 84.1717C232.589 84.1326 232.642 84.1107 232.697 84.1107H237.398C237.453 84.1107 237.506 84.1326 237.545 84.1717C237.584 84.2108 237.606 84.2638 237.606 84.319C237.606 84.3742 237.584 84.4272 237.545 84.4663C237.506 84.5054 237.453 84.5273 237.398 84.5273Z" fill="#A0BA3B"/>
<path d="M268.32 84.5273H241.917C241.861 84.5273 241.808 84.5054 241.769 84.4663C241.73 84.4272 241.708 84.3742 241.708 84.319C241.708 84.2638 241.73 84.2108 241.769 84.1717C241.808 84.1326 241.861 84.1107 241.917 84.1107H268.32C268.376 84.1107 268.429 84.1326 268.468 84.1717C268.507 84.2108 268.529 84.2638 268.529 84.319C268.529 84.3742 268.507 84.4272 268.468 84.4663C268.429 84.5054 268.376 84.5273 268.32 84.5273Z" fill="#292A2E"/>
<path d="M290.568 84.5273H273.346C273.29 84.5273 273.237 84.5054 273.198 84.4663C273.159 84.4272 273.137 84.3742 273.137 84.319C273.137 84.2638 273.159 84.2108 273.198 84.1717C273.237 84.1326 273.29 84.1107 273.346 84.1107H290.567C290.623 84.1107 290.676 84.1326 290.715 84.1717C290.754 84.2108 290.776 84.2638 290.776 84.319C290.776 84.3742 290.754 84.4272 290.715 84.4663C290.676 84.5054 290.623 84.5273 290.567 84.5273H290.568Z" fill="#0CBC8B"/>
<path d="M258.267 92.0432H232.697C232.642 92.0432 232.589 92.0213 232.55 91.9822C232.511 91.9431 232.489 91.8901 232.489 91.8349C232.489 91.7797 232.511 91.7267 232.55 91.6876C232.589 91.6485 232.642 91.6266 232.697 91.6266H258.267C258.322 91.6266 258.375 91.6485 258.414 91.6876C258.453 91.7267 258.475 91.7797 258.475 91.8349C258.475 91.8901 258.453 91.9431 258.414 91.9822C258.375 92.0213 258.322 92.0432 258.267 92.0432Z" fill="#0CBC8B"/>
<path d="M272.494 92.0432H262.786C262.73 92.0432 262.677 92.0213 262.638 91.9822C262.599 91.9431 262.577 91.8901 262.577 91.8349C262.577 91.7797 262.599 91.7267 262.638 91.6876C262.677 91.6485 262.73 91.6266 262.786 91.6266H272.494C272.55 91.6266 272.603 91.6485 272.642 91.6876C272.681 91.7267 272.703 91.7797 272.703 91.8349C272.703 91.8901 272.681 91.9431 272.642 91.9822C272.603 92.0213 272.55 92.0432 272.494 92.0432Z" fill="#292A2E"/>
<path d="M290.532 92.0432H276.65C276.594 92.0432 276.541 92.0213 276.502 91.9822C276.463 91.9431 276.441 91.8901 276.441 91.8349C276.441 91.7797 276.463 91.7267 276.502 91.6876C276.541 91.6485 276.594 91.6266 276.65 91.6266H290.532C290.587 91.6266 290.64 91.6485 290.68 91.6876C290.719 91.7267 290.741 91.7797 290.741 91.8349C290.741 91.8901 290.719 91.9431 290.68 91.9822C290.64 92.0213 290.587 92.0432 290.532 92.0432Z" fill="#A0BA3B"/>
<path d="M219.286 96.0644C219.231 96.0644 219.178 96.0425 219.139 96.0034C219.1 95.9644 219.078 95.9114 219.078 95.8561V36.6295C219.078 36.5742 219.1 36.5212 219.139 36.4822C219.178 36.4431 219.231 36.4212 219.286 36.4212C219.342 36.4212 219.395 36.4431 219.434 36.4822C219.473 36.5212 219.495 36.5742 219.495 36.6295V95.8561C219.495 95.9114 219.473 95.9644 219.434 96.0034C219.395 96.0425 219.342 96.0644 219.286 96.0644Z" fill="#292A2E"/>
<path d="M289.18 32.6703C291.03 32.6703 292.529 31.174 292.529 29.3282C292.529 27.4823 291.03 25.986 289.18 25.986C287.331 25.986 285.832 27.4823 285.832 29.3282C285.832 31.174 287.331 32.6703 289.18 32.6703Z" fill="white"/>
<path d="M209.741 39.2317H200.704C200.649 39.2317 200.596 39.2097 200.556 39.1707C200.517 39.1316 200.495 39.0786 200.495 39.0234C200.495 38.9681 200.517 38.9151 200.556 38.8761C200.596 38.837 200.649 38.8151 200.704 38.8151H209.741C209.797 38.8151 209.85 38.837 209.889 38.8761C209.928 38.9151 209.95 38.9681 209.95 39.0234C209.95 39.0786 209.928 39.1316 209.889 39.1707C209.85 39.2097 209.797 39.2317 209.741 39.2317Z" fill="#292A2E"/>
<path d="M207.019 43.3404H200.704C200.649 43.3404 200.596 43.3185 200.556 43.2794C200.517 43.2403 200.495 43.1874 200.495 43.1321C200.495 43.0769 200.517 43.0239 200.556 42.9848C200.596 42.9457 200.649 42.9238 200.704 42.9238H207.019C207.074 42.9238 207.127 42.9457 207.166 42.9848C207.205 43.0239 207.227 43.0769 207.227 43.1321C207.227 43.1874 207.205 43.2403 207.166 43.2794C207.127 43.3185 207.074 43.3404 207.019 43.3404Z" fill="#292A2E"/>
<path d="M212.572 47.4492H200.704C200.649 47.4492 200.596 47.4272 200.556 47.3881C200.517 47.3491 200.495 47.2961 200.495 47.2408C200.495 47.1856 200.517 47.1326 200.556 47.0935C200.596 47.0545 200.649 47.0325 200.704 47.0325H212.572C212.627 47.0325 212.68 47.0545 212.719 47.0935C212.759 47.1326 212.781 47.1856 212.781 47.2408C212.781 47.2961 212.759 47.3491 212.719 47.3881C212.68 47.4272 212.627 47.4492 212.572 47.4492Z" fill="#292A2E"/>
<path d="M214.786 51.5579H204.878C204.822 51.5579 204.769 51.5359 204.73 51.4969C204.691 51.4578 204.669 51.4048 204.669 51.3496C204.669 51.2943 204.691 51.2413 204.73 51.2023C204.769 51.1632 204.822 51.1413 204.878 51.1413H214.786C214.842 51.1413 214.895 51.1632 214.934 51.2023C214.973 51.2413 214.995 51.2943 214.995 51.3496C214.995 51.4048 214.973 51.4578 214.934 51.4969C214.895 51.5359 214.842 51.5579 214.786 51.5579Z" fill="#292A2E"/>
<path d="M209.995 55.667H204.878C204.822 55.667 204.769 55.6451 204.73 55.606C204.691 55.567 204.669 55.514 204.669 55.4587C204.669 55.4035 204.691 55.3505 204.73 55.3114C204.769 55.2724 204.822 55.2504 204.878 55.2504H209.995C210.05 55.2504 210.103 55.2724 210.142 55.3114C210.182 55.3505 210.204 55.4035 210.204 55.4587C210.204 55.514 210.182 55.567 210.142 55.606C210.103 55.6451 210.05 55.667 209.995 55.667Z" fill="#292A2E"/>
<path d="M213.915 59.7758H204.878C204.822 59.7758 204.769 59.7538 204.73 59.7147C204.691 59.6757 204.669 59.6227 204.669 59.5674C204.669 59.5122 204.691 59.4592 204.73 59.4201C204.769 59.3811 204.822 59.3591 204.878 59.3591H213.915C213.97 59.3591 214.023 59.3811 214.063 59.4201C214.102 59.4592 214.124 59.5122 214.124 59.5674C214.124 59.6227 214.102 59.6757 214.063 59.7147C214.023 59.7538 213.97 59.7758 213.915 59.7758Z" fill="#292A2E"/>
<path d="M207.672 63.8845H200.704C200.649 63.8845 200.596 63.8625 200.556 63.8235C200.517 63.7844 200.495 63.7314 200.495 63.6762C200.495 63.6209 200.517 63.5679 200.556 63.5289C200.596 63.4898 200.649 63.4679 200.704 63.4679H207.672C207.728 63.4679 207.781 63.4898 207.82 63.5289C207.859 63.5679 207.881 63.6209 207.881 63.6762C207.881 63.7314 207.859 63.7844 207.82 63.8235C207.781 63.8625 207.728 63.8845 207.672 63.8845Z" fill="#292A2E"/>
<path d="M205.277 67.9928H200.704C200.649 67.9928 200.596 67.9709 200.556 67.9318C200.517 67.8927 200.495 67.8398 200.495 67.7845C200.495 67.7293 200.517 67.6763 200.556 67.6372C200.596 67.5982 200.649 67.5762 200.704 67.5762H205.277C205.332 67.5762 205.385 67.5982 205.424 67.6372C205.464 67.6763 205.486 67.7293 205.486 67.7845C205.486 67.8398 205.464 67.8927 205.424 67.9318C205.385 67.9709 205.332 67.9928 205.277 67.9928Z" fill="#292A2E"/>
<path d="M222.763 38.3501V38.4251L225.372 39.3917C225.409 39.4068 225.441 39.4328 225.463 39.4662C225.486 39.4996 225.497 39.539 225.497 39.5791V39.65C225.498 39.6813 225.49 39.7122 225.476 39.7399C225.461 39.7676 225.44 39.7911 225.414 39.8083C225.387 39.8269 225.356 39.8386 225.324 39.8422C225.292 39.8459 225.259 39.8413 225.23 39.8291L222.283 38.6792C222.246 38.6646 222.215 38.6393 222.193 38.6067C222.17 38.574 222.158 38.5354 222.158 38.4959V38.2835C222.158 38.2438 222.169 38.205 222.192 38.1722C222.214 38.1395 222.246 38.1143 222.283 38.1001L225.23 36.9461C225.254 36.9379 225.279 36.9337 225.305 36.9336C225.343 36.9344 225.381 36.9459 225.414 36.9669C225.44 36.985 225.461 37.0093 225.476 37.0376C225.49 37.066 225.498 37.0975 225.497 37.1294V37.2002C225.498 37.24 225.486 37.2791 225.464 37.3119C225.441 37.3448 225.409 37.3698 225.372 37.3835L222.763 38.3501Z" fill="#A0BA3B"/>
<path d="M227.934 36.0962L226.373 40.8665C226.36 40.9063 226.335 40.9411 226.302 40.9658C226.268 40.9905 226.227 41.0039 226.185 41.004C226.155 41.0045 226.125 40.9975 226.098 40.9837C226.071 40.9699 226.048 40.9497 226.031 40.9248C226.012 40.9002 226 40.8716 225.994 40.8412C225.988 40.8109 225.99 40.7796 225.998 40.7499L227.559 35.9837C227.572 35.9431 227.598 35.9077 227.632 35.8823C227.666 35.8569 227.708 35.8429 227.751 35.842C227.781 35.8419 227.811 35.8491 227.837 35.8628C227.864 35.8766 227.887 35.8966 227.905 35.9212C227.924 35.9458 227.936 35.9746 227.941 36.0051C227.946 36.0356 227.944 36.0668 227.934 36.0962Z" fill="#A0BA3B"/>
<path d="M231.767 38.2834V38.4959C231.768 38.5351 231.757 38.5735 231.735 38.6062C231.714 38.6389 231.683 38.6643 231.646 38.6792L228.696 39.8291C228.666 39.8412 228.634 39.8457 228.603 39.842C228.572 39.8384 228.542 39.8268 228.516 39.8083C228.489 39.7913 228.467 39.768 228.452 39.7403C228.437 39.7126 228.429 39.6816 228.428 39.65V39.5791C228.428 39.5384 228.44 39.4986 228.463 39.465C228.487 39.4315 228.52 39.4059 228.558 39.3917L231.166 38.4251V38.3501L228.558 37.3835C228.519 37.3708 228.486 37.3461 228.463 37.3131C228.44 37.2802 228.427 37.2406 228.428 37.2002V37.1294C228.429 37.0972 228.437 37.0656 228.452 37.0372C228.467 37.0089 228.489 36.9848 228.516 36.9669C228.548 36.946 228.586 36.9345 228.625 36.9336C228.649 36.9333 228.673 36.9376 228.696 36.9461L231.646 38.1001C231.683 38.1146 231.714 38.1399 231.736 38.1727C231.758 38.2055 231.769 38.2442 231.767 38.2834Z" fill="#A0BA3B"/>
<path d="M172.756 0H25.7422V146.745H172.756V0Z" fill="#F4F4F4"/>
<path d="M25.7422 0H24.0573V146.745H25.7422V0Z" fill="#F4F4F4"/>
<path opacity="0.05" d="M25.7422 0H24.0573V146.745H25.7422V0Z" fill="#292A2E"/>
<path opacity="0.05" d="M61.3569 101.119V62.7259H92.8645V85.0318H141.669V124.526H162.412V146.745H141.669H137.673H32.8145V101.119H61.3569Z" fill="#292A2E"/>
<path opacity="0.34" d="M88.82 66.8946H65.8759V71.0633H88.82V66.8946Z" fill="#FFFFFA"/>
<path opacity="0.34" d="M88.82 75.5329H65.8759V79.7016H88.82V75.5329Z" fill="#FFFFFA"/>
<path opacity="0.34" d="M88.82 84.1711H65.8759V88.3398H88.82V84.1711Z" fill="#FFFFFA"/>
<path opacity="0.34" d="M41.1116 105.166H36.8827V109.334H41.1116V105.166Z" fill="#FFFFFA"/>
<path opacity="0.34" d="M41.1116 113.804H36.8827V117.973H41.1116V113.804Z" fill="#FFFFFA"/>
<path opacity="0.34" d="M41.1116 122.442H36.8827V126.611H41.1116V122.442Z" fill="#FFFFFA"/>
<path opacity="0.34" d="M48.9351 105.166H44.7062V109.334H48.9351V105.166Z" fill="#FFFFFA"/>
<path opacity="0.34" d="M48.9351 113.804H44.7062V117.973H48.9351V113.804Z" fill="#FFFFFA"/>
<path opacity="0.34" d="M48.9351 122.442H44.7062V126.611H48.9351V122.442Z" fill="#FFFFFA"/>
<path opacity="0.34" d="M56.5474 105.166H52.3184V109.334H56.5474V105.166Z" fill="#FFFFFA"/>
<path opacity="0.34" d="M56.5474 113.804H52.3184V117.973H56.5474V113.804Z" fill="#FFFFFA"/>
<path opacity="0.34" d="M56.5474 122.442H52.3184V126.611H56.5474V122.442Z" fill="#FFFFFA"/>
<path d="M25.7422 72.5494H55.324V0H57.7703V72.5494H137.673V0H140.12V72.5494H172.756V74.9912H140.12V146.745H137.673V74.9912H57.7703V146.745H55.324V74.9912H25.7422V72.5494Z" fill="white"/>
<path d="M178.613 146.568H19.8859V151.448H178.613V146.568Z" fill="#F4F4F4"/>
<path opacity="0.1" d="M178.613 146.568H19.8859V151.448H178.613V146.568Z" fill="#292A2E"/>
<path opacity="0.1" d="M19.8859 146.568H17.5941V151.448H19.8859V146.568Z" fill="#292A2E"/>
<path opacity="0.1" d="M19.8859 146.568H17.5941V151.448H19.8859V146.568Z" fill="#292A2E"/>
<path d="M24.0573 6.24768L172.756 6.24768V2.61931L24.0573 2.61931V6.24768Z" fill="white"/>
<path d="M24.0573 13.0253L172.756 13.0253V9.39693L24.0573 9.39693V13.0253Z" fill="white"/>
<path d="M24.0573 19.8025L172.756 19.8025V16.1741L24.0573 16.1741V19.8025Z" fill="white"/>
<path d="M24.0573 26.5797L172.756 26.5797V22.9513L24.0573 22.9513V26.5797Z" fill="white"/>
<path d="M24.0573 33.3565L172.756 33.3565V29.7281L24.0573 29.7281V33.3565Z" fill="white"/>
<path d="M39.8507 37.449H42.0792L42.0792 0H39.8507L39.8507 37.449Z" fill="white"/>
<path d="M40.7761 42.8271C42.4669 42.8271 43.8376 41.459 43.8376 39.7712C43.8376 38.0835 42.4669 36.7153 40.7761 36.7153C39.0852 36.7153 37.7145 38.0835 37.7145 39.7712C37.7145 41.459 39.0852 42.8271 40.7761 42.8271Z" fill="white"/>
<path d="M25.3553 350.72L24.5356 350.562L37.3476 223.479L38.1674 223.637L25.3553 350.72Z" fill="#494949"/>
<path d="M73.0616 350.72L72.2419 350.562L85.0535 223.479L85.8733 223.637L73.0616 350.72Z" fill="#494949"/>
<path d="M178.513 350.72L179.333 350.562L166.521 223.479L165.701 223.637L178.513 350.72Z" fill="#494949"/>
<path d="M130.807 350.72L131.627 350.562L118.815 223.479L117.995 223.637L130.807 350.72Z" fill="#494949"/>
<path d="M113.816 167.55L112.989 167.66L120.474 223.614L121.301 223.504L113.816 167.55Z" fill="#494949"/>
<path d="M27.9083 167.549L27.0809 167.659L34.5654 223.614L35.3928 223.503L27.9083 167.549Z" fill="#494949"/>
<path d="M121.229 219.461H37.2007C34.9336 219.461 33.0958 221.295 33.0958 223.558V223.558C33.0958 225.821 34.9336 227.656 37.2007 227.656H121.229C123.496 227.656 125.334 225.821 125.334 223.558V223.558C125.334 221.295 123.496 219.461 121.229 219.461Z" fill="#292A2E"/>
<path opacity="0.8" d="M121.229 219.461H37.2007C34.9336 219.461 33.0958 221.295 33.0958 223.558V223.558C33.0958 225.821 34.9336 227.656 37.2007 227.656H121.229C123.496 227.656 125.334 225.821 125.334 223.558V223.558C125.334 221.295 123.496 219.461 121.229 219.461Z" fill="white"/>
<path d="M121.229 228.072H37.2011C36.6073 228.072 36.0192 227.955 35.4705 227.729C34.9218 227.502 34.4233 227.169 34.0033 226.75C33.5834 226.331 33.2503 225.833 33.023 225.286C32.7957 224.738 32.6788 224.151 32.6788 223.558C32.6788 222.965 32.7957 222.378 33.023 221.831C33.2503 221.283 33.5834 220.785 34.0033 220.366C34.4233 219.947 34.9218 219.614 35.4705 219.388C36.0192 219.161 36.6073 219.044 37.2011 219.044H121.229C121.823 219.044 122.411 219.161 122.959 219.388C123.508 219.614 124.007 219.947 124.427 220.366C124.846 220.785 125.18 221.283 125.407 221.831C125.634 222.378 125.751 222.965 125.751 223.558C125.751 224.151 125.634 224.738 125.407 225.286C125.18 225.833 124.846 226.331 124.427 226.75C124.007 227.169 123.508 227.502 122.959 227.729C122.411 227.955 121.823 228.072 121.229 228.072ZM37.2011 219.877C36.7169 219.877 36.2374 219.972 35.79 220.157C35.3426 220.342 34.936 220.613 34.5936 220.955C34.2512 221.297 33.9796 221.703 33.7942 222.149C33.6089 222.596 33.5135 223.075 33.5135 223.558C33.5135 224.041 33.6089 224.52 33.7942 224.967C33.9796 225.413 34.2512 225.819 34.5936 226.161C34.936 226.503 35.3426 226.774 35.79 226.959C36.2374 227.144 36.7169 227.239 37.2011 227.239H121.229C121.713 227.239 122.193 227.144 122.64 226.959C123.087 226.774 123.494 226.503 123.836 226.161C124.179 225.819 124.45 225.413 124.636 224.967C124.821 224.52 124.916 224.041 124.916 223.558C124.916 223.075 124.821 222.596 124.636 222.149C124.45 221.703 124.179 221.297 123.836 220.955C123.494 220.613 123.087 220.342 122.64 220.157C122.193 219.972 121.713 219.877 121.229 219.877H37.2011Z" fill="#292A2E"/>
<path d="M167.348 219.461H83.3201C81.053 219.461 79.2151 221.295 79.2151 223.558V223.558C79.2151 225.821 81.053 227.656 83.3201 227.656H167.348C169.615 227.656 171.453 225.821 171.453 223.558V223.558C171.453 221.295 169.615 219.461 167.348 219.461Z" fill="white"/>
<path d="M167.348 228.072H83.3202C82.7263 228.072 82.1382 227.955 81.5895 227.729C81.0408 227.502 80.5423 227.169 80.1224 226.75C79.7024 226.331 79.3693 225.833 79.142 225.286C78.9148 224.738 78.7978 224.151 78.7978 223.558C78.7978 222.965 78.9148 222.378 79.142 221.831C79.3693 221.283 79.7024 220.785 80.1224 220.366C80.5423 219.947 81.0408 219.614 81.5895 219.388C82.1382 219.161 82.7263 219.044 83.3202 219.044H167.348C167.942 219.044 168.53 219.161 169.079 219.388C169.627 219.614 170.126 219.947 170.546 220.366C170.966 220.785 171.299 221.283 171.526 221.831C171.754 222.378 171.871 222.965 171.871 223.558C171.871 224.151 171.754 224.738 171.526 225.286C171.299 225.833 170.966 226.331 170.546 226.75C170.126 227.169 169.627 227.502 169.079 227.729C168.53 227.955 167.942 228.072 167.348 228.072ZM83.3202 219.877C82.8359 219.877 82.3564 219.972 81.909 220.157C81.4616 220.342 81.0551 220.613 80.7126 220.955C80.3702 221.297 80.0986 221.703 79.9133 222.149C79.7279 222.596 79.6326 223.075 79.6326 223.558C79.6326 224.041 79.7279 224.52 79.9133 224.967C80.0986 225.413 80.3702 225.819 80.7126 226.161C81.0551 226.503 81.4616 226.774 81.909 226.959C82.3564 227.144 82.8359 227.239 83.3202 227.239H167.348C167.832 227.239 168.312 227.144 168.759 226.959C169.207 226.774 169.613 226.503 169.956 226.161C170.298 225.819 170.57 225.413 170.755 224.967C170.94 224.52 171.036 224.041 171.036 223.558C171.036 223.075 170.94 222.596 170.755 222.149C170.57 221.703 170.298 221.297 169.956 220.955C169.613 220.613 169.207 220.342 168.759 220.157C168.312 219.972 167.832 219.877 167.348 219.877H83.3202Z" fill="#292A2E"/>
<path d="M109.213 167.604H27.7198C26.3874 167.604 25.1006 167.12 24.0994 166.242C23.0983 165.365 22.4513 164.153 22.2792 162.834L16.8887 121.514C16.7879 120.742 16.8534 119.957 17.0808 119.212C17.3082 118.466 17.6922 117.778 18.2072 117.193C18.7222 116.608 19.3564 116.139 20.0673 115.818C20.7783 115.497 21.5498 115.331 22.3301 115.331H103.823C105.155 115.331 106.442 115.815 107.443 116.692C108.444 117.57 109.091 118.781 109.263 120.1L114.653 161.42C114.754 162.193 114.689 162.978 114.461 163.723C114.234 164.468 113.85 165.156 113.335 165.741C112.82 166.327 112.186 166.795 111.476 167.117C110.765 167.438 109.993 167.604 109.213 167.604Z" fill="#292A2E"/>
<path opacity="0.8" d="M109.213 167.604H27.7198C26.3874 167.604 25.1006 167.12 24.0994 166.242C23.0983 165.365 22.4513 164.153 22.2792 162.834L16.8887 121.514C16.7879 120.742 16.8534 119.957 17.0808 119.212C17.3082 118.466 17.6922 117.778 18.2072 117.193C18.7222 116.608 19.3564 116.139 20.0673 115.818C20.7783 115.497 21.5498 115.331 22.3301 115.331H103.823C105.155 115.331 106.442 115.815 107.443 116.692C108.444 117.57 109.091 118.781 109.263 120.1L114.653 161.42C114.754 162.193 114.689 162.978 114.461 163.723C114.234 164.468 113.85 165.156 113.335 165.741C112.82 166.327 112.186 166.795 111.476 167.117C110.765 167.438 109.993 167.604 109.213 167.604Z" fill="white"/>
<path d="M109.213 168.021H27.7198C26.2869 168.017 24.9038 167.495 23.8272 166.552C22.7505 165.608 22.0534 164.306 21.8652 162.888L16.475 121.568C16.3665 120.737 16.4369 119.892 16.6815 119.09C16.9261 118.288 17.3393 117.548 17.8934 116.918C18.4476 116.288 19.13 115.783 19.8951 115.438C20.6602 115.092 21.4904 114.914 22.3301 114.914H103.823C105.255 114.917 106.639 115.439 107.715 116.383C108.792 117.327 109.489 118.628 109.677 120.046L115.067 161.367C115.176 162.198 115.105 163.042 114.861 163.844C114.616 164.646 114.203 165.387 113.649 166.016C113.095 166.646 112.413 167.151 111.648 167.496C110.883 167.842 110.053 168.021 109.213 168.021ZM22.3301 115.747C21.6092 115.747 20.8965 115.9 20.2398 116.197C19.583 116.494 18.9972 116.927 18.5214 117.468C18.0457 118.009 17.691 118.644 17.481 119.333C17.271 120.021 17.2105 120.746 17.3036 121.46L22.6941 162.781C22.8556 163.998 23.454 165.116 24.3784 165.926C25.3028 166.737 26.4904 167.185 27.7207 167.187H109.213C109.934 167.187 110.646 167.033 111.303 166.737C111.96 166.44 112.545 166.007 113.021 165.466C113.497 164.925 113.851 164.289 114.061 163.601C114.271 162.913 114.331 162.188 114.238 161.474L108.849 120.154C108.688 118.937 108.089 117.819 107.165 117.009C106.24 116.198 105.053 115.75 103.823 115.747L22.3301 115.747Z" fill="#292A2E"/>
<path d="M113.821 167.604H32.3277C30.9954 167.604 29.7085 167.12 28.7075 166.242C27.7064 165.365 27.0595 164.153 26.8875 162.834L21.4953 121.514C21.3946 120.742 21.4601 119.957 21.6874 119.212C21.9147 118.467 22.2986 117.779 22.8135 117.193C23.3285 116.608 23.9625 116.139 24.6734 115.818C25.3843 115.497 26.1556 115.331 26.9359 115.331H108.431C109.763 115.331 111.05 115.815 112.051 116.692C113.052 117.57 113.699 118.781 113.871 120.1L119.262 161.42C119.362 162.193 119.297 162.978 119.07 163.723C118.842 164.468 118.458 165.156 117.943 165.741C117.428 166.327 116.794 166.795 116.084 167.117C115.373 167.438 114.601 167.604 113.821 167.604Z" fill="white"/>
<path d="M113.821 168.021H32.3277C30.8949 168.017 29.5118 167.495 28.4353 166.552C27.3587 165.608 26.6616 164.306 26.4735 162.888L21.083 121.568C20.9746 120.737 21.045 119.892 21.2897 119.09C21.5343 118.289 21.9474 117.548 22.5015 116.918C23.0556 116.288 23.7379 115.784 24.5029 115.438C25.2679 115.093 26.0979 114.914 26.9376 114.914H108.43C109.863 114.917 111.246 115.439 112.323 116.383C113.4 117.327 114.097 118.628 114.285 120.046L119.676 161.367C119.784 162.198 119.713 163.042 119.469 163.844C119.224 164.646 118.811 165.386 118.257 166.016C117.703 166.646 117.021 167.15 116.256 167.496C115.491 167.842 114.661 168.021 113.821 168.021ZM26.9376 115.747C26.2168 115.747 25.5043 115.901 24.8478 116.198C24.1912 116.495 23.6056 116.928 23.13 117.469C22.6545 118.01 22.2999 118.645 22.09 119.334C21.8801 120.022 21.8197 120.747 21.9127 121.461L27.3012 162.781C27.4628 163.998 28.0613 165.116 28.9857 165.926C29.9101 166.736 31.0975 167.184 32.3277 167.187H113.821C114.542 167.187 115.255 167.034 115.911 166.737C116.568 166.44 117.154 166.007 117.63 165.466C118.105 164.926 118.46 164.29 118.67 163.601C118.88 162.913 118.941 162.188 118.848 161.474L113.457 120.154C113.296 118.937 112.697 117.819 111.773 117.009C110.848 116.198 109.661 115.75 108.43 115.747L26.9376 115.747Z" fill="#292A2E"/>
<path d="M177.168 177.038L176.338 177.122L193.933 350.999L194.764 350.916L177.168 177.038Z" fill="#494949"/>
<path d="M105.039 51.8958C105.039 51.8958 110.454 47.8158 111.796 38.4243C112.835 31.153 106.115 35.8637 106.115 35.8637C106.115 35.8637 106.812 30.6205 102.984 31.1409C99.1571 31.6612 97.0159 37.169 97.0159 37.169" fill="#0C0C0C"/>
<path d="M83.205 31.7546C83.205 31.7546 64.2161 33.7881 71.0808 59.4704L72.7612 59.5829L76.1721 59.8112" fill="#0C0C0C"/>
<path d="M101.858 86.2934C101.775 86.2826 100.848 101.625 82.99 100.289C70.6271 99.3645 66.2191 86.2717 65.9357 86.2717C67.2688 85.9893 68.9158 85.5597 69.5707 85.4127C70.9974 85.0821 72.2895 84.3257 73.275 83.2442C74.2605 82.1627 74.8928 80.8073 75.0877 79.3583C75.4495 77.1835 74.8372 66.0564 75.0246 63.8558L94.0019 68.0837C93.7369 72.7315 91.8808 83.5058 98.3845 85.4127C99.4684 85.728 100.634 86.018 101.858 86.2934Z" fill="#E98862"/>
<path opacity="0.52" d="M94.2686 81.0094C93.9714 80.053 93.7799 79.0671 93.6976 78.0692C93.4893 75.7922 93.5313 73.4992 93.8228 71.2312C89.9657 70.7117 86.3319 69.1226 83.3344 66.6446C82.9821 67.9437 81.0442 73.6197 81.5813 74.8542C82.5935 77.1881 87.3588 81.0094 94.2686 81.0094Z" fill="#0C0C0C"/>
<path d="M90.3519 77.9726C82.8648 77.3022 73.904 72.5807 73.775 62.4363L73.6582 53.2831C73.5292 43.1392 78.7619 34.848 88.3309 34.7263C97.8995 34.6051 105.157 42.7376 105.286 52.8819L105.337 56.934C105.331 58.3257 105.229 59.7153 105.033 61.0931C104.542 64.7386 103.781 70.2809 101.303 74.0301C98.9621 77.5697 95.1347 78.4005 90.3519 77.9726Z" fill="#E98862"/>
<path d="M93.8254 68.7011C95.3704 68.771 96.9102 68.4774 98.3206 67.8441C98.3498 67.8317 98.3762 67.8136 98.3984 67.791C98.4206 67.7684 98.4381 67.7417 98.4499 67.7123C98.4617 67.6829 98.4676 67.6515 98.4673 67.6199C98.4669 67.5883 98.4604 67.557 98.4479 67.5279C98.4355 67.4988 98.4174 67.4724 98.3948 67.4503C98.3721 67.4281 98.3453 67.4107 98.3159 67.3989C98.2865 67.3871 98.255 67.3812 98.2233 67.3815C98.1916 67.3818 98.1603 67.3884 98.1311 67.4008C95.0926 68.6944 92.3332 68.5049 90.152 66.853C90.108 66.8181 90.0622 66.7857 90.0147 66.7559C89.9598 66.7305 89.8975 66.7266 89.8399 66.7448C89.7823 66.7631 89.7337 66.8022 89.7036 66.8545C89.6734 66.9068 89.664 66.9684 89.6772 67.0273C89.6904 67.0862 89.7251 67.138 89.7747 67.1725C89.7922 67.1833 89.8202 67.2054 89.8581 67.2358C91.005 68.1075 92.3863 68.6177 93.8254 68.7011Z" fill="#0C0C0C"/>
<path d="M93.7531 70.9854C94.0323 71.0026 94.3124 70.9959 94.5904 70.9654C94.654 70.9587 94.7124 70.927 94.7526 70.8773C94.7929 70.8276 94.8117 70.764 94.8049 70.7005C94.7982 70.6369 94.7664 70.5787 94.7166 70.5385C94.6668 70.4983 94.6031 70.4796 94.5395 70.4863C92.867 70.6638 92.069 69.8989 92.0351 69.866C91.9899 69.8207 91.9285 69.7952 91.8645 69.7952C91.8005 69.7951 91.7391 69.8204 91.6937 69.8655C91.6484 69.9107 91.6229 69.9719 91.6228 70.0358C91.6227 70.0998 91.6481 70.1611 91.6933 70.2063C92.2691 70.6958 92.9969 70.9711 93.7531 70.9854Z" fill="#0C0C0C"/>
<path d="M102.125 58.8846C102.776 58.8846 103.304 58.3579 103.304 57.7081C103.304 57.0583 102.776 56.5315 102.125 56.5315C101.474 56.5315 100.947 57.0583 100.947 57.7081C100.947 58.3579 101.474 58.8846 102.125 58.8846Z" fill="#0C0C0C"/>
<path d="M90.6106 58.1634C91.2616 58.1634 91.7893 57.6367 91.7893 56.9869C91.7893 56.3371 91.2616 55.8104 90.6106 55.8104C89.9597 55.8104 89.4319 56.3371 89.4319 56.9869C89.4319 57.6367 89.9597 58.1634 90.6106 58.1634Z" fill="#0C0C0C"/>
<path d="M74.4086 65.5193C71.5007 65.5564 69.1041 62.4809 69.0661 59.5783C69.0281 56.6757 71.3659 55.045 74.2738 55.0084L75.7968 56.934L76.9079 65.4877L74.4086 65.5193Z" fill="#E98862"/>
<path d="M77.2998 60.8552C77.2998 60.8552 78.2819 46.5013 82.6424 45.6148C85.5465 45.0244 92.5891 49.1365 99.112 47.8945C101.966 47.3529 104.675 48.0562 104.951 49.4019C105.06 49.9347 106.838 42.2776 102.369 36.4682C98.8106 31.8416 87.1664 30.5355 81.869 32.052C67.2008 36.2524 73.6736 55.64 73.6736 55.64L74.3276 60.5886L77.2998 60.8552Z" fill="#0C0C0C"/>
<path d="M95.5813 65.3127H95.6001C96.5371 65.3031 98.1077 65.1831 98.1014 64.4832C98.0952 63.9032 96.4423 57.661 96.2533 56.9511C96.2352 56.8921 96.1949 56.8424 96.141 56.8125C96.087 56.7825 96.0235 56.7746 95.9638 56.7904C95.9041 56.8062 95.8528 56.8445 95.8208 56.8972C95.7888 56.9499 95.7785 57.013 95.7921 57.0731C96.5262 59.8378 97.6198 64.094 97.6244 64.489C97.5338 64.6557 96.5659 64.8273 95.5955 64.8373C95.5343 64.8386 95.4759 64.8633 95.4325 64.9063C95.389 64.9494 95.3637 65.0074 95.3619 65.0685C95.3601 65.1295 95.3818 65.189 95.4227 65.2345C95.4635 65.28 95.5203 65.3082 95.5813 65.3131V65.3127Z" fill="#0C0C0C"/>
<path d="M98.7801 51.3279C99.7649 51.0573 100.805 51.0573 101.789 51.3279C102.273 51.4577 102.735 51.6594 103.158 51.9262C103.577 52.1874 103.961 52.5004 104.302 52.8577C104.367 52.9208 104.405 53.0068 104.407 53.0974C104.41 53.188 104.376 53.2759 104.315 53.3424C104.253 53.4088 104.168 53.4485 104.077 53.4529C103.986 53.4573 103.898 53.4261 103.83 53.366L103.808 53.3477C103.493 53.0566 103.143 52.8062 102.765 52.6024C102.394 52.3997 101.995 52.2542 101.581 52.1707C100.765 52 99.9191 52.0473 99.1278 52.3078L99.0944 52.3195C98.9638 52.3655 98.8203 52.358 98.6953 52.2984C98.5704 52.2388 98.4742 52.1321 98.4281 52.0018C98.3819 51.8715 98.3895 51.7282 98.4492 51.6034C98.5089 51.4787 98.6157 51.3827 98.7463 51.3367L98.7801 51.3279Z" fill="#0C0C0C"/>
<path d="M91.8065 51.9191C91.0571 51.5556 90.2249 51.3962 89.394 51.4571C88.9722 51.4844 88.5571 51.5755 88.1627 51.727C87.7618 51.879 87.3815 52.0806 87.0308 52.327L87.0082 52.342C86.9329 52.3901 86.8419 52.4075 86.7542 52.3904C86.6664 52.3734 86.5886 52.3232 86.5369 52.2504C86.4852 52.1776 86.4636 52.0877 86.4766 51.9993C86.4896 51.911 86.5362 51.8311 86.6067 51.7762C86.9917 51.4672 87.4142 51.2079 87.8643 51.0046C88.3199 50.7969 88.8042 50.6584 89.3009 50.5938C90.3131 50.456 91.3438 50.5939 92.284 50.9929C92.4113 51.0482 92.5114 51.1517 92.5622 51.2806C92.6131 51.4095 92.6106 51.5533 92.5553 51.6804C92.4999 51.8074 92.3963 51.9074 92.2671 51.9581C92.138 52.0089 91.9939 52.0064 91.8666 51.9512L91.8378 51.9374L91.8065 51.9191Z" fill="#0C0C0C"/>
<path d="M97.3784 41.4473C99.5309 40.9984 100.739 38.071 100.077 34.9088C99.4154 31.7465 97.1339 29.5469 94.9815 29.9958C92.8291 30.4447 91.6208 33.3721 92.2827 36.5343C92.9446 39.6966 95.226 41.8962 97.3784 41.4473Z" fill="#0C0C0C"/>
<path d="M217.425 329.023C217.425 329.023 219.663 340.602 230.524 341.248C241.385 341.893 239.03 350.53 239.03 350.53H197.524V329.831L217.425 329.023Z" fill="#A0BA3B"/>
<path d="M138.46 321.712C138.46 321.712 135.348 333.089 144.809 338.453C154.27 343.817 148.337 350.53 148.337 350.53L111.093 332.24L120.246 313.666L138.46 321.712Z" fill="#A0BA3B"/>
<path d="M115.393 318.499L146.801 219.597H89.8694C78.433 219.597 73.6656 209.917 73.6656 198.502C73.6656 187.087 84.9083 177.081 96.3439 177.081H173.18C180.155 177.081 187.976 181.339 191.804 187.159C195.633 192.979 194.598 201.998 191.824 208.386L141.529 330.318" fill="#262626"/>
<path opacity="0.8" d="M115.393 318.499L146.801 219.597H89.8694C78.433 219.597 73.6656 209.917 73.6656 198.502C73.6656 187.087 84.9083 177.081 96.3439 177.081H173.18C180.155 177.081 187.976 181.339 191.804 187.159C195.633 192.979 194.598 201.998 191.824 208.386L141.529 330.318" fill="#0A0A0A"/>
<path d="M195.137 339.777L142.621 219.597L73.6648 219.592C57.5074 218.328 50.1076 209.489 50.343 198.077C50.575 186.809 56.2907 175.68 67.528 175.68H160.468C168.782 175.851 175.324 185.022 178.408 192.73L222.067 332.419" fill="#262626"/>
<path d="M45.6399 175.818C45.6399 175.818 42.5775 195.752 47.4317 206.834C53.4917 220.67 76.2092 219.592 76.2092 219.592L74.929 175.68L45.6399 175.818Z" fill="#262626"/>
<path d="M180.384 175.426L131.675 165.351C129.645 164.931 127.755 164.007 126.178 162.665C124.601 161.322 123.388 159.604 122.653 157.67L103.495 107.278C102.912 105.765 102.633 104.153 102.676 102.533C102.719 100.913 103.082 99.3174 103.744 97.8378C104.407 96.3583 105.356 95.024 106.536 93.9115C107.717 92.7991 109.106 91.9304 110.624 91.3554C112.142 90.7804 113.759 90.5104 115.381 90.561C117.004 90.6115 118.601 90.9816 120.08 91.6499C121.559 92.3183 122.891 93.2717 124 94.4555C125.109 95.6393 125.972 97.03 126.541 98.5479L143.3 142.627L185.387 151.332C185.387 151.332 181.229 175.601 180.384 175.426Z" fill="#A0BA3B"/>
<path d="M124.047 120.074C123.485 126.671 119.497 167.824 118.955 175.949H45.672C45.2509 168.621 43.8839 137.508 42.287 123.179C40.7631 109.504 40.2101 101.701 41.9656 97.4518C45.0618 89.9568 52.8097 87.26 59.4837 86.358C63.5586 85.8076 69.6879 85.4127 69.6879 85.4127C69.6879 85.4127 70.2072 95.892 82.5818 96.4752C99.4271 97.2668 98.3022 85.4127 98.3857 85.4127C101.115 85.4127 115.969 87.3937 119.684 89.8101C124.93 93.2235 126.48 97.8747 126.542 102.148C126.612 107.069 124.685 112.594 124.047 120.074Z" fill="#A0BA3B"/>
<path d="M121.167 153.701H121.149C121.122 153.699 121.096 153.691 121.071 153.678C121.047 153.666 121.025 153.649 121.007 153.628C120.99 153.607 120.976 153.583 120.968 153.557C120.96 153.531 120.956 153.503 120.959 153.476L122.861 130.664C122.863 130.637 122.87 130.61 122.882 130.585C122.894 130.56 122.912 130.538 122.933 130.521C122.954 130.503 122.978 130.49 123.005 130.481C123.031 130.473 123.059 130.471 123.086 130.474C123.113 130.476 123.14 130.484 123.164 130.496C123.189 130.509 123.211 130.526 123.228 130.547C123.246 130.568 123.259 130.592 123.268 130.618C123.276 130.644 123.279 130.671 123.277 130.699L121.374 153.51C121.37 153.562 121.346 153.611 121.308 153.646C121.269 153.681 121.219 153.701 121.167 153.701Z" fill="#0C0C0C"/>
<path d="M156.068 167.392L172.148 118.054C172.43 117.187 172.98 116.431 173.719 115.895C174.458 115.36 175.348 115.071 176.262 115.071H245.945C246.628 115.071 247.301 115.232 247.91 115.542C248.518 115.851 249.045 116.3 249.446 116.852C249.847 117.403 250.112 118.042 250.219 118.715C250.325 119.388 250.271 120.077 250.059 120.726L229.806 170.065C229.524 170.932 228.973 171.688 228.234 172.224C227.495 172.759 226.605 173.048 225.692 173.048H160.182C159.499 173.048 158.826 172.887 158.217 172.577C157.609 172.268 157.082 171.819 156.681 171.267C156.28 170.715 156.015 170.076 155.908 169.403C155.802 168.729 155.857 168.04 156.068 167.392Z" fill="#292A2E"/>
<path d="M156.068 167.392L172.148 118.054C172.43 117.187 172.98 116.431 173.719 115.895C174.458 115.36 175.348 115.071 176.262 115.071H245.945C246.628 115.071 247.301 115.232 247.91 115.542C248.518 115.851 249.045 116.3 249.446 116.852C249.847 117.403 250.112 118.042 250.219 118.715C250.325 119.388 250.271 120.077 250.059 120.726L229.806 170.065C229.524 170.932 228.973 171.688 228.234 172.224C227.495 172.759 226.605 173.048 225.692 173.048H160.182C159.499 173.048 158.826 172.887 158.217 172.577C157.609 172.268 157.082 171.819 156.681 171.267C156.28 170.715 156.015 170.076 155.908 169.403C155.802 168.729 155.857 168.04 156.068 167.392Z" fill="#292A2E"/>
<path d="M169.185 169.045H125.333C124.24 169.045 123.354 169.93 123.354 171.02V171.071C123.354 172.162 124.24 173.046 125.333 173.046H169.185C170.278 173.046 171.163 172.162 171.163 171.071V171.02C171.163 169.93 170.278 169.045 169.185 169.045Z" fill="#292A2E"/>
<path d="M169.185 169.045H125.333C124.24 169.045 123.354 169.93 123.354 171.02V171.071C123.354 172.162 124.24 173.046 125.333 173.046H169.185C170.278 173.046 171.163 172.162 171.163 171.071V171.02C171.163 169.93 170.278 169.045 169.185 169.045Z" fill="#292A2E"/>
<path d="M200.977 153.324C204.771 153.324 207.847 150.253 207.847 146.466C207.847 142.678 204.771 139.608 200.977 139.608C197.182 139.608 194.106 142.678 194.106 146.466C194.106 150.253 197.182 153.324 200.977 153.324Z" fill="white"/>
<path d="M152.403 155.834L141.459 152.005L143.03 151.897C143.536 151.852 144.007 151.617 144.346 151.239C144.685 150.861 144.868 150.368 144.858 149.86C144.843 149.599 144.775 149.343 144.659 149.108C144.542 148.873 144.378 148.665 144.178 148.496C143.977 148.326 143.745 148.199 143.494 148.122C143.243 148.046 142.978 148.021 142.717 148.049L123.354 150.103L123.855 156.314C124.012 158.243 124.741 160.082 125.951 161.594C127.161 163.107 128.796 164.224 130.646 164.803L139.031 167.41C139.465 167.554 139.934 167.544 140.361 167.382C140.787 167.22 141.145 166.916 141.373 166.521C141.571 166.16 141.648 165.746 141.593 165.338C141.539 164.93 141.355 164.551 141.069 164.254C141.087 164.241 141.103 164.224 141.115 164.205C141.127 164.186 141.134 164.164 141.137 164.142C141.141 164.119 141.139 164.096 141.133 164.074C141.127 164.053 141.117 164.032 141.103 164.014L142.647 164.498C143.129 164.66 143.654 164.633 144.117 164.422C144.58 164.212 144.945 163.834 145.14 163.365C145.298 162.939 145.302 162.472 145.149 162.044C144.996 161.617 144.697 161.256 144.305 161.027C144.323 161.018 144.339 161.005 144.352 160.989L144.988 161.188C145.421 161.332 145.89 161.322 146.317 161.16C146.744 160.998 147.101 160.693 147.329 160.298C147.569 159.861 147.63 159.348 147.499 158.866C147.368 158.385 147.056 157.972 146.627 157.715C146.631 157.703 146.633 157.69 146.633 157.676L151.191 159.271C151.418 159.353 151.658 159.389 151.899 159.377C152.14 159.366 152.376 159.307 152.593 159.203C152.811 159.1 153.006 158.955 153.167 158.776C153.328 158.597 153.452 158.388 153.532 158.161C153.612 157.934 153.646 157.694 153.632 157.454C153.618 157.214 153.556 156.979 153.45 156.762C153.345 156.546 153.197 156.353 153.017 156.194C152.836 156.035 152.625 155.913 152.397 155.836L152.403 155.834Z" fill="#E98862"/>
<path opacity="0.2" d="M146.461 157.852C146.439 157.852 146.418 157.849 146.398 157.842L141.99 156.241C141.945 156.225 141.908 156.191 141.888 156.147C141.867 156.104 141.865 156.054 141.882 156.009C141.898 155.963 141.932 155.927 141.976 155.906C142.02 155.886 142.07 155.884 142.115 155.901L146.524 157.501C146.564 157.515 146.598 157.544 146.619 157.581C146.641 157.617 146.648 157.661 146.641 157.703C146.634 157.745 146.612 157.783 146.579 157.81C146.546 157.838 146.505 157.853 146.462 157.852H146.461Z" fill="#0A0A0A"/>
<path opacity="0.2" d="M144.231 161.052C144.211 161.052 144.19 161.048 144.17 161.041L140.696 159.811C140.673 159.803 140.651 159.791 140.633 159.775C140.615 159.759 140.6 159.74 140.589 159.718C140.579 159.697 140.572 159.673 140.571 159.649C140.57 159.625 140.573 159.601 140.581 159.578C140.589 159.555 140.602 159.534 140.618 159.516C140.634 159.499 140.654 159.484 140.676 159.474C140.698 159.464 140.722 159.458 140.746 159.457C140.77 159.456 140.794 159.46 140.817 159.469L144.292 160.7C144.332 160.714 144.366 160.742 144.388 160.779C144.409 160.816 144.417 160.859 144.41 160.901C144.403 160.943 144.381 160.981 144.348 161.009C144.316 161.037 144.274 161.052 144.231 161.052Z" fill="#0A0A0A"/>
<path opacity="0.2" d="M140.959 164.299C140.937 164.298 140.915 164.294 140.894 164.286L139.267 163.667C139.222 163.65 139.185 163.615 139.166 163.571C139.146 163.528 139.145 163.478 139.162 163.433C139.179 163.388 139.213 163.352 139.257 163.332C139.301 163.312 139.351 163.311 139.396 163.328L141.024 163.948C141.064 163.963 141.097 163.991 141.118 164.028C141.139 164.065 141.146 164.108 141.139 164.15C141.131 164.192 141.109 164.23 141.076 164.257C141.043 164.284 141.002 164.299 140.959 164.299H140.959Z" fill="#0A0A0A"/>
<path d="M131.925 146.427L86.0123 146.397L68.6432 104.104L42.7328 114.978L64.4026 165.173L64.6142 165.673C65.6744 168.112 67.4603 170.168 69.7299 171.561C71.9995 172.954 74.6431 173.616 77.3027 173.46L132.618 170.198L131.925 146.427Z" fill="#A0BA3B"/>
<path d="M76.5427 173.69C73.9688 173.685 71.4519 172.933 69.2997 171.523C67.1475 170.114 65.4532 168.11 64.4239 165.755L64.2119 165.255L45.7455 122.487L46.1286 122.32L64.8066 165.591C65.8547 167.988 67.6129 170.007 69.8448 171.376C72.0766 172.746 74.675 173.4 77.2906 173.252L132.403 170.002L131.721 146.637L85.8717 146.606L72.5153 114.087L72.9018 113.93L86.1509 146.189L132.126 146.22L132.833 170.394L132.63 170.406L77.3165 173.667C77.0582 173.682 76.799 173.69 76.5427 173.69Z" fill="#0C0C0C"/>
<path d="M25.4753 177.041L7.86725 350.917L8.69779 351.001L26.3058 177.125L25.4753 177.041Z" fill="#494949"/>
<path d="M98.2248 177.041L80.6168 350.917L81.4473 351L99.0553 177.125L98.2248 177.041Z" fill="#494949"/>
<path d="M249.917 177.038L249.087 177.122L266.683 350.999L267.513 350.915L249.917 177.038Z" fill="#494949"/>
<path d="M265.784 173.667H10.7606C8.87179 173.667 7.34058 175.195 7.34058 177.081C7.34058 178.966 8.87179 180.494 10.7606 180.494H265.784C267.673 180.494 269.204 178.966 269.204 177.081C269.204 175.195 267.673 173.667 265.784 173.667Z" fill="#292A2E"/>
<path opacity="0.8" d="M265.784 173.667H10.7606C8.87179 173.667 7.34058 175.195 7.34058 177.081C7.34058 178.966 8.87179 180.494 10.7606 180.494H265.784C267.673 180.494 269.204 178.966 269.204 177.081C269.204 175.195 267.673 173.667 265.784 173.667Z" fill="white"/>
<path d="M265.785 180.911H10.7623C10.255 180.916 9.75171 180.821 9.28152 180.631C8.81132 180.441 8.38356 180.159 8.02297 179.803C7.66239 179.447 7.37614 179.023 7.18078 178.556C6.98542 178.088 6.88483 177.587 6.88483 177.081C6.88483 176.574 6.98542 176.073 7.18078 175.606C7.37614 175.138 7.66239 174.714 8.02297 174.358C8.38356 174.002 8.81132 173.721 9.28152 173.53C9.75171 173.34 10.255 173.245 10.7623 173.25H265.785C266.292 173.245 266.795 173.34 267.266 173.53C267.736 173.721 268.163 174.002 268.524 174.358C268.885 174.714 269.171 175.138 269.366 175.606C269.562 176.073 269.662 176.574 269.662 177.081C269.662 177.587 269.562 178.088 269.366 178.556C269.171 179.023 268.885 179.447 268.524 179.803C268.163 180.159 267.736 180.441 267.266 180.631C266.795 180.821 266.292 180.916 265.785 180.911ZM10.7623 174.084C10.365 174.079 9.97077 174.153 9.60239 174.302C9.23401 174.45 8.89881 174.67 8.61623 174.949C8.33365 175.228 8.1093 175.56 7.95618 175.926C7.80306 176.291 7.72422 176.684 7.72422 177.081C7.72422 177.477 7.80306 177.87 7.95618 178.236C8.1093 178.602 8.33365 178.934 8.61623 179.212C8.89881 179.491 9.23401 179.711 9.60239 179.86C9.97077 180.008 10.365 180.082 10.7623 180.078H265.785C266.182 180.082 266.576 180.008 266.945 179.86C267.313 179.711 267.648 179.491 267.931 179.212C268.213 178.934 268.438 178.602 268.591 178.236C268.744 177.87 268.823 177.477 268.823 177.081C268.823 176.684 268.744 176.291 268.591 175.926C268.438 175.56 268.213 175.228 267.931 174.949C267.648 174.67 267.313 174.45 266.945 174.302C266.576 174.153 266.182 174.079 265.785 174.084H10.7623Z" fill="#292A2E"/>
<path d="M265.784 173.667H86.2911C84.4022 173.667 82.871 175.195 82.871 177.081C82.871 178.966 84.4022 180.494 86.2911 180.494H265.784C267.673 180.494 269.204 178.966 269.204 177.081C269.204 175.195 267.673 173.667 265.784 173.667Z" fill="white"/>
<path d="M265.785 180.911H86.2911C85.2803 180.9 84.3145 180.492 83.6035 179.775C82.8925 179.058 82.4937 178.09 82.4937 177.081C82.4937 176.072 82.8925 175.103 83.6035 174.386C84.3145 173.669 85.2803 173.261 86.2911 173.25H265.785C266.292 173.245 266.795 173.34 267.265 173.53C267.736 173.721 268.163 174.002 268.524 174.358C268.885 174.714 269.171 175.138 269.366 175.606C269.562 176.073 269.662 176.574 269.662 177.081C269.662 177.587 269.562 178.088 269.366 178.556C269.171 179.023 268.885 179.447 268.524 179.803C268.163 180.159 267.736 180.441 267.265 180.631C266.795 180.821 266.292 180.916 265.785 180.911ZM86.2911 174.084C85.5009 174.093 84.7463 174.413 84.1908 174.974C83.6353 175.535 83.3238 176.292 83.3238 177.081C83.3238 177.869 83.6353 178.626 84.1908 179.187C84.7463 179.748 85.5009 180.068 86.2911 180.078H265.785C266.182 180.082 266.576 180.008 266.945 179.86C267.313 179.711 267.648 179.491 267.931 179.212C268.213 178.934 268.438 178.602 268.591 178.236C268.744 177.87 268.823 177.477 268.823 177.081C268.823 176.684 268.744 176.291 268.591 175.926C268.438 175.56 268.213 175.228 267.931 174.949C267.648 174.67 267.313 174.45 266.945 174.302C266.576 174.153 266.182 174.079 265.785 174.084H86.2911Z" fill="#292A2E"/>
<path d="M272.663 295.569C272.608 295.569 272.554 295.558 272.503 295.537C272.453 295.516 272.407 295.486 272.368 295.447C271.78 294.86 270.821 284.09 268.239 252.025C267.183 238.905 266.185 226.512 265.457 218.981C265.405 218.443 265.196 218.38 265.127 218.36C264.13 218.059 261.099 220.445 259.406 222.535C259.337 222.621 259.236 222.676 259.126 222.688C259.015 222.699 258.905 222.667 258.819 222.597C258.733 222.528 258.678 222.427 258.666 222.317C258.655 222.207 258.687 222.097 258.757 222.011C259.876 220.63 263.524 217.008 265.367 217.562C265.739 217.673 266.202 217.996 266.288 218.901C267.017 226.439 268.015 238.835 269.072 251.958C270.641 271.444 272.418 293.519 273.002 294.909C273.047 294.971 273.074 295.045 273.079 295.121C273.085 295.198 273.069 295.274 273.034 295.342C272.999 295.41 272.946 295.468 272.881 295.508C272.815 295.548 272.74 295.569 272.663 295.569Z" fill="#494949"/>
<path d="M264.384 232.801C271.31 227.259 273.606 218.634 269.512 213.535C265.417 208.437 256.484 208.796 249.558 214.338C242.632 219.879 240.336 228.505 244.43 233.603C248.525 238.702 257.458 238.342 264.384 232.801Z" fill="#0CBC8B"/>
<path opacity="0.2" d="M264.384 232.801C271.31 227.259 273.606 218.634 269.512 213.535C265.417 208.437 256.484 208.796 249.558 214.338C242.632 219.879 240.336 228.505 244.43 233.603C248.525 238.702 257.458 238.342 264.384 232.801Z" fill="white"/>
<path d="M246.372 234.9C246.333 234.9 246.294 234.888 246.26 234.867C246.227 234.846 246.2 234.816 246.183 234.78C246.166 234.744 246.16 234.704 246.165 234.665C246.17 234.626 246.186 234.589 246.211 234.559L265.95 210.799C265.985 210.756 266.036 210.73 266.091 210.725C266.147 210.719 266.201 210.736 266.244 210.772C266.287 210.807 266.314 210.858 266.319 210.913C266.324 210.968 266.307 211.023 266.271 211.065L246.533 234.825C246.513 234.848 246.489 234.867 246.461 234.88C246.433 234.893 246.403 234.9 246.372 234.9Z" fill="white"/>
<path d="M276.968 290.476C276.902 290.476 276.836 290.46 276.777 290.429C276.718 290.399 276.667 290.354 276.628 290.3C276.589 290.246 276.564 290.183 276.555 290.118C276.546 290.052 276.552 289.985 276.574 289.922L283.989 268.638C284.207 268.013 284.579 267.452 285.071 267.008C285.563 266.563 286.158 266.249 286.803 266.093C287.448 265.938 288.121 265.947 288.762 266.118C289.403 266.29 289.99 266.62 290.47 267.077L294.39 270.814C294.47 270.891 294.517 270.996 294.519 271.106C294.522 271.217 294.48 271.324 294.404 271.404C294.327 271.484 294.222 271.53 294.111 271.532C294.001 271.535 293.893 271.493 293.813 271.417L289.894 267.679C289.515 267.318 289.051 267.058 288.545 266.923C288.039 266.787 287.508 266.78 286.999 266.903C286.489 267.025 286.019 267.274 285.631 267.625C285.243 267.976 284.949 268.418 284.777 268.912L277.363 290.196C277.334 290.278 277.281 290.349 277.21 290.399C277.14 290.449 277.055 290.476 276.968 290.476Z" fill="#494949"/>
<path d="M305.341 282.598C310.474 278.543 310.169 269.623 304.66 262.676C299.151 255.729 290.524 253.384 285.391 257.44C280.258 261.495 280.563 270.415 286.072 277.362C291.581 284.309 300.208 286.653 305.341 282.598Z" fill="#0CBC8B"/>
<path d="M269.297 294.211C269.203 294.211 269.112 294.18 269.039 294.122C268.965 294.064 268.913 293.983 268.891 293.892L256.447 241.962C256.361 241.608 256.18 241.284 255.923 241.027C255.665 240.769 255.342 240.587 254.988 240.501C254.633 240.415 254.262 240.428 253.915 240.539C253.568 240.649 253.258 240.854 253.019 241.129L249.183 245.553C249.148 245.595 249.104 245.63 249.055 245.655C249.006 245.68 248.952 245.695 248.897 245.699C248.842 245.703 248.787 245.696 248.734 245.679C248.682 245.662 248.634 245.635 248.592 245.599C248.55 245.563 248.516 245.519 248.491 245.469C248.467 245.42 248.452 245.366 248.449 245.311C248.445 245.257 248.452 245.201 248.47 245.149C248.488 245.097 248.516 245.049 248.552 245.008L252.387 240.584C252.727 240.192 253.167 239.902 253.661 239.745C254.155 239.587 254.683 239.569 255.186 239.692C255.69 239.814 256.15 240.073 256.515 240.44C256.881 240.807 257.138 241.267 257.259 241.77L269.701 293.7C269.726 293.807 269.708 293.92 269.65 294.013C269.592 294.107 269.499 294.174 269.392 294.2C269.361 294.207 269.329 294.211 269.297 294.211Z" fill="#494949"/>
<path d="M264.706 257.089C266.218 248.359 262.215 240.379 255.765 239.265C249.314 238.152 242.859 244.327 241.347 253.057C239.834 261.788 243.837 269.768 250.287 270.882C256.738 271.995 263.193 265.82 264.706 257.089Z" fill="#0CBC8B"/>
<path d="M272.664 295.569C272.647 295.569 272.629 295.568 272.612 295.566C272.558 295.559 272.505 295.542 272.458 295.515C272.41 295.488 272.368 295.452 272.334 295.409C272.3 295.366 272.276 295.316 272.261 295.264C272.246 295.211 272.242 295.156 272.249 295.101L280.194 230.709C280.281 230.008 280.569 229.346 281.023 228.804C281.477 228.262 282.078 227.862 282.755 227.653C283.431 227.444 284.154 227.434 284.835 227.625C285.517 227.816 286.129 228.199 286.598 228.729L295.679 238.996C295.753 239.079 295.79 239.187 295.783 239.298C295.776 239.408 295.726 239.511 295.642 239.584C295.559 239.657 295.451 239.695 295.34 239.688C295.23 239.681 295.126 239.63 295.053 239.548L285.972 229.281C285.609 228.871 285.136 228.575 284.61 228.427C284.083 228.28 283.524 228.287 283.002 228.449C282.479 228.611 282.014 228.919 281.663 229.338C281.312 229.758 281.09 230.269 281.023 230.811L273.078 295.203C273.065 295.304 273.016 295.397 272.94 295.464C272.864 295.531 272.766 295.569 272.664 295.569Z" fill="#494949"/>
<path d="M304.994 244.702C308.162 238.984 304.434 230.872 296.667 226.583C288.899 222.295 280.034 223.453 276.865 229.171C273.697 234.889 277.425 243.001 285.192 247.289C292.96 251.578 301.825 250.419 304.994 244.702Z" fill="#0CBC8B"/>
<path opacity="0.2" d="M305.341 282.598C310.474 278.543 310.169 269.623 304.66 262.676C299.151 255.729 290.524 253.384 285.391 257.44C280.258 261.495 280.563 270.415 286.072 277.362C291.581 284.309 300.208 286.653 305.341 282.598Z" fill="white"/>
<path opacity="0.5" d="M264.706 257.089C266.218 248.359 262.215 240.379 255.765 239.265C249.314 238.152 242.859 244.327 241.347 253.057C239.834 261.788 243.837 269.768 250.287 270.882C256.738 271.995 263.193 265.82 264.706 257.089Z" fill="white"/>
<path opacity="0.5" d="M304.994 244.702C308.162 238.984 304.434 230.872 296.667 226.583C288.899 222.295 280.034 223.453 276.865 229.171C273.697 234.889 277.425 243.001 285.192 247.289C292.96 251.578 301.825 250.419 304.994 244.702Z" fill="white"/>
<path d="M282.826 350.205H262.501L259.132 285.294H286.194L282.826 350.205Z" fill="#292A2E"/>
<path opacity="0.3" d="M282.826 350.205H262.501L259.132 285.294H286.194L282.826 350.205Z" fill="white"/>
<path d="M305.342 282.803C305.31 282.803 305.279 282.796 305.251 282.783C305.222 282.769 305.198 282.749 305.178 282.724L285.227 257.566C285.193 257.523 285.177 257.468 285.183 257.413C285.19 257.358 285.218 257.308 285.261 257.273C285.304 257.239 285.36 257.223 285.415 257.23C285.47 257.236 285.52 257.264 285.554 257.307L305.505 282.466C305.53 282.496 305.545 282.533 305.549 282.572C305.554 282.611 305.547 282.65 305.53 282.686C305.513 282.721 305.486 282.751 305.453 282.772C305.419 282.792 305.381 282.803 305.342 282.803Z" fill="white"/>
<path d="M303.667 246.717C303.622 246.717 303.579 246.702 303.544 246.676L278.014 228.068C277.969 228.036 277.939 227.987 277.931 227.932C277.922 227.878 277.936 227.822 277.968 227.777C278.001 227.733 278.05 227.703 278.105 227.694C278.159 227.686 278.215 227.699 278.26 227.732L303.79 246.339C303.825 246.366 303.851 246.402 303.864 246.444C303.877 246.486 303.876 246.53 303.863 246.572C303.849 246.613 303.822 246.649 303.787 246.675C303.751 246.701 303.708 246.714 303.665 246.714L303.667 246.717Z" fill="white"/>
<path d="M249.25 270.61C249.232 270.61 249.214 270.608 249.196 270.603C249.143 270.588 249.097 270.554 249.07 270.506C249.042 270.458 249.034 270.401 249.048 270.348L257.175 239.954C257.191 239.902 257.226 239.858 257.273 239.832C257.321 239.805 257.377 239.798 257.429 239.812C257.482 239.826 257.527 239.86 257.554 239.906C257.582 239.953 257.591 240.009 257.579 240.061L249.452 270.455C249.44 270.5 249.414 270.539 249.377 270.567C249.341 270.595 249.296 270.61 249.25 270.61Z" fill="white"/>
<path d="M292.638 350.79H0.29217C0.214682 350.79 0.140367 350.76 0.0855745 350.705C0.0307821 350.65 0 350.576 0 350.499C0 350.421 0.0307821 350.347 0.0855745 350.293C0.140367 350.238 0.214682 350.207 0.29217 350.207H292.637C292.715 350.207 292.789 350.238 292.844 350.293C292.899 350.347 292.929 350.421 292.929 350.499C292.929 350.576 292.899 350.65 292.844 350.705C292.789 350.76 292.715 350.79 292.637 350.79H292.638Z" fill="#292A2E"/>
<g opacity="0.65">
<path d="M292.638 350.79H0.29217C0.214682 350.79 0.140367 350.76 0.0855745 350.705C0.0307821 350.65 0 350.576 0 350.499C0 350.421 0.0307821 350.347 0.0855745 350.293C0.140367 350.238 0.214682 350.207 0.29217 350.207H292.637C292.715 350.207 292.789 350.238 292.844 350.293C292.899 350.347 292.929 350.421 292.929 350.499C292.929 350.576 292.899 350.65 292.844 350.705C292.789 350.76 292.715 350.79 292.637 350.79H292.638Z" fill="#292A2E"/>
</g>
</g>
<defs>
<clipPath id="clip0_4220_13957">
<rect width="309" height="351" fill="white"/>
</clipPath>
</defs>
</svg>
