<svg width="449" height="329" viewBox="0 0 449 329" fill="none" xmlns="http://www.w3.org/2000/svg">
<g clip-path="url(#clip0_4280_3828)">
<path d="M216.16 188.834C206.853 188.834 197.78 191.749 190.213 197.17C182.646 202.591 176.965 210.246 173.967 219.062C172.589 223.121 166.825 223.157 165.35 219.131C157.883 198.736 153.802 162.282 206.865 160.073C231.452 159.05 230.494 188.834 216.16 188.834Z" fill="#D47800"/>
<path d="M227.297 188.834C236.604 188.834 245.677 191.749 253.244 197.17C260.811 202.591 266.492 210.247 269.49 219.062C270.868 223.121 276.632 223.157 278.107 219.131C285.574 198.736 289.655 162.282 236.592 160.073C212.006 159.05 212.964 188.834 227.297 188.834Z" fill="#D47800"/>
<path d="M65.4562 80.6795C65.4562 80.6795 68.7462 78.7206 67.5389 69.5534L74.4551 67.9148C74.4551 67.9148 74.0772 76.2058 77.7359 78.6518L65.4562 80.6795Z" fill="#E98862"/>
<g opacity="0.15">
<path d="M76.2223 76.997L70.205 72.844L74.757 72.5723C74.9656 74.1256 75.4626 75.6263 76.2223 76.997Z" fill="black"/>
</g>
<path d="M63.4029 66.1794C64.0232 68.948 65.6776 71.5188 68.1832 72.2983C71.1577 73.2253 73.327 73.1911 76.697 73.0248C81.2953 72.7985 80.9073 68.0075 80.7983 63.1661C80.689 58.3051 80.0468 53.1167 78.1462 51.5144C74.3519 48.3169 63.8102 50.9796 62.7923 56.691C62.2669 59.6452 62.812 63.5443 63.4029 66.1794Z" fill="#E98862"/>
<path d="M82.8223 54.0975C82.8223 54.0975 84.6849 53.5841 84.0769 51.7302C83.674 50.5013 82.0918 50.8549 82.0918 50.8549C82.0918 50.8549 83.5891 50.5048 83.524 49.1839C83.4833 48.3524 82.7755 46.9755 80.8884 47.8753C78.6746 48.9314 76.0907 48.9371 74.1143 48.7038C72.9934 48.5155 71.8598 48.4121 70.7234 48.3944H70.7177C69.4143 48.4361 68.1246 48.6738 66.8919 49.0995C63.4397 50.321 58.2915 53.7259 59.7696 60.7967C61.4191 68.6877 65.2992 71.5456 66.9872 72.4384C67.0872 72.4922 67.1981 72.5225 67.3115 72.5271C67.4249 72.5317 67.5378 72.5105 67.6418 72.465C67.7458 72.4195 67.8381 72.3509 67.9117 72.2645C67.9854 72.1781 68.0384 72.0761 68.0668 71.9662C68.4605 70.4527 69.0773 66.6626 68.4714 58.9402C79.2157 57.8806 82.307 57.5677 82.307 57.5677C82.307 57.5677 84.8472 57.5375 84.7567 55.6858C84.6661 53.834 82.8223 54.0975 82.8223 54.0975Z" fill="#0F1011"/>
<path d="M74.1966 63.4905C74.5466 63.4905 74.8304 63.2066 74.8304 62.8563C74.8304 62.5061 74.5466 62.2222 74.1966 62.2222C73.8465 62.2222 73.5627 62.5061 73.5627 62.8563C73.5627 63.2066 73.8465 63.4905 74.1966 63.4905Z" fill="#0F1011"/>
<path d="M79.1706 62.8349C79.5207 62.8349 79.8045 62.5509 79.8045 62.2007C79.8045 61.8504 79.5207 61.5665 79.1706 61.5665C78.8206 61.5665 78.5368 61.8504 78.5368 62.2007C78.5368 62.5509 78.8206 62.8349 79.1706 62.8349Z" fill="#0F1011"/>
<path d="M78.5084 60.8589C78.4311 60.8577 78.3573 60.8265 78.3026 60.7719C78.2479 60.7173 78.2165 60.6436 78.2151 60.5663C78.2137 60.489 78.2423 60.4142 78.295 60.3576C78.3477 60.3011 78.4203 60.2672 78.4974 60.2632L80.1754 60.2015C80.215 60.1981 80.2548 60.203 80.2923 60.2159C80.3298 60.2288 80.3642 60.2494 80.3933 60.2764C80.4224 60.3034 80.4455 60.3362 80.4612 60.3726C80.4768 60.4091 80.4847 60.4485 80.4843 60.4882C80.4872 60.5672 80.4587 60.6441 80.405 60.702C80.3512 60.76 80.2767 60.7942 80.1977 60.7971L78.5197 60.8584L78.5084 60.8589Z" fill="#0F1011"/>
<path d="M72.7592 61.7766C72.6873 61.7768 72.6179 61.7511 72.5635 61.7041C72.5091 61.6571 72.4736 61.5921 72.4634 61.521C72.4531 61.4499 72.4689 61.3774 72.5079 61.317C72.5468 61.2567 72.6062 61.2124 72.6752 61.1923L74.3094 60.7131C74.3474 60.7003 74.3876 60.6954 74.4276 60.6986C74.4675 60.7017 74.5064 60.7129 74.542 60.7314C74.5775 60.75 74.6089 60.7755 74.6344 60.8065C74.6598 60.8375 74.6787 60.8733 74.69 60.9118C74.7013 60.9503 74.7047 60.9906 74.7 61.0305C74.6953 61.0703 74.6827 61.1088 74.6628 61.1436C74.6429 61.1784 74.6162 61.2088 74.5842 61.2331C74.5523 61.2573 74.5158 61.2749 74.477 61.2847L72.8427 61.7661C72.8155 61.7736 72.7874 61.7772 72.7592 61.7766Z" fill="#0F1011"/>
<path d="M70.9792 64.5684C71.0309 64.921 71.0119 65.2805 70.9235 65.6257C70.835 65.971 70.6788 66.2952 70.464 66.5795C70.2491 66.8639 69.9799 67.1026 69.672 67.2819C69.3641 67.4611 69.0237 67.5774 68.6704 67.6238C68.3172 67.6702 67.9583 67.6459 67.6146 67.5523C67.2709 67.4586 66.9492 67.2976 66.6682 67.0784C66.3873 66.8593 66.1527 66.5864 65.9781 66.2757C65.8035 65.965 65.6924 65.6227 65.6513 65.2686C65.599 64.9178 65.6179 64.56 65.7067 64.2165C65.7956 63.8731 65.9526 63.5511 66.1684 63.2696C66.3843 62.9882 66.6545 62.7531 66.9631 62.5783C67.2716 62.4035 67.6122 62.2927 67.9644 62.2523C69.8738 62.0978 70.7854 63.0965 70.9792 64.5684Z" fill="#E98862"/>
<g opacity="0.15">
<path d="M77.169 66.2315C77.1175 66.2315 77.0678 66.2133 77.0284 66.1802C76.9891 66.1471 76.9627 66.1012 76.9538 66.0505C76.9449 65.9998 76.9542 65.9476 76.9799 65.9031C77.0057 65.8586 77.0463 65.8246 77.0946 65.807L78.3632 65.3479L77.3641 63.3854C77.3492 63.3597 77.3398 63.3312 77.3363 63.3018C77.3329 63.2723 77.3354 63.2424 77.3439 63.2139C77.3523 63.1854 77.3665 63.159 77.3855 63.1362C77.4045 63.1134 77.4279 63.0947 77.4544 63.0812C77.4808 63.0677 77.5097 63.0598 77.5393 63.0578C77.5689 63.0559 77.5986 63.06 77.6266 63.0699C77.6546 63.0799 77.6803 63.0954 77.702 63.1155C77.7238 63.1357 77.7413 63.1601 77.7534 63.1872L78.8653 65.3702C78.8796 65.3979 78.8878 65.4283 78.8894 65.4595C78.891 65.4906 78.886 65.5217 78.8746 65.5507C78.8632 65.5797 78.8457 65.6059 78.8234 65.6276C78.8011 65.6493 78.7743 65.666 78.745 65.6766L77.2442 66.2202C77.22 66.2282 77.1945 66.2321 77.169 66.2315Z" fill="black"/>
</g>
<path d="M74.7346 67.8303C74.7346 67.8303 77.0836 67.9616 78.6934 67.3086C78.6934 67.3086 78.7564 68.8491 76.9148 69.0916C75.0732 69.3341 74.7346 67.8303 74.7346 67.8303Z" fill="white"/>
<path d="M92.5014 38.8911L97.1495 36.603C97.1495 36.603 97.073 29.8985 91.1366 26.9627C89.1681 25.9898 88.0347 28.1978 88.4429 28.839C89.7919 30.9564 91.3299 32.8742 91.5259 35.0235C90.7429 34.43 89.6244 33.6825 89.3527 34.0252C88.638 34.925 92.5014 38.8911 92.5014 38.8911Z" fill="#E98862"/>
<path d="M15.406 176.294C15.1382 176.227 14.3251 176.023 6.65729 173.108L9.92054 164.517C13.1711 165.753 17.0826 167.208 17.7344 167.405C17.6907 167.392 17.6579 167.384 17.6303 167.377L15.406 176.294Z" fill="#E98862"/>
<path d="M0.0717113 183.148C0.00287814 183.385 -0.0162943 183.634 0.0153913 183.879C0.047077 184.124 0.12894 184.36 0.255868 184.572C0.382795 184.784 0.552061 184.968 0.753092 185.112C0.954122 185.255 1.1826 185.356 1.42426 185.407C1.75926 185.478 2.10755 185.452 2.42819 185.332C2.74884 185.212 3.02851 185.002 3.23435 184.728L9.69481 175.482C9.81917 175.303 9.90333 175.099 9.94153 174.884C9.97973 174.669 9.97107 174.448 9.91615 174.237C9.35413 172.538 9.35168 170.703 9.90915 169.002C10.3981 167.693 11.2449 166.548 12.3531 165.697C12.4592 165.625 12.5425 165.524 12.5935 165.406C12.6444 165.288 12.6608 165.158 12.6408 165.031C12.6207 164.905 12.5651 164.786 12.4803 164.69C12.3955 164.593 12.2851 164.523 12.1619 164.487L7.1472 163.007C6.99928 162.963 6.84421 162.949 6.69087 162.966C6.53754 162.982 6.38896 163.029 6.25367 163.103C6.11837 163.177 5.99902 163.277 5.90246 163.397C5.8059 163.518 5.73403 163.656 5.69098 163.804L0.0717113 183.148Z" fill="#065366"/>
<path d="M52.9662 205.174L51.4028 196.114C54.8292 195.522 58.9362 194.782 59.5972 194.619C59.5535 194.629 59.5207 194.64 59.494 194.648L62.1155 203.458C61.8531 203.537 61.0473 203.776 52.9662 205.174Z" fill="#E98862"/>
<path d="M52.4075 217.169C52.4691 217.409 52.5794 217.633 52.7315 217.828C52.8836 218.022 53.0742 218.184 53.2914 218.302C53.5086 218.419 53.7477 218.491 53.9939 218.512C54.24 218.533 54.4879 218.504 54.722 218.425C55.0465 218.315 55.3329 218.115 55.5476 217.848C55.7623 217.581 55.8962 217.259 55.9337 216.918L56.7875 205.67C56.8034 205.453 56.772 205.234 56.6955 205.03C56.619 204.825 56.4993 204.64 56.3444 204.486C54.9966 203.31 54.0613 201.732 53.6761 199.984C53.4308 198.609 53.5769 197.192 54.0978 195.896C54.1523 195.78 54.1727 195.651 54.1565 195.523C54.1404 195.396 54.0883 195.276 54.0065 195.177C53.9247 195.078 53.8165 195.004 53.6945 194.965C53.5725 194.925 53.4417 194.921 53.3174 194.953L48.2484 196.233C48.0989 196.271 47.9583 196.338 47.8347 196.43C47.7111 196.523 47.607 196.638 47.5282 196.771C47.4494 196.904 47.3976 197.051 47.3758 197.203C47.3539 197.356 47.3623 197.512 47.4007 197.661L52.4075 217.169Z" fill="#065366"/>
<path d="M102.686 188.519L102.642 188.149C101.492 178.585 95.0871 131.964 94.3308 127.035H61.2109C61.2109 127.035 48.3241 169.175 47.8255 170.343L16.1658 163.589L12.1921 179.287L51.1718 190.757C53.2407 191.364 55.4572 191.226 57.4344 190.365C59.4116 189.505 61.024 187.977 61.99 186.048C61.99 186.048 76.1414 149.88 76.4253 149.214L85.1617 183.761L55.6078 192.177L60.0382 207.752L96.874 197.262C98.7239 196.735 100.325 195.565 101.39 193.962C102.455 192.36 102.915 190.43 102.686 188.519Z" fill="#262626"/>
<path d="M31.2214 46.8398L26.2661 48.3511C26.2661 48.3511 22.0781 42.4895 24.4022 36.2857C25.1725 34.2287 27.508 35.0642 27.6497 35.8109C28.113 38.2792 27.9625 41.6492 29.2892 43.3508C29.455 42.3818 29.7599 41.0711 30.1925 41.1354C31.3298 41.3039 31.2214 46.8398 31.2214 46.8398Z" fill="#E98862"/>
<path d="M109.183 58.9003L98.5887 33.9451L89.8103 37.6765L99.2449 59.8981L84.5908 76.9002C83.3435 76.6679 82.0697 76.6131 80.807 76.7374C80.5358 76.7593 80.0984 76.8075 79.5297 76.8687C79.2143 76.9042 78.8495 76.9466 78.4589 76.9926L77.9195 74.1303L63.5197 76.0718L63.9173 78.8189C60.8321 79.2794 58.2714 80.3857 56.498 81.8672L35.9653 70.7735L32.6264 44.827L23.1664 46.0459L26.8177 74.4187C26.9143 75.1696 27.1882 75.8867 27.6166 76.5108C28.0451 77.1348 28.6159 77.6479 29.2818 78.0075L53.4338 91.0571C54.4451 97.334 59.42 104.346 60.2254 110.656C61.3889 119.777 57.7889 124.39 58.6856 129.029C60.1029 136.324 95.605 130.027 96.891 125.615C98.2165 121.063 94.074 118.897 92.4423 104.778C91.665 98.0601 92.6335 89.7472 91.1418 83.9115L108.406 63.8821C108.988 63.2073 109.369 62.3829 109.506 61.5024C109.644 60.6218 109.532 59.7204 109.183 58.9003Z" fill="#A0BA3B"/>
<path d="M442.065 170.582L404.927 177.353C403.827 177.554 402.693 177.438 401.656 177.018C400.62 176.597 399.724 175.891 399.074 174.98L398.795 174.587L382.374 151.527L397.028 143.063L407.261 165.501L440.709 161.493L442.065 170.582Z" fill="#E98862"/>
<path d="M448.949 180.73C449.007 180.97 449.015 181.22 448.972 181.463C448.929 181.706 448.837 181.939 448.701 182.145C448.564 182.351 448.387 182.526 448.179 182.661C447.972 182.795 447.739 182.885 447.496 182.926C447.158 182.982 446.811 182.94 446.496 182.805C446.181 182.67 445.911 182.449 445.718 182.166L439.682 172.637C439.566 172.452 439.491 172.244 439.462 172.028C439.434 171.811 439.452 171.591 439.517 171.383C440.155 169.71 440.241 167.877 439.761 166.153C439.331 164.824 438.537 163.642 437.469 162.743C437.366 162.666 437.287 162.561 437.242 162.441C437.196 162.321 437.185 162.191 437.211 162.065C437.237 161.939 437.298 161.823 437.387 161.731C437.476 161.638 437.589 161.573 437.714 161.543L442.791 160.291C442.94 160.254 443.096 160.247 443.248 160.271C443.401 160.294 443.547 160.347 443.679 160.427C443.811 160.507 443.925 160.613 444.017 160.737C444.108 160.862 444.173 161.003 444.21 161.153L448.949 180.73Z" fill="#065366"/>
<path d="M361.411 181.149L374.869 233.072L366.055 235.661L349.323 184.751L361.411 181.149Z" fill="#E98862"/>
<path d="M356.513 243.22C356.279 243.3 356.032 243.33 355.786 243.309C355.539 243.288 355.3 243.217 355.083 243.1C354.865 242.982 354.675 242.821 354.522 242.627C354.37 242.432 354.259 242.208 354.197 241.969C354.112 241.637 354.122 241.288 354.228 240.963C354.334 240.637 354.53 240.348 354.794 240.131L363.739 233.259C363.913 233.127 364.113 233.034 364.326 232.986C364.538 232.938 364.759 232.937 364.973 232.983C366.694 233.469 368.526 233.39 370.2 232.757C371.485 232.21 372.59 231.312 373.39 230.167C373.457 230.058 373.554 229.97 373.669 229.914C373.785 229.858 373.914 229.835 374.041 229.85C374.169 229.864 374.29 229.915 374.39 229.995C374.49 230.076 374.565 230.183 374.606 230.304L376.307 235.25C376.358 235.396 376.378 235.55 376.369 235.704C376.359 235.858 376.319 236.009 376.252 236.147C376.184 236.286 376.089 236.41 375.973 236.512C375.857 236.613 375.722 236.691 375.576 236.741L356.513 243.22Z" fill="#065366"/>
<path d="M357.829 114.299C357.829 114.299 346.273 151.546 343.114 162.179C335.967 186.23 349.322 204.187 349.322 204.187C349.322 204.187 367.388 206.766 376.372 194.79C392.986 172.641 414.249 188.056 415.161 163.509C403.066 161.225 389.5 117.351 389.5 117.351L357.829 114.299Z" fill="#262626"/>
<path d="M361.976 24.9404L357.118 23.1425C357.118 23.1425 356.505 16.4656 362.109 12.935C363.966 11.7647 365.321 13.8445 364.981 14.5241C363.856 16.7693 362.523 18.8351 362.549 20.9931C363.267 20.3222 364.303 19.4635 364.609 19.7765C365.411 20.5997 361.976 24.9404 361.976 24.9404Z" fill="#E98862"/>
<path d="M420.929 38.1537L426.099 38.4728C426.099 38.4728 428.811 31.7985 425.112 26.3037C423.887 24.483 421.806 25.8376 421.843 26.5965C421.965 29.1051 422.893 32.3482 421.998 34.3111C421.612 33.4069 421.011 32.2033 420.606 32.3661C419.538 32.7946 420.929 38.1537 420.929 38.1537Z" fill="#E98862"/>
<path d="M429.138 37.1076L423.771 65.284C423.642 65.9586 423.37 66.5975 422.972 67.1572C422.574 67.7169 422.06 68.1841 421.466 68.527L401.094 80.2693C401.357 87.2631 394.414 95.2416 393.146 102.529C391.572 111.588 394.961 116.359 393.855 120.954C392.109 128.18 356.927 120.28 355.842 115.811C354.721 111.212 358.96 109.229 361.226 95.2022C362.307 88.5235 361.716 80.1774 363.47 74.4135L347.128 53.6248C346.648 53.0126 346.324 52.2923 346.185 51.5265C346.046 50.7607 346.097 49.9726 346.332 49.2307L355.426 20.6079L364.516 23.4964L356.187 49.7121L370.333 67.7086C371.589 67.5317 372.863 67.5346 374.118 67.7173C374.388 67.7523 374.826 67.818 375.39 67.9055C375.093 70.2995 389.769 72.8467 390.504 70.4789C392.368 70.7834 394.17 71.3942 395.836 72.2865L414.812 61.3494L419.768 35.3219L429.138 37.1076Z" fill="#A0BA3B"/>
<path d="M390.504 70.4789C389.769 72.8467 384.944 76.2341 379.704 74.9605C375.776 74.0108 375.093 70.2995 375.39 67.9055C378.439 68.3869 385.268 69.5642 390.491 70.4746C390.493 70.4742 390.496 70.4745 390.498 70.4752C390.5 70.476 390.502 70.4773 390.504 70.4789Z" fill="#E98862"/>
<path d="M247.953 302.215L193.007 296.563L205.207 92.5137H235.504L247.953 302.215Z" fill="#F2F3F7"/>
<g filter="url(#filter0_d_4280_3828)">
<path d="M359.329 306.08C357.95 306.081 356.573 306.197 355.213 306.426C353.14 298.9 349.43 291.926 344.348 286.003C339.266 280.08 332.938 275.355 325.817 272.166C318.696 268.976 310.958 267.402 303.157 267.554C295.357 267.707 287.686 269.584 280.696 273.05C278.752 267.19 275.102 262.045 270.215 258.275C265.328 254.506 259.426 252.283 253.267 251.893C247.109 251.503 240.974 252.964 235.651 256.087C230.327 259.21 226.059 263.854 223.392 269.422C221.976 263.537 218.62 258.301 213.865 254.558C209.111 250.815 203.235 248.784 197.185 248.791C196.525 248.791 195.873 248.812 195.226 248.861C189.645 249.269 184.33 251.404 180.016 254.97C175.702 258.535 172.604 263.355 171.149 268.761C165.464 266.678 159.377 265.922 153.355 266.551C147.333 267.181 141.534 269.179 136.401 272.393C131.268 275.607 126.938 279.952 123.74 285.096C120.542 290.241 118.561 296.048 117.949 302.075C113.721 302.4 109.655 303.846 106.17 306.264C102.686 308.681 99.9069 311.983 98.1198 315.831C95.1691 314.523 91.9839 313.827 88.7568 313.785C85.5296 313.743 82.3274 314.355 79.3436 315.586C76.3599 316.817 73.6564 318.64 71.3967 320.946C69.1369 323.251 67.3677 325.991 66.1959 329H383.913C383.475 322.776 380.694 316.95 376.132 312.696C371.57 308.443 365.565 306.078 359.329 306.08Z" fill="#F2F3F7"/>
</g>
<path d="M244.613 197.701H195.335V213.995H244.613V197.701Z" fill="#065366"/>
<path d="M260.946 117.148C260.946 144.921 253.221 183.562 247.626 203.642H193.083C187.488 183.562 179.763 144.921 179.763 117.148C179.763 52.4488 220.357 0 220.357 0C220.357 0 260.946 52.4488 260.946 117.148Z" fill="#E5A80E"/>
<path d="M220.354 120.387C232.963 120.387 243.185 110.16 243.185 97.5438C243.185 84.9279 232.963 74.7007 220.354 74.7007C207.745 74.7007 197.523 84.9279 197.523 97.5438C197.523 110.16 207.745 120.387 220.354 120.387Z" fill="white"/>
<path d="M220.354 114.408C229.663 114.408 237.21 106.858 237.21 97.5437C237.21 88.2298 229.663 80.6794 220.354 80.6794C211.045 80.6794 203.498 88.2298 203.498 97.5437C203.498 106.858 211.045 114.408 220.354 114.408Z" fill="#DEE8F5"/>
<path d="M248.133 51.7267H192.575C204.473 20.5217 220.356 0 220.356 0C220.356 0 236.239 20.5217 248.133 51.7267Z" fill="#D47800"/>
<path d="M389.045 72.3211C389.045 72.3211 385.959 70.054 388.045 61.0462L381.319 58.7467C381.319 58.7467 380.896 67.0355 377.017 69.1166L389.045 72.3211Z" fill="#E98862"/>
<g opacity="0.15">
<path d="M378.686 67.6181L385.076 64.0661L380.571 63.3562C380.213 64.8819 379.574 66.3274 378.686 67.6181Z" fill="black"/>
</g>
<path d="M392.488 58.0877C391.603 60.7836 389.709 63.1811 387.139 63.7159C384.326 64.3811 381.393 64.3471 378.596 63.617C371.115 61.883 375.144 44.8853 379.229 42.0672C383.313 39.2492 393.549 42.9193 394.01 48.7025C394.249 51.6935 393.33 55.5217 392.488 58.0877Z" fill="#E98862"/>
<path d="M373.773 47.7012C373.773 47.7012 377.054 35.6805 390.048 40.6619C392.136 41.558 393.885 43.093 395.046 45.0463C395.74 44.0367 396.72 43.2582 397.86 42.8112C399.001 42.3641 400.249 42.2691 401.443 42.5382C402.638 42.8073 403.725 43.4283 404.564 44.3212C405.402 45.214 405.954 46.3377 406.149 47.5474C406.343 48.7571 406.171 49.9974 405.655 51.1083C405.138 52.2192 404.301 53.1499 403.251 53.7803C402.2 54.4106 400.986 54.7119 399.763 54.6451C398.54 54.5783 397.365 54.1466 396.39 53.4056C396.352 53.5806 396.314 53.7531 396.268 53.9308C394.332 61.3889 387.472 64.2551 387.472 64.2551C387.472 64.2551 385.968 62.7233 388.368 50.57C385.417 50.3879 378.688 49.766 373.773 47.7012Z" fill="#0F1011"/>
<path d="M382.065 54.3715C382.415 54.3715 382.699 54.0876 382.699 53.7373C382.699 53.3871 382.415 53.1031 382.065 53.1031C381.715 53.1031 381.431 53.3871 381.431 53.7373C381.431 54.0876 381.715 54.3715 382.065 54.3715Z" fill="#0F1011"/>
<path d="M377.178 53.2384C377.528 53.2384 377.812 52.9545 377.812 52.6043C377.812 52.254 377.528 51.9701 377.178 51.9701C376.828 51.9701 376.544 52.254 376.544 52.6043C376.544 52.9545 376.828 53.2384 377.178 53.2384Z" fill="#0F1011"/>
<path d="M377.995 51.3338C377.982 51.3346 377.968 51.3346 377.955 51.3338L376.293 51.1101C376.215 51.0995 376.144 51.0583 376.096 50.9954C376.048 50.9326 376.027 50.8532 376.037 50.7749C376.048 50.6965 376.089 50.6256 376.152 50.5776C376.215 50.5297 376.294 50.5087 376.372 50.5193L378.037 50.7429C378.111 50.7536 378.179 50.792 378.226 50.8503C378.273 50.9087 378.297 50.9827 378.292 51.0577C378.287 51.1326 378.254 51.2029 378.199 51.2545C378.145 51.3061 378.073 51.3352 377.998 51.3359L377.995 51.3338Z" fill="#0F1011"/>
<path d="M383.629 52.8029C383.591 52.8029 383.553 52.7956 383.518 52.7815L381.938 52.146C381.866 52.1159 381.808 52.0585 381.778 51.9862C381.747 51.9139 381.747 51.8326 381.776 51.7598C381.805 51.6871 381.862 51.6288 381.934 51.5975C382.005 51.5662 382.087 51.5645 382.16 51.5928L383.74 52.2283C383.804 52.2541 383.858 52.3014 383.891 52.3622C383.924 52.423 383.935 52.4935 383.922 52.5615C383.909 52.6295 383.872 52.6908 383.819 52.7348C383.765 52.7789 383.698 52.8029 383.629 52.8029Z" fill="#0F1011"/>
<path d="M381.048 58.636C381.048 58.636 378.697 58.5402 377.158 57.734C377.158 57.734 376.947 59.2614 378.757 59.6811C380.567 60.1009 381.048 58.636 381.048 58.636Z" fill="white"/>
<path d="M385.102 55.7523C384.941 56.4469 385.062 57.1771 385.44 57.7821C385.817 58.3871 386.419 58.8175 387.113 58.9785C387.807 59.1395 388.537 59.0179 389.142 58.6406C389.747 58.2632 390.177 57.661 390.338 56.9663C390.423 56.6221 390.439 56.264 390.384 55.9135C390.329 55.563 390.203 55.2273 390.016 54.9263C389.828 54.6252 389.581 54.3651 389.291 54.1614C389.001 53.9576 388.672 53.8145 388.325 53.7404C386.441 53.3999 385.437 54.3058 385.102 55.7523Z" fill="#E98862"/>
<g opacity="0.15">
<path d="M378.771 56.808C378.822 56.8156 378.875 56.8044 378.919 56.7764C378.964 56.7483 378.996 56.7053 379.012 56.6552C379.027 56.6051 379.024 56.5512 379.002 56.5032C378.981 56.4553 378.944 56.4165 378.896 56.394L377.678 55.8149L378.862 53.9584C378.879 53.9342 378.89 53.907 378.896 53.8784C378.901 53.8498 378.901 53.8203 378.895 53.7918C378.889 53.7632 378.878 53.7362 378.861 53.7122C378.844 53.6881 378.823 53.6677 378.799 53.652C378.774 53.6362 378.747 53.6256 378.718 53.6206C378.689 53.6157 378.66 53.6165 378.632 53.6231C378.603 53.6296 378.576 53.6418 378.553 53.6589C378.529 53.676 378.509 53.6976 378.494 53.7225L377.177 55.7882C377.16 55.8144 377.149 55.8438 377.145 55.8745C377.14 55.9051 377.142 55.9364 377.151 55.9662C377.159 55.996 377.174 56.0236 377.194 56.0473C377.214 56.0709 377.239 56.09 377.267 56.1033L378.708 56.7892C378.728 56.7987 378.749 56.805 378.771 56.808Z" fill="black"/>
</g>
</g>
<defs>
<filter id="filter0_d_4280_3828" x="62.1959" y="248.791" width="325.717" height="88.2095" filterUnits="userSpaceOnUse" color-interpolation-filters="sRGB">
<feFlood flood-opacity="0" result="BackgroundImageFix"/>
<feColorMatrix in="SourceAlpha" type="matrix" values="0 0 0 0 0 0 0 0 0 0 0 0 0 0 0 0 0 0 127 0" result="hardAlpha"/>
<feOffset dy="4"/>
<feGaussianBlur stdDeviation="2"/>
<feComposite in2="hardAlpha" operator="out"/>
<feColorMatrix type="matrix" values="0 0 0 0 0 0 0 0 0 0 0 0 0 0 0 0 0 0 0.25 0"/>
<feBlend mode="normal" in2="BackgroundImageFix" result="effect1_dropShadow_4280_3828"/>
<feBlend mode="normal" in="SourceGraphic" in2="effect1_dropShadow_4280_3828" result="shape"/>
</filter>
<clipPath id="clip0_4280_3828">
<rect width="449" height="329" fill="white"/>
</clipPath>
</defs>
</svg>
