<svg width="746" height="581" viewBox="0 0 746 581" fill="none" xmlns="http://www.w3.org/2000/svg">
<g clip-path="url(#clip0_4652_7579)">
<path d="M341.6 526.572C326.411 526.572 313.013 522.476 301.408 514.284C289.973 506.092 281.013 494.572 274.528 479.724C268.043 464.876 264.8 447.639 264.8 428.012C264.8 408.215 267.957 390.977 274.272 376.3C280.757 361.623 289.717 350.188 301.152 341.996C312.757 333.804 326.155 329.708 341.344 329.708C356.875 329.708 370.357 333.804 381.792 341.996C393.397 350.188 402.357 361.708 408.672 376.556C415.157 391.233 418.4 408.385 418.4 428.012C418.4 447.639 415.157 464.876 408.672 479.724C402.357 494.401 393.397 505.921 381.792 514.284C370.357 522.476 356.96 526.572 341.6 526.572ZM341.856 490.732C349.707 490.732 356.363 488.257 361.824 483.308C367.285 478.359 371.467 471.191 374.368 461.804C377.269 452.417 378.72 441.153 378.72 428.012C378.72 414.871 377.269 403.692 374.368 394.476C371.467 385.089 367.2 377.921 361.568 372.972C356.107 368.023 349.365 365.548 341.344 365.548C333.493 365.548 326.837 368.023 321.376 372.972C315.915 377.921 311.733 385.089 308.832 394.476C305.931 403.692 304.48 414.871 304.48 428.012C304.48 440.983 305.931 452.161 308.832 461.548C311.733 470.935 315.915 478.188 321.376 483.308C327.008 488.257 333.835 490.732 341.856 490.732Z" fill="url(#paint0_linear_4652_7579)"/>
<path d="M222.69 554.488C242.496 548.35 261.713 540.329 279.222 517.88C282.815 513.28 286.191 507.386 284.222 501.88C282.741 497.736 278.454 495.08 274.098 494.404C272.476 494.168 270.831 494.123 269.198 494.269C269.19 494.269 269.181 494.275 269.179 494.269C266.669 494.527 264.187 495.014 261.766 495.724L261.074 495.924C249.518 499.209 238.51 504.181 228.405 510.679C227.489 511.263 226.403 511.519 225.323 511.407C224.244 511.295 223.233 510.821 222.457 510.062C221.681 509.303 221.184 508.304 221.047 507.227C220.911 506.149 221.143 505.058 221.705 504.129C222.736 502.445 223.935 500.87 225.285 499.429C227.276 497.347 229.456 495.456 231.799 493.78C234.913 491.509 238.236 489.48 241.486 487.407C253.572 479.71 265.023 471.057 275.727 461.531C283.367 454.725 290.839 447.172 294.47 437.604C296.138 433.204 296.898 428.131 294.907 423.866C291.623 416.866 282.321 414.904 274.714 416.357C261.384 418.91 250.735 428.681 241.292 438.421C233.461 446.514 224.686 455.474 213.435 455.972C211.517 456.151 209.589 455.764 207.889 454.859C204.679 452.915 203.855 448.411 204.998 444.835C206.141 441.259 208.789 438.402 211.344 435.658C226.195 419.725 240.809 403.151 250.453 383.629C260.097 364.107 264.367 341.058 257.666 320.329C255.702 314.269 252.75 308.373 248.145 303.971C243.54 299.569 237.081 296.808 230.759 297.651C222.146 298.785 215.659 306.051 211.296 313.559C196.296 339.313 197.212 370.868 192.987 400.368C191.805 408.627 190.087 417.097 185.167 423.895C184.714 424.549 184.125 425.098 183.442 425.505C179.394 427.849 175.761 423.122 174.242 419.111C168.242 403.242 166.742 385.094 155.999 371.96C151.899 366.96 146.099 362.782 139.634 362.823C131.74 362.877 124.979 369.471 122.676 377.023C120.373 384.575 121.75 392.779 124.218 400.278C128.8 414.184 137.018 426.678 146.69 437.657C151.79 443.457 157.561 449.313 159.09 456.876C159.559 459.447 159.362 462.095 158.52 464.569C157.678 467.042 156.217 469.26 154.277 471.01C153.37 471.8 152.313 472.399 151.17 472.773C150.027 473.147 148.82 473.287 147.622 473.186C145.031 472.948 142.686 471.626 140.422 470.342C139.474 469.802 138.522 469.253 137.565 468.716C133.792 466.568 130.019 464.418 126.244 462.264C116.644 456.79 105.063 451.197 95.0681 455.911C89.9681 458.321 86.6271 463.059 85.0551 468.497C83.6483 473.432 83.6483 478.662 85.0551 483.597C88.0331 493.86 106.796 522.419 114.536 529.784C123.578 538.383 154.923 575.491 222.69 554.488Z" fill="#8DDBE0"/>
<mask id="path-3-outside-1_4652_7579" maskUnits="userSpaceOnUse" x="107" y="202.5" width="151" height="210" fill="black">
<rect fill="white" x="107" y="202.5" width="151" height="210"/>
<path d="M181.52 404.572C171.451 404.572 161.723 402.695 152.336 398.94C142.949 395.015 134.928 389.553 128.272 382.556C121.616 375.388 117.264 366.855 115.216 356.956L150.288 345.18C152.848 353.372 156.944 359.345 162.576 363.1C168.208 366.855 174.523 368.732 181.52 368.732C187.493 368.732 192.699 367.537 197.136 365.148C201.573 362.588 204.987 359.089 207.376 354.652C209.936 350.044 211.216 344.753 211.216 338.78C211.216 332.807 209.936 327.601 207.376 323.164C204.987 318.727 201.573 315.313 197.136 312.924C192.699 310.364 187.493 309.084 181.52 309.084C175.376 309.084 169.915 310.449 165.136 313.18C160.357 315.74 156.859 319.751 154.64 325.212L122.128 317.532L137.488 210.78H243.984V244.06H153.616L168.464 226.14L157.968 305.5L147.216 296.028C151.483 289.031 156.859 283.911 163.344 280.668C170 277.425 178.533 275.804 188.944 275.804C201.744 275.804 212.752 278.535 221.968 283.996C231.184 289.287 238.267 296.625 243.216 306.012C248.336 315.399 250.896 326.321 250.896 338.78C250.896 351.239 247.824 362.503 241.68 372.572C235.707 382.471 227.515 390.321 217.104 396.124C206.693 401.756 194.832 404.572 181.52 404.572Z"/>
</mask>
<path d="M152.336 398.94L149.635 405.398L149.686 405.419L149.736 405.439L152.336 398.94ZM128.272 382.556L123.142 387.319L123.171 387.35L123.2 387.38L128.272 382.556ZM115.216 356.956L112.988 350.32L107.104 352.296L108.361 358.374L115.216 356.956ZM150.288 345.18L156.969 343.092L154.837 336.269L148.06 338.544L150.288 345.18ZM162.576 363.1L166.459 357.276L162.576 363.1ZM197.136 365.148L200.455 371.311L200.545 371.263L200.634 371.211L197.136 365.148ZM207.376 354.652L201.257 351.253L201.235 351.293L201.213 351.333L207.376 354.652ZM207.376 323.164L201.213 326.483L201.261 326.573L201.313 326.662L207.376 323.164ZM197.136 312.924L193.638 318.987L193.727 319.039L193.817 319.087L197.136 312.924ZM165.136 313.18L168.442 319.35L168.526 319.305L168.609 319.258L165.136 313.18ZM154.64 325.212L153.031 332.025L158.868 333.403L161.125 327.847L154.64 325.212ZM122.128 317.532L115.199 316.535L114.287 322.873L120.519 324.345L122.128 317.532ZM137.488 210.78V203.78H131.423L130.559 209.783L137.488 210.78ZM243.984 210.78H250.984V203.78H243.984V210.78ZM243.984 244.06V251.06H250.984V244.06H243.984ZM153.616 244.06L148.226 239.594L138.725 251.06H153.616V244.06ZM168.464 226.14L175.404 227.058L178.593 202.944L163.074 221.674L168.464 226.14ZM157.968 305.5L153.341 310.753L163.187 319.427L164.908 306.418L157.968 305.5ZM147.216 296.028L141.239 292.384L138.182 297.398L142.589 301.281L147.216 296.028ZM163.344 280.668L160.278 274.375L160.246 274.391L160.214 274.407L163.344 280.668ZM221.968 283.996L218.399 290.018L218.441 290.043L218.483 290.067L221.968 283.996ZM243.216 306.012L237.024 309.277L237.047 309.321L237.071 309.364L243.216 306.012ZM241.68 372.572L235.705 368.926L235.696 368.941L235.687 368.955L241.68 372.572ZM217.104 396.124L220.435 402.281L220.474 402.26L220.512 402.238L217.104 396.124ZM181.52 404.572V397.572C172.345 397.572 163.499 395.866 154.936 392.441L152.336 398.94L149.736 405.439C159.946 409.523 170.556 411.572 181.52 411.572V404.572ZM152.336 398.94L155.037 392.482C146.496 388.91 139.296 383.989 133.344 377.732L128.272 382.556L123.2 387.38C130.56 395.118 139.402 401.119 149.635 405.398L152.336 398.94ZM128.272 382.556L133.402 377.793C127.645 371.594 123.869 364.229 122.071 355.538L115.216 356.956L108.361 358.374C110.659 369.481 115.587 379.182 123.142 387.319L128.272 382.556ZM115.216 356.956L117.444 363.592L152.516 351.816L150.288 345.18L148.06 338.544L112.988 350.32L115.216 356.956ZM150.288 345.18L143.607 347.268C146.514 356.571 151.405 364.065 158.693 368.924L162.576 363.1L166.459 357.276C162.483 354.625 159.182 350.173 156.969 343.092L150.288 345.18ZM162.576 363.1L158.693 368.924C165.515 373.473 173.19 375.732 181.52 375.732V368.732V361.732C175.855 361.732 170.901 360.237 166.459 357.276L162.576 363.1ZM181.52 368.732V375.732C188.437 375.732 194.824 374.343 200.455 371.311L197.136 365.148L193.817 358.985C190.573 360.731 186.549 361.732 181.52 361.732V368.732ZM197.136 365.148L200.634 371.211C206.178 368.013 210.523 363.572 213.539 357.971L207.376 354.652L201.213 351.333C199.45 354.606 196.969 357.163 193.638 359.085L197.136 365.148ZM207.376 354.652L213.495 358.051C216.706 352.272 218.216 345.782 218.216 338.78H211.216H204.216C204.216 343.725 203.166 347.816 201.257 351.253L207.376 354.652ZM211.216 338.78H218.216C218.216 331.785 216.708 325.332 213.439 319.666L207.376 323.164L201.313 326.662C203.164 329.871 204.216 333.829 204.216 338.78H211.216ZM207.376 323.164L213.539 319.845C210.501 314.202 206.098 309.799 200.455 306.761L197.136 312.924L193.817 319.087C197.049 320.827 199.473 323.251 201.213 326.483L207.376 323.164ZM197.136 312.924L200.634 306.861C194.968 303.592 188.515 302.084 181.52 302.084V309.084V316.084C186.471 316.084 190.429 317.136 193.638 318.987L197.136 312.924ZM181.52 309.084V302.084C174.303 302.084 167.618 303.699 161.663 307.102L165.136 313.18L168.609 319.258C172.211 317.199 176.449 316.084 181.52 316.084V309.084ZM165.136 313.18L161.83 307.01C155.482 310.41 150.931 315.744 148.155 322.577L154.64 325.212L161.125 327.847C162.787 323.757 165.232 321.07 168.442 319.35L165.136 313.18ZM154.64 325.212L156.249 318.399L123.737 310.719L122.128 317.532L120.519 324.345L153.031 332.025L154.64 325.212ZM122.128 317.532L129.057 318.529L144.417 211.777L137.488 210.78L130.559 209.783L115.199 316.535L122.128 317.532ZM137.488 210.78V217.78H243.984V210.78V203.78H137.488V210.78ZM243.984 210.78H236.984V244.06H243.984H250.984V210.78H243.984ZM243.984 244.06V237.06H153.616V244.06V251.06H243.984V244.06ZM153.616 244.06L159.006 248.526L173.854 230.606L168.464 226.14L163.074 221.674L148.226 239.594L153.616 244.06ZM168.464 226.14L161.524 225.222L151.028 304.582L157.968 305.5L164.908 306.418L175.404 227.058L168.464 226.14ZM157.968 305.5L162.595 300.247L151.843 290.775L147.216 296.028L142.589 301.281L153.341 310.753L157.968 305.5ZM147.216 296.028L153.193 299.672C156.867 293.647 161.313 289.51 166.474 286.929L163.344 280.668L160.214 274.407C152.405 278.311 146.099 284.414 141.239 292.384L147.216 296.028ZM163.344 280.668L166.41 286.961C171.804 284.333 179.192 282.804 188.944 282.804V275.804V268.804C177.875 268.804 168.196 270.518 160.278 274.375L163.344 280.668ZM188.944 275.804V282.804C200.734 282.804 210.457 285.312 218.399 290.018L221.968 283.996L225.537 277.974C215.047 271.758 202.754 268.804 188.944 268.804V275.804ZM221.968 283.996L218.483 290.067C226.551 294.698 232.694 301.065 237.024 309.277L243.216 306.012L249.408 302.747C243.839 292.186 235.817 283.875 225.453 277.925L221.968 283.996ZM243.216 306.012L237.071 309.364C241.544 317.564 243.896 327.298 243.896 338.78H250.896H257.896C257.896 325.345 255.128 313.233 249.361 302.66L243.216 306.012ZM250.896 338.78H243.896C243.896 350.028 241.14 360.017 235.705 368.926L241.68 372.572L247.655 376.218C254.508 364.988 257.896 352.45 257.896 338.78H250.896ZM241.68 372.572L235.687 368.955C230.363 377.777 223.077 384.781 213.696 390.01L217.104 396.124L220.512 402.238C231.953 395.862 241.05 387.164 247.673 376.189L241.68 372.572ZM217.104 396.124L213.773 389.967C204.508 394.98 193.816 397.572 181.52 397.572V404.572V411.572C195.848 411.572 208.879 408.532 220.435 402.281L217.104 396.124Z" fill="url(#paint1_linear_4652_7579)" mask="url(#path-3-outside-1_4652_7579)"/>
<mask id="path-5-outside-2_4652_7579" maskUnits="userSpaceOnUse" x="422" y="245.5" width="169" height="212" fill="black">
<rect fill="white" x="422" y="245.5" width="169" height="212"/>
<path d="M506.6 449.572C491.411 449.572 478.013 445.476 466.408 437.284C454.973 429.092 446.013 417.572 439.528 402.724C433.043 387.876 429.8 370.639 429.8 351.012C429.8 331.215 432.957 313.977 439.272 299.3C445.757 284.623 454.717 273.188 466.152 264.996C477.757 256.804 491.155 252.708 506.344 252.708C521.875 252.708 535.357 256.804 546.792 264.996C558.397 273.188 567.357 284.708 573.672 299.556C580.157 314.233 583.4 331.385 583.4 351.012C583.4 370.639 580.157 387.876 573.672 402.724C567.357 417.401 558.397 428.921 546.792 437.284C535.357 445.476 521.96 449.572 506.6 449.572ZM506.856 413.732C514.707 413.732 521.363 411.257 526.824 406.308C532.285 401.359 536.467 394.191 539.368 384.804C542.269 375.417 543.72 364.153 543.72 351.012C543.72 337.871 542.269 326.692 539.368 317.476C536.467 308.089 532.2 300.921 526.568 295.972C521.107 291.023 514.365 288.548 506.344 288.548C498.493 288.548 491.837 291.023 486.376 295.972C480.915 300.921 476.733 308.089 473.832 317.476C470.931 326.692 469.48 337.871 469.48 351.012C469.48 363.983 470.931 375.161 473.832 384.548C476.733 393.935 480.915 401.188 486.376 406.308C492.008 411.257 498.835 413.732 506.856 413.732Z"/>
</mask>
<path d="M466.408 437.284L462.331 442.974L462.351 442.989L462.371 443.003L466.408 437.284ZM439.528 402.724L445.943 399.922L439.528 402.724ZM439.272 299.3L432.869 296.471L432.855 296.502L432.842 296.534L439.272 299.3ZM466.152 264.996L462.115 259.277L462.095 259.291L462.075 259.306L466.152 264.996ZM546.792 264.996L542.715 270.686L542.735 270.701L542.755 270.715L546.792 264.996ZM573.672 299.556L567.23 302.296L567.249 302.34L567.269 302.385L573.672 299.556ZM573.672 402.724L567.257 399.922L567.249 399.94L567.242 399.958L573.672 402.724ZM546.792 437.284L550.869 442.974L550.877 442.969L550.884 442.963L546.792 437.284ZM539.368 384.804L532.68 382.737L539.368 384.804ZM539.368 317.476L532.68 319.543L532.686 319.561L532.691 319.578L539.368 317.476ZM526.568 295.972L521.867 301.159L521.907 301.195L521.947 301.23L526.568 295.972ZM486.376 295.972L491.077 301.159L491.077 301.159L486.376 295.972ZM473.832 317.476L480.509 319.578L480.514 319.561L480.52 319.543L473.832 317.476ZM473.832 384.548L480.52 382.481H480.52L473.832 384.548ZM486.376 406.308L481.588 411.415L481.671 411.492L481.755 411.566L486.376 406.308ZM506.6 449.572V442.572C492.751 442.572 480.786 438.865 470.445 431.565L466.408 437.284L462.371 443.003C475.241 452.087 490.071 456.572 506.6 456.572V449.572ZM466.408 437.284L470.485 431.594C460.223 424.242 452.001 413.793 445.943 399.922L439.528 402.724L433.113 405.526C440.025 421.351 449.724 433.942 462.331 442.974L466.408 437.284ZM439.528 402.724L445.943 399.922C439.916 386.124 436.8 369.874 436.8 351.012H429.8H422.8C422.8 371.404 426.169 389.628 433.113 405.526L439.528 402.724ZM429.8 351.012H436.8C436.8 331.945 439.842 315.688 445.702 302.066L439.272 299.3L432.842 296.534C426.073 312.267 422.8 330.484 422.8 351.012H429.8ZM439.272 299.3L445.675 302.129C451.727 288.432 459.948 278.052 470.229 270.686L466.152 264.996L462.075 259.306C449.487 268.324 439.788 280.813 432.869 296.471L439.272 299.3ZM466.152 264.996L470.189 270.715C480.53 263.415 492.495 259.708 506.344 259.708V252.708V245.708C489.815 245.708 474.985 250.193 462.115 259.277L466.152 264.996ZM506.344 252.708V259.708C520.572 259.708 532.593 263.435 542.715 270.686L546.792 264.996L550.869 259.306C538.122 250.173 523.177 245.708 506.344 245.708V252.708ZM546.792 264.996L542.755 270.715C553.159 278.059 561.354 288.478 567.23 302.296L573.672 299.556L580.114 296.816C573.361 280.938 563.636 268.317 550.829 259.277L546.792 264.996ZM573.672 299.556L567.269 302.385C573.283 315.996 576.4 332.147 576.4 351.012H583.4H590.4C590.4 330.623 587.032 312.471 580.075 296.727L573.672 299.556ZM583.4 351.012H576.4C576.4 369.874 573.284 386.124 567.257 399.922L573.672 402.724L580.087 405.526C587.031 389.628 590.4 371.404 590.4 351.012H583.4ZM573.672 402.724L567.242 399.958C561.368 413.61 553.159 424.068 542.7 431.605L546.792 437.284L550.884 442.963C563.635 433.775 573.347 421.193 580.102 405.49L573.672 402.724ZM546.792 437.284L542.715 431.594C532.579 438.855 520.639 442.572 506.6 442.572V449.572V456.572C523.281 456.572 538.135 452.097 550.869 442.974L546.792 437.284ZM506.856 413.732V420.732C516.321 420.732 524.687 417.692 531.525 411.495L526.824 406.308L522.123 401.121C518.038 404.823 513.093 406.732 506.856 406.732V413.732ZM526.824 406.308L531.525 411.495C538.176 405.467 542.903 397.07 546.056 386.871L539.368 384.804L532.68 382.737C530.03 391.311 526.394 397.25 522.123 401.121L526.824 406.308ZM539.368 384.804L546.056 386.871C549.22 376.633 550.72 364.633 550.72 351.012H543.72H536.72C536.72 363.673 535.318 374.202 532.68 382.737L539.368 384.804ZM543.72 351.012H550.72C550.72 337.396 549.222 325.465 546.045 315.374L539.368 317.476L532.691 319.578C535.317 327.919 536.72 338.345 536.72 351.012H543.72ZM539.368 317.476L546.056 315.409C542.889 305.163 538.048 296.742 531.189 290.714L526.568 295.972L521.947 301.23C526.352 305.101 530.045 311.016 532.68 319.543L539.368 317.476ZM526.568 295.972L531.269 290.785C524.401 284.562 515.936 281.548 506.344 281.548V288.548V295.548C512.794 295.548 517.812 297.484 521.867 301.159L526.568 295.972ZM506.344 288.548V281.548C496.879 281.548 488.513 284.588 481.675 290.785L486.376 295.972L491.077 301.159C495.162 297.457 500.107 295.548 506.344 295.548V288.548ZM486.376 295.972L481.675 290.785C475.024 296.813 470.297 305.21 467.144 315.409L473.832 317.476L480.52 319.543C483.17 310.969 486.806 305.03 491.077 301.159L486.376 295.972ZM473.832 317.476L467.155 315.374C463.978 325.465 462.48 337.396 462.48 351.012H469.48H476.48C476.48 338.345 477.883 327.919 480.509 319.578L473.832 317.476ZM469.48 351.012H462.48C462.48 364.473 463.982 376.384 467.144 386.615L473.832 384.548L480.52 382.481C477.88 373.939 476.48 363.492 476.48 351.012H469.48ZM473.832 384.548L467.144 386.615C470.296 396.811 475.006 405.243 481.588 411.415L486.376 406.308L491.164 401.201C486.824 397.133 483.171 391.059 480.52 382.481L473.832 384.548ZM486.376 406.308L481.755 411.566C488.758 417.72 497.263 420.732 506.856 420.732V413.732V406.732C500.406 406.732 495.258 404.794 490.997 401.05L486.376 406.308Z" fill="url(#paint2_linear_4652_7579)" mask="url(#path-5-outside-2_4652_7579)"/>
<path d="M397 98.5L397 248.5" stroke="#065366" stroke-width="10" stroke-linecap="round"/>
<path d="M296 42.5L296 192.5" stroke="#065366" stroke-width="10" stroke-linecap="round"/>
<path d="M347 0L347 307.5" stroke="#065366" stroke-width="10" stroke-linecap="round"/>
<path d="M0 580.5H686C678.485 565.756 664.604 553.249 645.033 549.538C616.408 544.117 586.114 559.023 557.552 553.418C541.326 550.238 528.551 540.968 515.126 533.271C464.483 504.228 395.082 495.646 335.156 511.018C303.831 519.049 275.289 533.093 243.2 539.064C201.707 546.788 158.314 540.383 115.643 539.327C74.0856 538.3 14.5418 551.324 0 580.5Z" fill="white"/>
<path d="M598.441 169.238C598.441 169.238 606.174 165.138 604.447 144.081L620.424 141.119C620.424 141.119 618.629 159.998 626.711 165.991L598.441 169.238Z" fill="#E98862"/>
<g opacity="0.15">
<path d="M623.439 162.044L610.166 151.891L620.59 151.783C620.892 155.351 621.858 158.831 623.439 162.044Z" fill="black"/>
</g>
<path d="M595.384 135.916C596.49 142.305 599.976 148.355 605.611 150.416C612.301 152.866 617.256 153.032 624.969 153.032C635.494 153.032 635.146 142.055 635.441 130.993C635.741 119.888 634.855 107.975 630.695 104.105C622.395 96.3808 598.022 101.272 595.058 114.192C593.525 120.876 594.331 129.831 595.384 135.916Z" fill="#E98862"/>
<path d="M642.737 99.5069C642.737 94.2249 636.163 85.5699 618.625 97.5069L618.608 97.5189C614.052 97.3912 609.5 97.8888 605.079 98.9979C597.059 101.398 587.002 108.121 589.579 124.423C592.459 142.618 599.912 147.474 603.668 149.706C604.625 150.274 604.857 149.806 605.189 148.749C606.231 144.821 606.976 140.82 607.418 136.78C608.074 132.848 608.372 128.865 608.307 124.88C608.307 123.114 608.316 116.68 617.079 116.606C622.008 116.566 620.165 116.762 625.425 116.762C626.175 116.762 626.837 116.728 627.447 116.674H627.454C645.617 116.673 642.737 104.79 642.737 99.5069Z" fill="#0F1011"/>
<path d="M620.402 130.996C621.202 130.996 621.851 130.347 621.851 129.547C621.851 128.747 621.202 128.098 620.402 128.098C619.602 128.098 618.953 128.747 618.953 129.547C618.953 130.347 619.602 130.996 620.402 130.996Z" fill="#0F1011"/>
<path d="M631.834 130.058C632.634 130.058 633.283 129.409 633.283 128.609C633.283 127.809 632.634 127.16 631.834 127.16C631.033 127.16 630.385 127.809 630.385 128.609C630.385 129.409 631.033 130.058 631.834 130.058Z" fill="#0F1011"/>
<path d="M634.343 125.521H634.334L630.495 125.473C630.319 125.465 630.152 125.389 630.031 125.262C629.91 125.134 629.843 124.964 629.844 124.788C629.845 124.612 629.914 124.443 630.037 124.317C630.16 124.191 630.327 124.117 630.504 124.112H630.513L634.352 124.16C634.528 124.168 634.694 124.243 634.815 124.371C634.936 124.499 635.003 124.669 635.002 124.845C635.001 125.021 634.932 125.19 634.809 125.316C634.686 125.442 634.519 125.515 634.343 125.521Z" fill="#0F1011"/>
<path d="M617.273 126.922C617.106 126.922 616.944 126.861 616.819 126.751C616.694 126.64 616.614 126.486 616.595 126.32C616.575 126.154 616.617 125.987 616.713 125.85C616.809 125.713 616.952 125.616 617.115 125.578L620.9 124.667C620.988 124.644 621.079 124.638 621.169 124.651C621.259 124.664 621.346 124.694 621.423 124.741C621.501 124.787 621.569 124.849 621.623 124.922C621.677 124.995 621.715 125.078 621.736 125.166C621.758 125.254 621.761 125.346 621.746 125.436C621.732 125.525 621.699 125.611 621.651 125.688C621.603 125.764 621.539 125.831 621.465 125.883C621.391 125.935 621.307 125.972 621.218 125.991L617.433 126.902C617.381 126.915 617.327 126.922 617.273 126.922Z" fill="#0F1011"/>
<path d="M612.863 133.092C612.941 133.902 612.857 134.72 612.616 135.497C612.375 136.275 611.982 136.997 611.459 137.621C610.937 138.245 610.296 138.76 609.573 139.134C608.85 139.508 608.06 139.735 607.248 139.801C606.437 139.867 605.621 139.772 604.847 139.52C604.073 139.268 603.356 138.864 602.739 138.333C602.123 137.802 601.618 137.153 601.254 136.425C600.89 135.697 600.674 134.904 600.619 134.092C600.539 133.285 600.623 132.471 600.864 131.697C601.106 130.923 601.5 130.206 602.025 129.588C602.549 128.97 603.192 128.464 603.916 128.1C604.64 127.735 605.43 127.521 606.239 127.468C610.617 127.331 612.586 129.711 612.863 133.092Z" fill="#E98862"/>
<g opacity="0.15">
<path d="M626.833 137.584C626.714 137.584 626.598 137.541 626.507 137.462C626.417 137.384 626.357 137.276 626.339 137.158C626.322 137.039 626.347 136.918 626.411 136.817C626.475 136.716 626.573 136.641 626.687 136.606L629.633 135.701L627.572 131.11C627.52 130.989 627.517 130.853 627.565 130.73C627.612 130.607 627.706 130.508 627.826 130.455C627.946 130.401 628.082 130.396 628.205 130.442C628.329 130.488 628.429 130.581 628.484 130.7L630.778 135.807C630.807 135.872 630.822 135.942 630.822 136.013C630.822 136.084 630.807 136.154 630.778 136.219C630.749 136.283 630.706 136.341 630.653 136.388C630.6 136.434 630.537 136.469 630.469 136.49L626.981 137.562C626.933 137.577 626.883 137.584 626.833 137.584Z" fill="black"/>
</g>
<path d="M705.289 569.844L684.436 567.365C685.374 559.472 686.436 549.991 686.508 548.437C686.508 548.537 686.508 548.618 686.508 548.681H707.508C707.502 549.311 707.502 551.231 705.289 569.844Z" fill="#E98862"/>
<path d="M611.613 572.355L590.613 572.286C590.613 572.286 590.683 550.602 590.683 548.686H611.683C611.683 550.608 611.613 572.355 611.613 572.355Z" fill="#E98862"/>
<path d="M676.533 567.15L712.542 558.65C689.227 467.122 669.663 373.698 650.714 281.181L650.447 281.26L649.665 275.93L573.589 271.231C573.589 271.231 570.627 308.488 570.629 320.931C570.636 381.936 580.338 483.361 585.158 564.52L622.11 562.627C619.936 483.927 614.063 405.113 614.485 326.392C636.612 406.036 658.679 486.531 676.533 567.15Z" fill="#262626"/>
<path d="M637.141 580.477C637.705 580.474 638.264 580.355 638.78 580.127C639.297 579.899 639.761 579.567 640.144 579.152C640.526 578.736 640.819 578.246 641.004 577.713C641.188 577.179 641.261 576.613 641.217 576.05C641.156 575.269 640.874 574.522 640.402 573.897C639.931 573.272 639.291 572.794 638.558 572.521L614.116 564.331C613.642 564.174 613.141 564.122 612.645 564.177C612.149 564.232 611.671 564.393 611.244 564.65C607.883 566.981 603.864 568.173 599.776 568.05C596.591 567.824 593.535 566.708 590.955 564.828C590.728 564.642 590.453 564.525 590.162 564.489C589.871 564.454 589.576 564.502 589.311 564.627C589.046 564.753 588.823 564.952 588.666 565.199C588.51 565.447 588.427 565.735 588.428 566.028V577.98C588.428 578.332 588.497 578.682 588.633 579.007C588.768 579.333 588.966 579.629 589.216 579.877C589.466 580.126 589.762 580.323 590.089 580.457C590.415 580.591 590.764 580.659 591.117 580.658L637.141 580.477Z" fill="#C1D8ED"/>
<path d="M730.873 580.477C731.438 580.474 731.996 580.355 732.513 580.127C733.03 579.899 733.494 579.567 733.876 579.152C734.259 578.736 734.552 578.246 734.737 577.713C734.921 577.179 734.994 576.613 734.95 576.05C734.889 575.269 734.606 574.523 734.135 573.898C733.664 573.272 733.024 572.795 732.291 572.521L707.848 564.331C707.375 564.174 706.873 564.122 706.377 564.177C705.882 564.232 705.404 564.393 704.976 564.65C701.616 566.982 697.596 568.174 693.508 568.05C690.324 567.824 687.268 566.707 684.688 564.828C684.461 564.642 684.186 564.524 683.895 564.488C683.604 564.453 683.309 564.501 683.044 564.626C682.779 564.752 682.555 564.951 682.399 565.199C682.242 565.447 682.159 565.735 682.16 566.028V577.98C682.16 578.332 682.23 578.682 682.365 579.007C682.5 579.333 682.699 579.629 682.948 579.877C683.198 580.126 683.495 580.323 683.821 580.457C684.147 580.591 684.497 580.659 684.849 580.658L730.873 580.477Z" fill="#C1D8ED"/>
<path d="M704.027 179.111C704.027 179.111 705.627 167.211 714.073 168.863C719.402 169.908 745.093 171.827 745.19 174.202C745.431 180.077 721.89 178.64 719.119 183.747L704.027 179.111Z" fill="#E98862"/>
<path d="M711.01 168.878C711.01 168.878 723.342 166.455 726.173 167.502C728.679 168.429 722.789 171.976 722.789 171.976L711.01 168.878Z" fill="#E98862"/>
<path d="M523.167 179.111C523.167 179.111 521.567 167.211 513.121 168.863C507.792 169.908 482.102 171.831 482.002 174.202C481.761 180.077 505.302 178.64 508.073 183.747L523.167 179.111Z" fill="#E98862"/>
<path d="M516.184 168.878C516.184 168.878 503.852 166.455 501.021 167.502C498.515 168.429 504.405 171.976 504.405 171.976L516.184 168.878Z" fill="#E98862"/>
<path d="M630.948 144.385C630.948 144.385 625.664 143.385 621.82 144.385C621.82 144.385 622.138 140.876 626.384 140.876C630.63 140.876 630.948 144.385 630.948 144.385Z" fill="white"/>
<path d="M703.99 172.109L674.93 215.799L652.13 173.02L651.905 173.139C648.805 167.739 643.205 164.259 633.575 163.844C632.945 163.814 631.935 163.794 630.635 163.774C630.375 169.274 596.315 169.254 595.595 163.644C585.975 163.654 578.085 166.604 573.515 171.174C571.67 172.997 570.192 175.157 569.161 177.538L546.361 216.794L521.376 171.004L502.236 181.449L536.502 244.231C537.428 245.928 538.789 247.349 540.446 248.347C542.102 249.345 543.994 249.884 545.927 249.91H546.072C547.981 249.91 549.857 249.408 551.511 248.456C553.166 247.503 554.541 246.133 555.499 244.482L573.155 214.082C575.246 221.201 577.1 228.263 577.1 234.765C577.1 255.775 567.6 265.185 568.3 275.965C569.4 292.905 651.73 288.905 655.92 279.275C660.24 269.355 651.47 263.235 651.86 230.775C651.9 227.342 652.16 223.755 652.517 220.103L664.275 242.169C665.162 243.834 666.467 245.24 668.06 246.25C669.654 247.26 671.482 247.839 673.366 247.931C673.544 247.94 673.721 247.944 673.897 247.944C675.694 247.944 677.463 247.5 679.046 246.651C680.63 245.802 681.979 244.575 682.973 243.079L722.145 184.185L703.99 172.109Z" fill="#A0BA3B"/>
<path d="M630.64 163.774C630.38 169.274 627.39 177.364 618.16 177.974C605.86 178.784 596.32 169.254 595.6 163.644H595.63C607.74 163.644 623.58 163.664 630.64 163.774Z" fill="#E98862"/>
</g>
<defs>
<linearGradient id="paint0_linear_4652_7579" x1="252" y1="419" x2="522.694" y2="421.451" gradientUnits="userSpaceOnUse">
<stop stop-color="#065366"/>
<stop offset="1" stop-color="#A0B73E"/>
</linearGradient>
<linearGradient id="paint1_linear_4652_7579" x1="106" y1="297" x2="343.613" y2="298.889" gradientUnits="userSpaceOnUse">
<stop stop-color="#065366"/>
<stop offset="1" stop-color="#A0B73E"/>
</linearGradient>
<linearGradient id="paint2_linear_4652_7579" x1="417" y1="342" x2="687.694" y2="344.451" gradientUnits="userSpaceOnUse">
<stop stop-color="#065366"/>
<stop offset="1" stop-color="#A0B73E"/>
</linearGradient>
<clipPath id="clip0_4652_7579">
<rect width="745.192" height="580.658" fill="white"/>
</clipPath>
</defs>
</svg>
